<?xml version="1.0" encoding="utf-8"?>
<!-- Generator: Adobe Illustrator 24.1.1, SVG Export Plug-In . SVG Version: 6.00 Build 0)  -->
<svg version="1.1" id="Layer_1" xmlns="http://www.w3.org/2000/svg" xmlns:xlink="http://www.w3.org/1999/xlink" x="0px" y="0px"
	 viewBox="0 0 608.6 634" style="enable-background:new 0 0 608.6 634;" xml:space="preserve">
<style type="text/css">
	.st0{fill:#74A7A4;}
</style>
<g>
	<path class="st0" d="M505.6,41.5c-10.7,13.5-16.9,30.6-21.9,46.7c-6.1,19.4-10.5,39.2-14.4,59.2c-3.2,16.2-5.8,32.6-8.8,48.9
		c-1.1,6.2-1.4,13.9-5.7,18.9c-5.5,6.4-12.2,12.1-18.5,17.7c-10.4,9.3-20.9,18.4-31.6,27.4c-24.6,20.9-49.5,41.3-74.4,61.7
		c-14.7,12.1-29.5,24.3-44.4,36.1c-0.2,0.1-0.5,0.3-0.7,0.6c5-4,8.4-10.2,11.7-15.6c5.5-9.1,10.3-18.7,14.9-28.3
		c12-24.8,22.5-50.2,32.3-75.9c4.9-12.8,9.4-25.7,13.6-38.7c4.1-12.5,8-25.3,8-38.6c-0.1-18.4-9-34.8-25.7-42.9
		c-6-2.9-12.7-4.8-19.4-5.4c-3.4-0.3-6.6-0.3-9.9,1c-4.4,1.8-7.9,5.6-10.6,9.4c-8.3,11.7-12.3,26.5-15.3,40.4
		c-3.5,15.9-4.9,31.9-6.8,48c-3,27-7.9,53.9-13.5,80.5c-5.7,27.2-12.3,54.5-21.6,80.7c-8.7,24.5-22.6,46.1-38.3,66.6
		c-12.2,15.9-25.1,31.3-38.9,45.8c-0.8,0.7-1.5,1.6-2.3,2.4c22.7-43.9,33.5-96.7,23.9-145.6c-3.8-19.9-11.6-43.7-32.5-51.3
		c-13.8-5-34.1-0.6-37.7,15.7c-1.3,6.2-0.2,12.7,1.4,18.7c2.4,9.3,6.1,18.3,9.9,27.1c5.3,12.3,11,24.5,16.7,36.8
		c5.4,11.6,10.8,23.3,13.9,35.8c2.1,8.2,3.1,16.7,2,25.1c-0.9,7.7-3.6,15-6.7,22.2c-3.8,8.6-8,17.1-12.3,25.4
		c-3.4,6.4-7.8,12.3-13,17.3c-11.8,11.8-26.9,19.8-41.9,27.1c-22,10.7-44.6,19.9-66.8,30.1c-6.9,3.1-13.6,6.2-20.4,9.4
		c20.6,0.1,42.2-4.7,61.1-12.8c20.8-8.8,42.9-15.3,62-27.5c11.8-7.4,22.2-16.9,31.5-27.3c10.1-11.5,19.2-23.7,29.8-34.8
		c7.8-8,16.1-15.5,25.3-21.8c9-6.2,18.6-11.3,28.5-16.1c11.6-5.7,23.1-11.2,36.1-12.7c12.8-1.5,25.8,0,38.5,2.6
		c12.5,2.6,24.7,6.5,36.9,10.3c11.3,3.5,22.8,7.7,34.7,8.5c11.4,0.8,23.9-1.7,32.1-10.1c7.8-8,9-19.4,5.5-29.7
		c-9.9-29.2-45.5-34.2-72.1-33.7c-20.6,0.5-40.9,8.4-59.9,15.6c-16.3,6.2-32.5,13-48.5,20.2c-0.8,0.4-1.8,0.7-2.6,1.2
		c15.5-19.8,36-35.5,57.1-48.9c9.8-6.2,20-12,30.5-17.2c7.7-3.8,15.9-7.8,24.2-10.1c8-2.2,16.6-2.1,24.9-1.6
		c10.5,0.6,20.8,2.3,31,4.3c20,4,39.7,9.4,59,15.8c10.6,3.5,20.8,5.7,31.9,4.8c10.5-0.9,21.1-4,29.8-9.9c6-4,12.9-10.7,12.8-18.5
		c-0.1-6.2-5.5-11-10.1-14.4c-15.5-11.5-36.1-17.3-54.8-21c-8.9-1.7-18.2-3.1-27.2-2.8c-7.8,0.3-15.6,2-23.2,3.9
		c-30.5,7.6-60.1,19.9-88.5,33c-0.6,0.3-1.1,0.6-1.8,0.8c2.8-3.1,6.2-5.8,9.3-8.4c5.8-5,11.7-9.8,17.7-14.6
		c16.3-13.3,32.7-26.4,49.2-39.5c15.4-12.3,30.9-24.5,46.3-36.8c10-7.9,19.6-15.9,30.9-21.7c11.1-5.7,22.2-10.9,32.3-18.3
		c8.4-6.1,16.3-12.9,23.8-20c11.5-10.8,22.8-22.2,32.9-34.4c15.7-18.8,28.2-41.4,30.9-66.2c1.8-16.4-1-33.3-8.4-48.2
		c-5-10-12-20.8-23.8-23.2c-20.5-4.1-41.8,10.6-55.8,23.8C515.2,30.1,510.3,35.6,505.6,41.5z M166.9,367.4
		c-5.6-16.9-8.9-34.4-14.3-51.4c10.2,5.6,15.9,18.5,19.1,29.1c3.7,12.3,5.6,26.8,1.8,39.4C171,379,168.8,373.2,166.9,367.4z"/>
	<path class="st0" d="M87.9,596.5c-16.4,6.9-32.6,13.9-48.9,21.1c-9.4,4.2-18.9,8.3-28.3,12.9c-1,0.4-5.5,2-5.8,3.2
		c-0.3,0.9,2.9-0.3,3.4-0.5c26.2-7.4,52.4-14.7,78.6-22.2c15.4-4.4,31-8.8,46.4-13.2c11.1-3.3,22.5-7.6,33.9-9.4
		c17.8-2.9,36.5-1,54.2,1.9c18.7,3.1,37.5,7.7,54.8,15.6c8.3,3.8,15.9,8,24.9,10.2c10.1,2.4,20.5,3.1,30.9,3
		c22.8-0.5,45.6-5.6,66.9-13.4c16.9-6.1,39.4-16.3,39.8-37.4c0.3-15.7-11.6-31.7-24.3-40c-15.1-10-34.1-14.5-51.8-17
		c-20.2-2.9-41-3.3-61.2-0.4c-13.6,1.9-26.7,6-39.7,10.4c-16.9,5.6-33.5,12.1-49.9,18.8c-35.3,14.3-70.1,29.9-104.2,46.6
		C101,589.9,94.4,593.2,87.9,596.5z M362.6,550c2.7,1.4,5.5,3,8,4.6c-18.5-3.3-36.8-6.7-55.6-7.7c-18.5-0.9-37,0-55.3,2.4
		c-10.6,1.4-21.2,3.3-31.7,5.2c14.6-9.2,32.1-14.7,49.1-17.3c23.3-3.6,47.5-1.7,69.7,6C352.3,545,357.6,547.4,362.6,550z"/>
</g>
</svg>
