<?xml version="1.0" encoding="utf-8"?>
<!-- Generator: Adobe Illustrator 24.1.1, SVG Export Plug-In . SVG Version: 6.00 Build 0)  -->
<svg version="1.1" id="Layer_1" xmlns="http://www.w3.org/2000/svg" xmlns:xlink="http://www.w3.org/1999/xlink" x="0px" y="0px"
	 viewBox="0 0 4820.5 562.3" style="enable-background:new 0 0 4820.5 562.3;" xml:space="preserve">
<style type="text/css">
	.st0{opacity:0.5;fill:#FAB856;enable-background:new    ;}
	.st1{fill:#DC7948;}
	.st2{fill:#82855E;}
</style>
<g>
	<path class="st0" d="M0,237.6c159.7-57.7,343.5-97.2,523.4-125.8c376-59.8,764.5-55.6,1143.7-8.2
		c355.5,44.4,697,118.7,1058.6,147.6c219.6,17.5,442,26.3,663.1,34.1c197.3,7,395,11.6,592.7,11.9c140.2,0.2,282.3-0.2,421.7-10.7
		c133.6-10.1,269.7-28.6,397.2-54.3c6.6-1.3,13.4-2.7,19.8-4.2c0,97.6,0,195.3,0,292.9c0,13.8,0,27.6,0,41.4
		c-77.8-26.6-157.2-51.7-237.2-75.9c-135.8-41-276.2-82.3-423.7-106.3c-61.9-10.1-125.6-12.8-189.4-15.9
		c-80.2-3.8-160.6-6-241.1-6.4c-218.9-1-432.8,15.4-649.7,30.1c-216.7,14.7-437.8,5.7-652.9-13.2c-156.1-13.7-313-32.1-463.9-60
		c-338.2-62.1-703.1-108.4-1058.3-78c-208.9,17.9-410.6,67.8-592.2,130c-105.1,36-207,77-298.2,124.5c-4.6,2.4-9.2,4.8-13.7,7.3
		C0,411.5,0,324.6,0,237.6z"/>
	<g>
		<path class="st1" d="M4197.9,488.8c9.8-7.4,37.5-18.3,55.1-14.4c14.6,3.3,12.7,15.5-0.2,19.8c-9.5,3.2-22.2,1.6-31.9,5.6
			c-3.9,1.6-6.6,5.4-11,6C4190.4,508.6,4189.3,495.3,4197.9,488.8z"/>
		<path class="st1" d="M4253.9,521.4c13.2-2.2,40.5-0.2,45.4,9.2c5.3,10.1-17.1,17.2-30.3,19.4c-12.4,2.1-30,3.1-36.5-5
			C4225.7,536.4,4239.6,523.7,4253.9,521.4z"/>
		<path class="st1" d="M4354.6,482.2c7.6,0.6,25.6,1.8,28.5,7.1c3.6,6.7-13.1,11.3-22.2,11.9C4332.2,502.8,4333,480.5,4354.6,482.2z
			"/>
	</g>
	<g>
		<path class="st1" d="M575.9,59.1c-9.7,1.2-39.3-0.2-43.2-7.9c-5.8-11.1,14.9-9.4,24.8-7.9c5.9,0.9,23.6,1.6,27.6,4
			C594.1,52.5,585.8,57.8,575.9,59.1z"/>
		<path class="st1" d="M487.1,18.2c-2.4,13.5-29.2,14.7-26.6-1.1C462.5,3.9,489.1,6.6,487.1,18.2z"/>
		<path class="st1" d="M597.5,0c11.4,0.9,13.6,8,0.2,6.8C590,6.1,589.7-0.6,597.5,0z"/>
	</g>
	<g>
		<path class="st1" d="M4820.3,338.2c-44.4-7-89.5,9.1-117.5,28.3c-51.2,35-60.9,86.6,8.3,116.1c20,8.6,53.2,18.2,78,20.1
			c23.9,1.9,31.4,1.4,31.4-10.6c0-28,0-56,0-84C4820.3,384.8,4820.3,361.5,4820.3,338.2z"/>
		<path class="st2" d="M4566.5,314.3c32.7-25.4,137.2-16.1,106.8,23.2C4647.4,371.1,4528,344.2,4566.5,314.3z"/>
	</g>
</g>
</svg>
