<?xml version="1.0" encoding="utf-8"?>
<!-- Generator: Adobe Illustrator 24.1.1, SVG Export Plug-In . SVG Version: 6.00 Build 0)  -->
<svg version="1.1" id="Layer_1" xmlns="http://www.w3.org/2000/svg" xmlns:xlink="http://www.w3.org/1999/xlink" x="0px" y="0px"
	 viewBox="0 0 655.6 438.6" style="enable-background:new 0 0 655.6 438.6;" xml:space="preserve">
<style type="text/css">
	.st0{fill:#FAB856;}
</style>
<path class="st0" d="M650.8,365.6c-29.6-1.1-59.3-1.6-88.7-5.9c-27-4-55.2-11.1-77.1-28.1c-4-3.1-7.7-6.5-11-10.2
	c-1.8-14.8-5.5-29.4-4.5-44.4c1.8-27.1,12.6-51.8,7.4-79.4c-8.6-45.7-63.6-70.4-89.5-22.7c-19.1,35.3,8.1,70.8,28.3,99.1
	c10.9,15.2,23.3,32.9,39.3,43.1c0.9,0.6,2.7,1.4,4.7,2.2c7.2,9.7,15.8,17.6,25.5,24.1c-9.9-3.1-19.8-6.6-29.4-10.4
	c-0.6-0.4-1.3-0.7-2.1-0.8l0,0c-12-4.7-23.8-9.9-35.5-15.4c-0.1-0.1-0.2-0.1-0.3-0.2c-49.1-25.4-89.9-63.3-115.2-112.7
	c-1-2-2-4.1-3-6.1c2.7-4.5,5.8-9.3,6.6-11.5c6.4-17.9,5.5-39.5,4.9-58.1c-1.1-34.8-1.2-79.5-37.8-95.9
	c-52.7-23.5-78.5,35.6-54.8,76.9c13.6,23.7,37.6,36.3,54.4,57c2.6,3.2,5,6.7,7.1,10.2c0,0.5,0.1,1.1,0.3,1.7
	c14.6,38.3,36.6,72.8,66.1,100.8c-43.5-25.3-85.4-53.2-126.2-82.6c-11.7-8.4-23.3-17-34.8-25.7c-6.4-12-13.7-23.6-18.3-36.4
	c-9.8-27-9.4-56.3-21.1-82.9C130.6,16,71.4-29.9,49,26.5c-17.2,43.1,11,73.7,41.2,99.8c17.2,14.9,35.5,29.2,55.3,40.5
	c2.5,1.4,19.3,6.8,32.5,10.6c31.2,23.6,63,46.3,95.6,67.9c2.9,1.9,5.8,3.8,8.7,5.7c-16-3.1-32.3-4.7-48.4-6
	c-13.8-1.1-27.8-1.9-41.7-2.1c-9.7-3.5-27.4-4.7-32.3-5.8c-17.8-3.9-34.8-8.8-52-14.4c-30.9-10.1-97.8-19.1-107,25.9
	c-9.5,46.7,55.6,57.1,86.8,50.2c17.5-3.9,34.9-9.4,49.2-20.4c13.1-10.1,23.7-19.7,37.5-25.3c19.3-0.5,38.7,0.3,58,1.8
	c25.8,2,52.3,5.2,77,13.5c39.9,24.9,81.2,47.9,124.3,66.4c-9.4,1.8-18.6,4.4-27.8,7c-7.9,2.3-15.8,4.5-23.8,6.6
	c-52.6-7.3-216.2-44.2-218.4,39.3c-1.5,55.9,75.2,57.4,110.8,43.8c20.4-7.8,41.2-17.8,56.4-33.9c13-13.8,23.2-26.5,37.2-35.8
	c13.1-2.6,26-6.3,38.9-10c14.7-4.2,29.6-8.6,45-9.6c26.4,10.4,53.7,18.7,81.9,21.9c0.1,0,0.1,0,0.2,0c21,5.3,43.2,7.7,64,9.1
	c17.5,1.2,35.1,1.7,52.7,2.3C657.2,375.9,657.2,365.9,650.8,365.6z"/>
</svg>
