<?xml version="1.0" encoding="utf-8"?>
<!-- Generator: Adobe Illustrator 24.1.1, SVG Export Plug-In . SVG Version: 6.00 Build 0)  -->
<svg version="1.1" id="Layer_1" xmlns="http://www.w3.org/2000/svg" xmlns:xlink="http://www.w3.org/1999/xlink" x="0px" y="0px"
	 viewBox="0 0 497.1 517.2" style="enable-background:new 0 0 497.1 517.2;" xml:space="preserve">
<style type="text/css">
	.st0{fill:#82855E;}
	.st1{fill:#FAB856;}
	.st2{fill:#DC7948;}
</style>
<g>
	<path class="st0" d="M494.4,514.7c-16.2-8.6-28-13.5-41.9-25.6c-13.6-11.9-27.2-23.9-40.8-35.9c-19.8-17.6-40-34.2-55.8-55.5
		c-13.1-17.6-25.5-35.6-37.9-53.7c-15.6-22.9-20.2-43.2-19.2-71.2c1.4-39.8,21.7-73.6,25.3-112.9c1.9-21.6-8.9-98.8-49-69.4
		c-23.8,17.4-9.9,76-4.5,99.2c9.6,40.8,18,82,26.6,123.1c-28.2-43.9-48.3-87.9-58.7-139.2c-6.7-33.1-1.8-65.3-1.4-98.6
		c0.3-22.2-14.2-72.2-41.5-74.8c-53.4-5.1,3.7,98.8,12.2,112c13.4,20.9,16.3,44.6,23.5,67.8c5.8,18.6,14.2,36.7,21.2,54.9
		c-20.9-35.1-44.4-68-67.9-101.3c-21.3-30.3-28.8-68.5-55.3-95.5c-11.1-11.4-40.1-28-54-9.7c-9.1,11.9,3.3,23.2,11.4,32.8
		c37.2,44,84.7,77.4,121.6,122.1c-31.9-29.9-69.8-63.3-112.5-75.8c-23.5-6.9-71.1-15.7-90,6.3c-14.2,16.5,0.5,39.7,15.1,50.4
		c46.6,34,116.3-1.3,166.9,22.8c29.3,13.9,42,21.2,59.9,49.4c19.1,30,35.1,62,53.2,92.7c-44.3-28.6-78.4-73.5-125-98
		c-23.8-12.5-56.8-17.8-82.6-7.9c-21,8.1-27.8,20.6-10.9,37.1c25.8,25.2,55.3,18.6,87.8,19.5c19.5,0.5,35,8.6,52.2,17
		c21.1,10.4,42.1,21.3,62.2,33.5c23.4,14.2,32.6,26.7,47.8,49.8c-6.5-4.7-77.8-52-80.7-41.4c-0.2,0.9,46.4,24.1,49.8,26.3
		c20.2,13,36,25.1,51.4,43.4c-22.2-7.7-44.4-19.3-68.2-19.7c-6.9-0.1-35.9-1.4-32.4,10.3c2.8,9.1,41.2,13.4,48.9,13.8
		c15.5,0.7,29.7-1,45.2,1.4c14.9,2.3,19.3,7.5,30.6,17.6c28.1,25.1,57.3,49.9,88.3,71.4c-31.2-10-63-17.2-92.8-30.8
		c-30.5-13.9-60.3-29.4-90.8-43.3c-28.7-13-57.1-19.7-86.4-29.8c-5.3-1.8-28.4-18.5-33.3-15.7c-6.1,3.4,18.2,14.3,20.4,15.4
		c-9.5-1.1-103.2-10.5-103.2-3.6c0,2.4,96.6,7.8,107,9.1c28.4,3.4,53.4,11.4,79.7,22.9c-28.9-2.4-62.7-8.5-89.7,4.4
		c-12.2,5.9-35.5,15.6-45,24.4c-9,8.4-11.3,7.9,3.1,16.4c43.5,25.5,78.6-4.9,117.1-21.3c16-6.8,31.9-14.1,48.1-8.5
		c22.6,7.9,44,21.4,65.7,31.6c-25.1,1.8-57.5-2.1-81.4,5.4c-10.5,3.3-24.5,15-14,25.3c7.7,7.5,30.1,3.7,38.7,2.6
		c32.2-4.4,57.4-29.5,89.2-19.5c19.9,6.3,40.1,11.6,60.1,17.8c8.3,2.6,17.3,7.6,25.8,9.2C474.1,513.2,506.4,521.1,494.4,514.7z
		 M208.6,183.4c5.9,7.2,11.6,14.3,16.9,21.3L208.6,183.4z M304.1,323.3c-2.4-3.7-4.7-7.2-6.8-10.4L304.1,323.3z"/>
	<g>
		<path class="st1" d="M169.6,386.1c-0.6-11-3.3-22.9-9.8-31.9c-6.3-8.7-44.7-28.9-50.7-11.4c-3.4,9.9,19,23.6,25.2,28.4
			c6.5,5,13.4,10.7,20.8,14.3c0,0,20.2,7.3,17.5,3.1C171.7,387.5,170.7,386.7,169.6,386.1z"/>
		<path class="st1" d="M91.4,392.9c-10.3-12.8-58.4-24.7-62.9-1.7C22.9,420.4,81.9,410.5,91.4,392.9z"/>
		<path class="st2" d="M257.4,337.5c-8.4-21.1-55.2-49.6-69.3-16.4C174.6,352.8,247.5,369.9,257.4,337.5z"/>
		<path class="st2" d="M301.7,246.5c21.3,5.8,62.5-26.4,38.8-45.2c-10.9-8.7-29.8,0-35.2,10.4C300.7,220.9,301.7,236.5,301.7,246.5z
			"/>
	</g>
</g>
</svg>
