<?xml version="1.0" encoding="utf-8"?>
<!-- Generator: Adobe Illustrator 24.1.1, SVG Export Plug-In . SVG Version: 6.00 Build 0)  -->
<svg version="1.1" id="Layer_1" xmlns="http://www.w3.org/2000/svg" xmlns:xlink="http://www.w3.org/1999/xlink" x="0px" y="0px"
	 viewBox="0 0 574.4 325" style="enable-background:new 0 0 574.4 325;" xml:space="preserve">
<style type="text/css">
	.st0{fill:#74A7A4;}
	.st1{fill:#DC7948;}
</style>
<g>
	<g>
		<path class="st0" d="M347.7,225.6c-50.6-23.2-108.9,18.3-155.1,34.4c-34.7,12.1-72.3,21.2-109.4,17.7
			c-17.9-1.7-34.9-6.7-50.4-15.8c-10.2-6-27.4-14.8-31.9-26.8c-5.2-14,14-14.7,23-15.2c26.2-1.3,57.4-11.3,77.6-28.3
			c10.8-9.1,19.7-18.8,32.6-25.2c17.7-8.8,37.8-10.9,57.3-9.4c16.5,1.3,32.7,5.1,48.4,10.1c21.2,6.7,44.3,14.9,63.3,26.6
			C318.6,203.3,332.9,215.1,347.7,225.6z"/>
		<g>
			<path class="st0" d="M244.6,76.4c-6.8,13.3-11.7,28.7-9.9,43.8c1.8,14.8,11,25.2,20.7,35.7c20.3,22.2,43.3,41.9,67.9,59.3
				c50.6,35.9,107.3,62.4,165.5,83.4c14.2,5.1,28.5,10,42.9,14.4c8.1,2.5,16.3,4.8,24.4,7.5c3.9,1.3,13.4,7.2,17,2.9
				c7.5-9.1-20.4-14.4-25.4-15.9c-16.1-4.9-32.1-10-48-15.6c-58.5-20.6-115.8-46.5-166.8-82c-27.6-19.2-53.6-41.3-75.6-66.8
				c-10-11.7-14.7-23.6-11.9-39.1c1.3-7.6,7-15.3,7.9-22.5C253.8,76.8,248.1,69.5,244.6,76.4z"/>
		</g>
		<g>
			<path class="st0" d="M201.1,125.1c7.9-3.2,17.8,0.1,24.9,3.8c7.2,3.8,12.5,12.2,19.3,15.5c8.6,4.2,9.1-3.7,5.5-9.5
				c-5.6-8.8-12-17.2-18-25.7c-4.9-7-11.3-20.7-18.4-25.4c-6.7-4.4-10.9,0.1-7.4,6.7c4.7,8.9,12.5,17.2,18.4,25.5
				c6.4,9.1,12.8,18.3,19.2,27.4c2.6-2,5.2-4,7.9-6.1c-10.1-10.6-22.4-20.1-37.1-22.7c-5-0.9-14.9-2.4-18.7,1.9
				C193.7,120,195.7,127.2,201.1,125.1z"/>
		</g>
		<path class="st1" d="M232.4,19.9c6-20.5,43.8-29.7,50.6-5.3c2,7.3-0.8,15-3.6,21.7c-7.7,17.9-19.4,34.3-30.5,50.2
			C229.7,70.4,225.7,42.7,232.4,19.9z"/>
		<path class="st1" d="M158.2,52.1C148.9,31.7,173,2.4,192.3,20c5.6,5.1,8.3,13.2,10.4,20.3c5.1,17.3,7.4,35.6,9.6,53.4
			C187.8,92.5,167.9,73.3,158.2,52.1z"/>
		<path class="st1" d="M156.2,99.7c-17.7,3.9-28.6,36.8-9.2,45.4c6,2.7,12.8,0.8,18.7-1.2c16-5.6,30.8-15.2,45.1-24.1
			C199.2,101.6,176.4,95.2,156.2,99.7z"/>
	</g>
</g>
</svg>
