<?xml version="1.0" encoding="utf-8"?>
<!-- Generator: Adobe Illustrator 24.1.1, SVG Export Plug-In . SVG Version: 6.00 Build 0)  -->
<svg version="1.1" id="Layer_1" xmlns="http://www.w3.org/2000/svg" xmlns:xlink="http://www.w3.org/1999/xlink" x="0px" y="0px"
	 viewBox="0 0 1252.9 1464.8" style="enable-background:new 0 0 1252.9 1464.8;" xml:space="preserve">
<style type="text/css">
	.st0{opacity:0.4;fill:#74A7A4;enable-background:new    ;}
	.st1{fill:#82855E;}
	.st2{fill:#DC7948;}
</style>
<g>
	<path class="st0" d="M1172.4,530.2c4.2,37.3,3.9,75.3-1.1,113.3l-56,426.2c-16.3,123.9-80.3,234.5-180.1,311.1
		c-56,43-119.3,72.2-185.8,86.9c188.4-4.8,366.3-139.4,433.5-348.1l43-134.1C1277.5,825.9,1252.6,657.6,1172.4,530.2z"/>
	<g>
		<path class="st1" d="M340.1,1330.9c-19.9-13.9-39.7-34.1-49.7-56.7c-9.5-21.3,1.1-41.4,6.8-62.2c3.2-11.9,4.6-23.3,2.3-35.4
			c-1.2-6.1-3-12.2-5.6-18c-1-2.5-2.2-4.9-3.6-7.1c-3.9-3-3.7-5.8,0.6-8.4c4.8-12.7,15.4-23.4,20.1-36.9c3.7-10.2,6.3-21.1,6-31.9
			c-1-44-42.9-42.8-69.6-17.9c-26.7,25.1-32.3,72.7-29.9,107.7c-7-12.4-13.8-24.9-20-37.7c-5.6-11.5-14.9-25.5-9.8-38.3
			c7.9-19.4,27.8-37.4,41.4-53c15.6-17.7,31-35,37.9-58.2c7.1-23.8,0.5-51.8-27.8-55.3c-21.3-2.6-45.9,9.1-56.3,27.8
			c-19.1,33.9-14.7,75-15.4,112.1c-18.6-45.8-28.9-95-20.6-144.2c2.1-12.3,4.6-24.8,8-37c1.2-3.8,12-25.7,0.7-23.2
			c-5.8,1.4-9.9,24.9-11.1,30.3c-3.5,14-6.2,28.4-7.9,42.8c-2.6-18.3-4.5-36.5-6.1-55c-0.7-8.4-1.4-16.8-1.8-25.2
			c-0.1-3.2,1.9-16.7,0-18.8c-10.5-12.2-8,20.1-7.8,24.9c1,16.6,2.3,33.2,4.3,49.7c-5.9-11.7-12.6-23.2-20.1-34
			c-3.6-5.1-12.3-18.6-14.7-6.9c-0.8,3.9,15.7,23.2,18.3,27.7c6.4,10.8,12.9,22.3,17.5,34c8.1,20.7,8.6,46,13.5,67.9
			c5.8,26.7,12.9,53.4,23.9,78.4c-19.8-12.1-36.7-25.7-45.4-47.5c-9.1-22.1-15.6-45.4-28.2-66.2c-13-21.3-41.8-45.9-68.4-32.9
			C0.9,936.3,9,964.6,16.8,980.9c22.5,46.5,75.1,44.3,111.2,72.9c11.3,9,27.5,18.2,36.3,29.5c5.2,6.8,8.1,17.8,11.8,25.6
			c14.9,32.4,27.3,69.4,46.8,99.2c-43.2-17.5-64.4-57.1-96.2-88.4c-18.5-18.2-38.8-35-64.8-40.6c-16.2-3.5-54.2-8.6-59.8,14.2
			c-3.9,15.9,12.7,35.7,22.9,45.9c20.4,20.8,45,29,72.8,34.8c25.9,5.4,54.4,7.3,79.2,16.7c16.8,6.4,31.4,20.2,44.8,31.8
			c29.3,24.8,51.4,55.1,76.9,83.5c-12.9-3.9-25.7-7.7-38.5-12c-4.3-1.4-45.8-15.3-45.5-18.1c-1.4,10.3,25.1,20.4,32.3,23.2
			c15.3,5.8,31.2,10.7,47.1,14.7c19.6,4.9,32.6,11.4,49.9,22.7c25.3,16.4,50.1,33.5,75.4,49.8c18.2,11.7,40,29.3,61.8,33.9
			C434.1,1390.9,385.8,1362.8,340.1,1330.9z M228.6,1180.7c8.1-1.1,16-3.9,23.4-7.2c0.4,9.8,22.6,96.2,25.7,95.2
			c-5.5,1.8-23.1-28.8-25.3-32.2C242.2,1220.3,229.7,1200.4,228.6,1180.7z"/>
		<g>
			<path class="st2" d="M158.1,832.7c11.6-25.4,11.1-53.9,33.1-74.6c17.2-16,71.4-27.3,70.5,9.3c-0.7,26.7-23.9,40.1-42.6,53.7
				c-5.5,3.9-70.7,52.3-64.4,58.7C148.1,873,154.6,840.2,158.1,832.7z"/>
			<path class="st2" d="M128.9,841c0.4-11.9,8.8-26.6,11.8-38.2c5-19.1,8-38.3,7.3-58c-0.6-15.5-2.8-35.4-17.8-43.7
				c-11.8-6.5-24.8-4.6-32.1,6.6C86,726.3,86.7,762.8,94.7,783c8.5,21.4,23.6,41.8,34.4,62.2C129,843.6,128.9,842.3,128.9,841z"/>
			<path class="st2" d="M97.8,861.6c-1.8-17.8-4.9-36.2-11-52.9c-8.5-23.7-37-45.6-63.4-33.2c-21.4,10-8.2,44.9,1.9,58.9
				c9.7,13.4,22.9,15.6,37.4,21.4C70,858.5,91.4,871.9,97.8,861.6z"/>
			<path class="st2" d="M225,1280.2c-16.1-20.6-36-44.9-60.7-55c-19.9-8.1-74.6-18.9-85.8,7.8c-6.8,16.4,10.2,31.4,23.1,37.9
				c14.4,7,29.3,5.7,44.7,5.9C172.8,1277.3,199,1278.8,225,1280.2z"/>
		</g>
	</g>
</g>
</svg>
