<?xml version="1.0" encoding="utf-8"?>
<!-- Generator: Adobe Illustrator 22.1.0, SVG Export Plug-In . SVG Version: 6.00 Build 0)  -->
<svg version="1.1" id="Layer_1" xmlns="http://www.w3.org/2000/svg" xmlns:xlink="http://www.w3.org/1999/xlink" x="0px" y="0px"
	 viewBox="0 0 1080 1080" style="enable-background:new 0 0 1080 1080;" xml:space="preserve">
<style type="text/css">
	.st0{opacity:0.4;fill:#74A7A4;enable-background:new    ;}
	.st1{fill:#82855E;}
	.st2{fill:#DC7948;}
</style>
<path class="st0" d="M873.3,289.2c5.5,22.1,8.3,45,8.3,68.3v261c0,75.9-29.8,147.5-83.8,201.5c-30.3,30.3-66.1,52.9-105,67
	c113-17.8,209.5-112.9,233.4-243.8l15.3-84.1C959.9,458.9,931.6,359.6,873.3,289.2z"/>
<g>
	<path class="st1" d="M435.6,837c-13.1-6.8-26.6-17.4-34.4-30.2c-7.4-12.1-2.6-25-0.8-38c1-7.4,0.9-14.4-1.4-21.5
		c-1.2-3.6-2.8-7.1-4.8-10.4c-0.8-1.4-1.7-2.8-2.7-4c-2.6-1.5-2.7-3.2-0.3-5.1c1.9-8,7.4-15.3,9.2-23.8c1.4-6.4,2.1-13.2,1.1-19.7
		c-4.1-26.4-29.2-22.4-43.3-5.3c-14.1,17.2-13.7,46.3-9.5,67.2c-5.2-6.9-10.3-13.9-15-21.1c-4.3-6.5-11-14.2-8.9-22.3
		c3.2-12.3,13.8-24.7,20.7-35.2c8-11.9,15.9-23.5,18.2-38c2.4-14.9-3.8-31.2-21.1-31.1c-13,0.1-26.9,9.1-31.7,21.2
		c-8.8,21.9-2.9,46.3-0.4,68.7c-14.8-26.1-24.9-54.9-23.8-85.2c0.3-7.6,0.8-15.3,1.9-22.9c0.4-2.4,5.2-16.4-1.4-14
		c-3.4,1.3-4,15.8-4.3,19.1c-1,8.7-1.5,17.6-1.4,26.4c-3-10.8-5.6-21.6-8-32.6c-1.1-5-2.2-10-3.1-15c-0.3-1.9-0.2-10.2-1.5-11.3
		c-7.3-6.5-3.2,12.7-2.7,15.6c1.9,9.9,4,19.8,6.5,29.6c-4.5-6.6-9.4-13-14.8-18.9c-2.6-2.8-8.9-10.2-9.4-3
		c-0.2,2.4,11.3,12.7,13.2,15.2c4.7,6,9.5,12.4,13.2,19.1c6.5,11.8,8.8,27,13.5,39.8c5.6,15.6,12,31.1,20.6,45.3
		c-12.9-5.7-24.1-12.6-31.1-25c-7.2-12.6-13-26.1-22.2-37.6c-9.5-11.8-28.8-24.3-43.8-14.4c-11.7,7.7-4.6,24.1,1.4,33.3
		c17.2,26.2,48.7,20.7,72.7,35.1c7.5,4.5,18,8.8,24.2,14.9c3.7,3.7,6.3,10.1,9.1,14.5c11.5,18.3,21.9,39.6,36,56
		c-27.4-7.1-43.3-29.3-64.9-45.6c-12.6-9.5-26.1-18-42.2-19.3c-10-0.8-33.3-0.9-34.9,13.3c-1.1,9.9,10.5,20.5,17.4,25.8
		c13.9,10.9,29.4,13.9,46.6,15.2c16,1.2,33.3,0.1,49,3.8c10.6,2.5,20.5,9.7,29.5,15.6c19.6,12.6,35.3,29.1,52.9,44.2
		c-8.1-1.3-16.1-2.6-24.1-4.2c-2.7-0.5-28.8-5.6-28.8-7.3c0,6.3,16.7,10.3,21.3,11.4c9.7,2.3,19.6,4,29.5,5.1
		c12.2,1.4,20.5,4.3,31.8,9.7c16.5,7.9,32.8,16.2,49.3,24c11.9,5.6,26.4,14.5,39.9,15.5C496.9,865.7,465.6,852.6,435.6,837z
		 M356.6,755.4c4.8-1.3,9.3-3.6,13.5-6.2c1,5.9,21.2,56.1,23,55.3c-3.2,1.5-16.2-15.5-17.8-17.4
		C367.9,778.2,358.8,767.2,356.6,755.4z"/>
	<g>
		<path class="st2" d="M286.6,551.5c5-16.2,2.4-33.3,14-47.5c9.1-11,40.8-22.1,43.2,0c1.7,16.1-11.2,26-21.4,35.7
			c-3,2.8-38.4,37.1-34.1,40.4C283.8,576.6,285.1,556.3,286.6,551.5z"/>
		<path class="st2" d="M269.7,558.8c-0.7-7.2,3.2-16.7,4.1-23.9c1.5-11.9,1.8-23.7-0.2-35.5c-1.6-9.3-4.5-21.1-14.2-24.9
			c-7.6-3-15.3-0.8-18.8,6.5c-5.8,12.2-2.5,34.1,3.9,45.6c6.8,12.2,17.5,23.3,25.6,34.7C270,560.4,269.8,559.6,269.7,558.8z"/>
		<path class="st2" d="M252.6,573.7c-2.5-10.6-5.8-21.4-10.8-31c-7-13.6-25.9-24.5-40.8-15c-12.1,7.7-1.4,27.7,5.8,35.3
			c6.9,7.3,15,7.6,24.2,9.9C235.6,574,249.6,580.4,252.6,573.7z"/>
		<path class="st2" d="M362.3,815.6c-11.3-11.1-25.2-24.2-40.9-28.3c-12.6-3.3-46.4-5.5-51,11.5c-2.8,10.4,8.6,18.1,16.9,21
			c9.2,3.1,18.1,1.1,27.4,0C330.6,818,346.5,816.8,362.3,815.6z"/>
	</g>
</g>
</svg>
