<?xml version="1.0" encoding="utf-8"?>
<!-- Generator: Adobe Illustrator 22.1.0, SVG Export Plug-In . SVG Version: 6.00 Build 0)  -->
<svg version="1.1" id="Layer_1" xmlns="http://www.w3.org/2000/svg" xmlns:xlink="http://www.w3.org/1999/xlink" x="0px" y="0px"
	 viewBox="0 0 100 100" style="enable-background:new 0 0 100 100;" xml:space="preserve">
<style type="text/css">
	.st0{clip-path:url(#SVGID_2_);fill:url(#SVGID_3_);}
	.st1{clip-path:url(#SVGID_5_);fill:url(#SVGID_6_);}
	.st2{clip-path:url(#SVGID_8_);fill:url(#SVGID_9_);}
</style>
<g>
	<g>
		<defs>
			<path id="SVGID_1_" d="M66.8,73.8c0,0.5-0.4,0.7-0.9,0.7h-1v-1.5h0.9C66.5,73.1,66.8,73.3,66.8,73.8 M64.6,76H65v-1.1h1l0.9,1.1
				h0.4v-0.1l-0.9-1v0c0.5-0.1,0.8-0.5,0.8-1c0-0.7-0.5-1.1-1.3-1.1h-1.3V76z M57.7,75.7c-0.8,0-1.3-0.6-1.3-1.3s0.5-1.3,1.3-1.3
				c0.8,0,1.3,0.6,1.3,1.3S58.5,75.7,57.7,75.7z M57.7,76c1,0,1.7-0.7,1.7-1.7c0-1-0.7-1.7-1.7-1.7c-1,0-1.7,0.7-1.7,1.7
				C56,75.3,56.7,76,57.7,76z M49,72.7h-0.4V76H49v-0.9l0.7-0.7l1.1,1.6h0.4v-0.1L50,74.1l1.3-1.3v-0.1h-0.5L49,74.5V72.7z
				 M43.2,74.2h-1.8v-1.1h2v-0.4H41V76h2.4v-0.4h-2v-1.1h1.8V74.2z M34.1,73.1c0.8,0,1.4,0.5,1.4,1.3c0,0.8-0.6,1.3-1.4,1.3h-0.7
				v-2.5H34.1z M35.8,74.4c0-1-0.7-1.6-1.7-1.6h-1.1V76h1.1C35.1,76,35.8,75.3,35.8,74.4z M95,64.8h-0.4v2.4l-2.3-2.4h-0.1v3.2h0.4
				v-2.5l2.3,2.5H95V64.8z M85.3,67.8c-0.8,0-1.3-0.6-1.3-1.3c0-0.7,0.5-1.3,1.3-1.3c0.8,0,1.3,0.6,1.3,1.3
				C86.6,67.2,86.1,67.8,85.3,67.8z M85.3,68.1c1,0,1.7-0.7,1.7-1.7c0-1-0.7-1.7-1.7-1.7c-1,0-1.7,0.7-1.7,1.7
				C83.6,67.4,84.2,68.1,85.3,68.1z M78.9,68.1v-0.4H77v-2.9h-0.4v3.2H78.9z M71.6,68.1v-0.4h-1.9v-2.9h-0.4v3.2H71.6z M63.4,67.1
				L63.4,67.1l-1.5,0l0,0l0.7-1.5h0L63.4,67.1z M61,68.1h0.4l0.3-0.6h1.8l0.3,0.6h0.4l-1.6-3.2h-0.1L61,68.1z M55.8,65.7
				c0,0.3-0.3,0.5-0.8,0.5h-1v-1.1h1C55.5,65.2,55.8,65.3,55.8,65.7z M55.1,66.6c0.4,0,0.8,0.2,0.8,0.5c0,0.4-0.4,0.6-0.8,0.6h-1.1
				v-1.1H55.1z M56.3,67.2c0-0.4-0.3-0.6-0.6-0.7v0c0.3-0.1,0.5-0.3,0.5-0.7c0-0.6-0.4-0.9-1.2-0.9h-1.4v3.2h1.5
				C55.8,68.1,56.3,67.8,56.3,67.2z M45.1,65.5c0-0.3,0.2-0.5,0.5-0.5c0.4,0,0.5,0.2,0.5,0.5c0,0.3-0.3,0.5-0.7,0.6
				C45.3,66,45.1,65.8,45.1,65.5z M45.6,67.8c-0.5,0-0.8-0.3-0.8-0.6c0-0.3,0.3-0.5,0.6-0.7l1,1C46.2,67.7,46,67.8,45.6,67.8z
				 M44.4,67.2c0,0.5,0.4,0.9,1.2,0.9c0.4,0,0.8-0.2,1-0.4l0.3,0.3h0.4v0l-0.5-0.5c0.2-0.3,0.3-0.7,0.3-1v-0.1h-0.4v0.1
				c0,0.3-0.1,0.5-0.2,0.8l-0.9-0.9c0.4-0.2,0.8-0.4,0.8-0.9c0-0.4-0.3-0.7-0.9-0.7c-0.5,0-0.8,0.3-0.8,0.8c0,0.3,0.2,0.6,0.4,0.8
				l0,0C44.8,66.5,44.4,66.7,44.4,67.2z M37.8,65.9c0,0.5-0.4,0.7-0.9,0.7h-1v-1.5h0.9C37.4,65.2,37.8,65.4,37.8,65.9z M35.6,68.1
				h0.4V67h1l0.9,1.1h0.4V68l-0.9-1v0c0.5-0.1,0.8-0.5,0.8-1c0-0.7-0.5-1.1-1.3-1.1h-1.3V68.1z M28.8,68.1c0.9,0,1.4-0.6,1.4-1.4
				v-1.9h-0.4v1.9c0,0.6-0.3,1.1-1,1.1c-0.7,0-1-0.5-1-1.1v-1.9h-0.4v1.9C27.4,67.5,27.9,68.1,28.8,68.1z M22,66.3h-1.8v-1.1h2v-0.4
				h-2.4v3.2h2.4v-0.4h-2v-1.1H22V66.3z M14.8,68.1v-0.4h-1.9v-2.9h-0.4v3.2H14.8z M5,68.1h0.4v-1.4h1.8v-0.4H5.4v-1.1h2v-0.4H5
				V68.1z"/>
		</defs>
		<clipPath id="SVGID_2_">
			<use xlink:href="#SVGID_1_"  style="overflow:visible;"/>
		</clipPath>
		<linearGradient id="SVGID_3_" gradientUnits="userSpaceOnUse" x1="-56.3197" y1="76.0891" x2="128.8586" y2="66.175">
			<stop  offset="0" style="stop-color:#FDCB00"/>
			<stop  offset="0.25" style="stop-color:#FFFAD2"/>
			<stop  offset="0.43" style="stop-color:#E6C777"/>
			<stop  offset="0.59" style="stop-color:#C9971A"/>
			<stop  offset="0.73" style="stop-color:#DEB954"/>
			<stop  offset="0.87" style="stop-color:#F3DE8E"/>
			<stop  offset="0.93" style="stop-color:#FAEBB0"/>
			<stop  offset="1" style="stop-color:#FFFAD2"/>
		</linearGradient>
		<rect x="5" y="64.7" class="st0" width="90" height="11.3"/>
	</g>
	<g>
		<defs>
			<path id="SVGID_4_" d="M65.8,35.5c0.7,0,1.5-0.2,2-0.5c0.3-0.2,0.6-0.3,0.8-0.5c0.2-0.1,0.6-0.5,0.7-0.5c-0.5,1.5-1.6,2.2-3,2.7
				c-0.2,0.1-0.4,0.2-0.4,0.5c0,0.5,0.6,0.5,0.9,0.7c0.1,0.1,0.4,0.2,0.5,0.3c0.4,0.3,1.1,0.7,1.3,1.1c0.1,0.1,0.1,0.1,0.1,0.2
				c0.2,0.3,0.2,0.2,0.4,0.8c-0.2-0.1-0.5-0.5-1.2-0.8c-0.8-0.4-0.8-0.5-1.5-0.5c-1.5-0.2-2.3,0.1-3.2,0.8c-1.4,1-2.9,3.5-1.9,5.8
				c1,2.5,3.7,2.8,5.1,1.2c2.1-2.4-0.3-6-0.5-6.1c-0.3,0-0.9,0-1.1,0.2c0.1,0.2,0.2,0.3,0.5,0.7c0.9,1.3,1.5,3,0.5,4.5
				c-1.1,1.5-3.7,0.7-3.9-2c0-0.9,0.5-2,1-2.6c0.8-0.9,1.9-1.7,3.2-1.5l0.9,0.3c0.5,0.1,1.1,0.6,1.4,0.9c0.2,0.2,0.4,0.4,0.5,0.7
				c0.3,0.5,0.2,0.6,0.3,0.9c0.1,0.2,0.5,0.4,0.7,0.2c0.5-0.4,0.1-2.6-0.4-3.5c-0.2-0.5-0.1-0.5-0.7-1.1c-0.3-0.3-0.7-0.6-1.1-0.8
				l-0.4-0.2l0.1-0.1c0.1,0,0.1-0.1,0.1-0.1c0.1-0.1,0.2-0.1,0.3-0.2c0.7-0.5,1-0.9,1.5-1.7c0.4-0.7,0.9-2.7,0.4-3.5
				c-0.4-0.1-0.6-0.1-0.8,0.2c-0.1,0.1-0.1,0.3-0.1,0.4c-0.3,1-1.6,1.9-2.6,2.2c-0.2,0.1-0.2,0-0.4,0.2L65.8,35.5z M57.7,30.2
				c0.1,3.1,2,5,3.8,6.9c0.4,0.4,1.6,1.4,1.8,1.7l0.9-0.5c-0.2-0.1-0.6-0.6-0.9-0.8c-1.5-1.4-3.1-2.8-4-4.6
				c-0.3-0.6-0.8-1.9-0.7-2.8C58.3,30,58.1,30.2,57.7,30.2z M48.3,50.4l0.5,0.9c0.3-0.3,0.5-0.5,0.8-0.9c0.3-0.3,0.5-0.6,0.8-0.9
				c1.3-1.2,2.2-2.3,3.8-3.1c0.5-0.3,1.9-0.8,2.7-0.7c0-0.1-0.1-0.8-0.2-0.9c-1.4-0.3-3.9,1.1-5,2.1c-1,0.9-1.8,1.7-2.7,2.6
				C49,49.8,48.6,50.3,48.3,50.4z M42.9,28.5l0.2,0.9c1.6,0.2,3.9-1.1,5-2.1c0.9-0.7,1.5-1.4,2.2-2.2l1.3-1.4
				c-0.2-0.3-0.3-0.6-0.5-0.9c-0.5,0.4-1.2,1.3-1.7,1.8C47.8,26.3,45.8,28.5,42.9,28.5z M35.8,35.9c0.1,0.3,1.4,1.4,1.7,1.7
				c1.4,1.3,3.1,3.2,3.6,5.1c0.2,0.7,0.1,0.9,0.1,1.6l1-0.3c0.2-0.5-0.5-2.4-0.7-2.9c-0.3-0.8-0.9-1.5-1.4-2.1
				c-0.6-0.7-1.1-1.2-1.7-1.8C38.3,37,38.2,37,38,36.8c-0.5-0.5-0.8-0.7-1.4-1.3C36.4,35.6,36.1,35.8,35.8,35.9z M62,49.1
				c-0.3,0-0.5-0.2-0.8-0.3c-0.5-0.3-0.8-0.6-1.2-1c-1.8-2.1-1.8-4.7-0.3-7c1-1.6,1.5-1.8,1.9-2.4c-0.1-0.1-0.6-0.5-0.7-0.6
				c-0.3,0.2-1,1.1-1.3,1.4c-0.4,0.6-0.8,1-1.1,1.6c-1.6,3-0.9,5.9,1.3,8.1c0.6,0.6,1.3,1,2.2,1.2c0.6,0.1,1,0.1,1-0.5
				c-0.1-1.1-0.6-1.9-1.2-2.5c-0.4-0.4-1.5-1.3-2.1-1.5c0.1,0.6,0.7,1.5,1.1,1.8C61.2,47.7,61.9,48.5,62,49.1z M40.2,28.7
				c-0.2-1.4-2-2.4-2.2-3.6c1.7,0.3,3.5,3.2,3.4,5.2c-0.1,1.6-1,3.2-2,4.4c-0.4,0.4-0.7,0.8-1,1.2c0.1,0.2,0.6,0.6,0.7,0.6
				c0.5-0.3,1.7-1.9,2.1-2.6c1.5-2.4,1.6-5.1,0-7.4c-0.8-1.1-2-2.4-3.6-2.4c-1.2,0-0.2,2,0.1,2.4c0.2,0.3,1.1,1.3,1.4,1.6L40.2,28.7
				z M58.4,27.3c1.4-0.2,2.4-2,3.5-2.2c-0.1,0.7-0.8,1.5-1.3,1.9c-0.2,0.2-0.4,0.4-0.6,0.5c-0.3,0.3-1.1,0.6-1.5,0.7
				c-3,0.9-5.4-0.9-7.4-2.8l-0.6,0.7c0.3,0.4,1.3,1.2,1.8,1.6c1.3,1,3.2,1.9,5,1.7c0.5-0.1,1.5-0.3,2-0.6l0.8-0.4
				c0.2-0.1,0.3-0.2,0.6-0.3c0.3-0.2,0.8-0.6,1.1-0.8l0.4-0.5c0.5-0.6,1.2-2.4,0.5-2.6c-0.4-0.1-1.3,0.2-1.6,0.3
				c-0.5,0.2-0.8,0.4-1.2,0.7C59.6,25.5,58.6,26.7,58.4,27.3z M38,49.1c0.1-0.6,0.9-1.5,1.4-1.9l1.3-0.8c0.2-0.1,0.5-0.2,0.8-0.3
				c0.3-0.1,0.5-0.2,0.9-0.3c1.6-0.2,3,0.3,4.1,1.1c0.4,0.3,0.9,0.6,1.2,0.9c0.2,0.2,0.4,0.3,0.6,0.5c0.2,0.2,0.3,0.4,0.5,0.5
				l0.6-0.7c-0.2-0.3-0.5-0.5-0.7-0.7c-0.5-0.4-0.4-0.4-1.2-1c-1.3-0.9-2.3-1.4-3.9-1.6c-0.9-0.1-1.6,0-2.4,0.3
				c-0.4,0.1-0.8,0.2-1,0.3c-0.8,0.6-2.3,1.4-2.7,2.4c-0.2,0.5-0.4,1.1-0.5,1.3c0,0.3-0.3,1,0.5,1c1.9-0.1,3.8-2.2,4-3.3
				C39.9,47.2,39.3,48.9,38,49.1z M53.4,51c0.1-0.1,0.6-0.6,0.7-0.7c0.9-0.7,2.2-1.2,3.4-0.8c1.9,0.5,2.5,2.5,1.4,3.6
				c-1.2,1.2-3.1,0.7-4.5-0.2c-1-0.6-2.6-2-3.2-2.8c-0.2,0.1-0.2,0.2-0.4,0.4c-0.2,0.2-0.2,0.2-0.3,0.4c0.2,0.2,0.7,0.7,0.9,0.9
				c0.2,0.2,0.3,0.3,0.5,0.4c0.5,0.4,1,0.9,1.5,1.3c1.6,1,3.6,2,5.5,0.8c0.3-0.2,0.7-0.6,0.9-0.9c1-1.6,0.2-3.9-2-4.6
				c-1.7-0.5-3.7,0.1-4.9,1.3l-0.4,0.5C52.9,50.6,53.2,50.8,53.4,51z M36.7,39.9c-0.3,0.2-0.4,0.4-0.6,0.7c0.5,0.4,1,1.2,1.3,1.7
				c0.3,0.7,0.5,1.6,0.2,2.5c-0.2,0.7-0.7,1.4-1.3,1.7c-1.6,0.8-3.2-0.6-2.9-2.7c0.1-0.6,0.3-1.2,0.6-1.7c1-1.8,2.9-3.3,3.1-3.7
				c-0.2-0.1-0.5-0.4-0.7-0.6c-1.1,0.9-2.7,2.8-3.3,4.1c-1.6,3.1,0.1,6.5,3.2,5.7c0.2-0.1,0,0,0.2-0.1c0.7-0.3,0.9-0.4,1.4-1
				c1-1.2,1.1-3,0.5-4.4C38,41.3,37.4,40.3,36.7,39.9z M47.3,23.8c-0.1-0.2-0.4-0.5-0.7-0.6c-0.5,0.5-0.2,0.3-0.8,0.7
				c-0.4,0.3-0.6,0.4-1,0.6c-1.1,0.5-2.4,0.5-3.4-0.3c-0.2-0.2-0.2-0.1-0.4-0.3c-0.4-0.5-0.6-1-0.5-1.8c0.2-1.2,1.7-1.7,2.9-1.6
				c1.2,0.1,2.2,0.9,3,1.5c0.1,0.1,0.3,0.2,0.4,0.3l1.2,1.1c0.2,0.2,0.6,0.6,0.8,0.8c0.1-0.3,0.4-0.4,0.6-0.7
				c-0.6-0.6-0.7-0.8-1.4-1.4c-0.6-0.5-0.8-0.7-1.5-1.2c-1.1-0.8-2.7-1.6-4.3-1.3c-1.1,0.2-1.9,0.7-2.3,1.4
				c-0.6,0.9-0.6,1.9-0.1,2.9c0.9,1.8,3.3,2.3,5.2,1.5c0.4-0.2,0.8-0.4,1.2-0.7l0.8-0.7c0,0,0.1-0.1,0.1-0.1
				C47.3,23.9,47.2,24,47.3,23.8z M63.3,34.4c0.3-0.2,0.4-0.4,0.6-0.6c-0.2-0.3-2.2-2-1.5-4.2c1.2-3.8,6.3-1.6,3.4,3.1
				c-0.2,0.3-0.4,0.6-0.6,0.9c-0.6,0.7-1.6,1.8-2.2,2.3c0.2,0.3,0.4,0.4,0.7,0.7c0.1-0.1,0,0,0.1-0.1l0.4-0.4
				c1.7-1.7,3.8-3.9,3.5-6.6c-0.1-0.5-0.3-1-0.5-1.4c-1.9-3.2-7.2-0.6-5.4,4.1C61.9,32.8,62.7,34.1,63.3,34.4z M44.3,17.2
				c0.6,0.5,1.1,0,2.3,1.7c0.1,0.2,0.3,0.4,0.4,0.6c0.7,1.5-0.2,0.4,1,1.5c0.2,0.1,0.2,0.2,0.3,0.3c-0.3-2.7-1.2-3-1.5-3.6
				c0.6,0.3,1.5,0.8,1.9,1.4c0.1,0.1,0,0.1,0.1,0.2c0,0.1,0,0,0.1,0.1c0.5,0.6,0.5,1.7,1,1.7c0.8,0,0.3-2.3,3.1-3.4
				c-0.1,0.2-0.3,0.3-0.4,0.6c-0.8,1.1-1.3,2.6-0.9,4c0.9,3.2,5.4,4.8,7.7,2.5c0.8-0.8,1.2-1.8,0.8-3.1c-0.2-0.6-0.4-0.9-0.8-1.3
				c-0.6-0.6-1.9-1-3.2-0.8c-1.2,0.2-2,0.8-2.8,1.3c0,0.4,0,0.8,0.2,1c0.2-0.1,0.5-0.3,0.7-0.5c0.3-0.2,0.5-0.3,0.8-0.5l0.8-0.3
				c1.6-0.6,3.8,0.1,3.6,2.1c-0.2,2-3.4,3.3-6,0.6c-1.9-2-0.4-5.1,1.5-5.8c0,0,1.2-0.2,0.7-0.8c-0.3-0.5-3.7-0.4-5.1,1.8L50,19.2
				c0,0,0,0,0,0l-0.1-0.1c-0.3-0.4-0.5-0.8-0.9-1.2c-0.4-0.4-0.9-0.7-1.4-0.9c-0.7-0.3-2.1-0.6-2.9-0.5
				C44.3,16.6,44.3,16.8,44.3,17.2z M46.4,52.3c-0.2,0.1-0.8,0.6-1.5,1c-2.2,1.1-4.6,0.3-4.4-1.8c0.3-2.4,4.1-2.8,6-0.5
				c2.2,2.7-0.3,5.5-1.5,5.8c-0.1,0-0.3,0-0.4,0.1c-0.3,0.1-0.3,0.6-0.1,0.8c0.4,0.3,3.1,0.2,4.5-1.2c0.2-0.2,0.4-0.4,0.6-0.7L50,55
				l0.1,0.2c0.9,1.5,1.7,2.2,3.8,2.5c0.4,0.1,1.6,0.2,1.8-0.3c0.3-0.9-0.8-0.1-2.2-2c-0.3-0.4-0.5-0.9-0.7-1.4
				c-0.1-0.3,0-0.2-0.2-0.3L51.7,53c-0.1,1,0.4,2.2,0.9,2.9l0.5,0.7c-0.8-0.2-1.5-0.8-1.9-1.4c-0.8-1.2-0.7-2-1.2-2
				c-0.9,0-0.2,2.2-3.1,3.4c0.1-0.2,0.3-0.4,0.4-0.6c0.2-0.2,0.3-0.4,0.4-0.6c2.3-4.4-2.7-8-6-6.6c-2.2,0.9-2.9,3.5-1.1,5.1
				c2.1,1.9,5.8-0.2,6-0.6C46.6,52.9,46.5,52.5,46.4,52.3z M33.8,33.7c0.4,0,0.8-0.1,1-0.1c-0.1-0.3-0.6-0.7-0.9-1.5
				c-1.2-2.3-0.2-4.6,1.7-4.4c2.2,0.2,3.1,3.7,0.6,5.9c-2.4,2.1-5.2,0.1-5.8-1.4c-0.1-0.2-0.1-0.3-0.1-0.5c-0.1-0.3-0.5-0.4-0.8-0.2
				c-0.4,0.4,0,2.5,0.2,3.1c0.2,0.6,0.6,1,0.9,1.5c0.4,0.5,1,0.8,1.4,1.1c-0.2,0.2-0.4,0.3-0.6,0.4c-0.2,0.2-0.4,0.3-0.6,0.5
				c-1.5,1.3-1.8,4.5-1.2,4.8c0.3,0.1,0.6,0,0.6-0.2c0.3-0.6,0-0.9,1.3-1.9c0.6-0.5,1.1-0.6,1.6-0.8c0.2-0.1,0.2-0.1,0.4-0.4
				c0.2-0.2,0.3-0.4,0.5-0.6c-0.5-0.1-1.7,0.2-2,0.4c-0.8,0.3-1,0.6-1.6,1c0.5-1.3,1.2-2,2.4-2.5c0.4-0.1,1-0.2,1-0.7
				c0-0.6-0.8-0.4-2-1.2c-0.6-0.4-1.1-1.1-1.4-1.9c0.3,0.1,1.1,1.1,2.7,1.4c1.4,0.3,2.4-0.2,3.2-0.8c1.7-1.2,2.8-3.8,1.9-5.8
				c-0.7-1.6-2.3-2.5-3.9-2c-0.6,0.2-0.9,0.4-1.2,0.8c-0.6,0.6-1,1.9-0.8,3.2C32.7,31.8,33.3,33,33.8,33.7z"/>
		</defs>
		<clipPath id="SVGID_5_">
			<use xlink:href="#SVGID_4_"  style="overflow:visible;"/>
		</clipPath>
		<linearGradient id="SVGID_6_" gradientUnits="userSpaceOnUse" x1="0.5826" y1="58.1418" x2="85.5221" y2="21.9497">
			<stop  offset="0" style="stop-color:#FDCB00"/>
			<stop  offset="0.25" style="stop-color:#FFFAD2"/>
			<stop  offset="0.43" style="stop-color:#E6C777"/>
			<stop  offset="0.59" style="stop-color:#C9971A"/>
			<stop  offset="0.73" style="stop-color:#DEB954"/>
			<stop  offset="0.87" style="stop-color:#F3DE8E"/>
			<stop  offset="0.93" style="stop-color:#FAEBB0"/>
			<stop  offset="1" style="stop-color:#FFFAD2"/>
		</linearGradient>
		<rect x="29" y="16.2" class="st1" width="41.9" height="41.7"/>
	</g>
	<g>
		<defs>
			<path id="SVGID_7_" d="M63.8,81.7h0.4v1.7h0.2v-2h-0.7V81.7z M60.9,82.5c-0.3,0-0.5-0.2-0.5-0.4c0-0.2,0.2-0.4,0.5-0.4
				c0.3,0,0.5,0.2,0.5,0.4C61.4,82.4,61.2,82.5,60.9,82.5z M61.6,82.1c0-0.4-0.3-0.6-0.7-0.6c-0.4,0-0.7,0.2-0.7,0.6
				c0,0.4,0.3,0.6,0.7,0.6c0.1,0,0.2,0,0.3-0.1v0c0,0-0.1,0-0.1,0.1l-0.5,0.7H61l0.5-0.8C61.6,82.5,61.6,82.3,61.6,82.1z M57.3,82.5
				c-0.3,0-0.5-0.2-0.5-0.4c0-0.2,0.2-0.4,0.5-0.4c0.3,0,0.5,0.2,0.5,0.4C57.8,82.4,57.6,82.5,57.3,82.5z M58,82.1
				c0-0.4-0.3-0.6-0.7-0.6c-0.4,0-0.7,0.2-0.7,0.6c0,0.4,0.3,0.6,0.7,0.6c0.1,0,0.2,0,0.3-0.1v0c0,0,0,0-0.1,0.1L57,83.5h0.3
				l0.5-0.8C57.9,82.5,58,82.3,58,82.1z M53.6,81.7H54v1.7h0.2v-2h-0.7V81.7z M49.1,83.3c-0.5,0-0.8-0.4-0.8-0.8
				c0-0.4,0.3-0.8,0.8-0.8c0.5,0,0.8,0.4,0.8,0.8C49.8,82.9,49.5,83.3,49.1,83.3z M49.1,83.5c0.6,0,1-0.5,1-1c0-0.6-0.4-1-1-1
				c-0.6,0-1,0.4-1,1C48,83.1,48.4,83.5,49.1,83.5z M45.7,81.5h-0.2V83L44,81.5h-0.1v2h0.2V82l1.4,1.5h0.1V81.5z M41.4,81.5h-0.2V83
				l-1.4-1.5h-0.1v2h0.2V82l1.4,1.5h0.1V81.5z M36.9,82.9L36.9,82.9l-0.9,0l0,0l0.4-0.9h0L36.9,82.9z M35.5,83.5h0.3l0.2-0.3H37
				l0.2,0.3h0.3l-1-2h-0.1L35.5,83.5z"/>
		</defs>
		<clipPath id="SVGID_8_">
			<use xlink:href="#SVGID_7_"  style="overflow:visible;"/>
		</clipPath>
		<linearGradient id="SVGID_9_" gradientUnits="userSpaceOnUse" x1="15.7187" y1="83.5256" x2="75.4347" y2="81.7338">
			<stop  offset="0" style="stop-color:#FDCB00"/>
			<stop  offset="0.25" style="stop-color:#FFFAD2"/>
			<stop  offset="0.43" style="stop-color:#E6C777"/>
			<stop  offset="0.59" style="stop-color:#C9971A"/>
			<stop  offset="0.73" style="stop-color:#DEB954"/>
			<stop  offset="0.87" style="stop-color:#F3DE8E"/>
			<stop  offset="0.93" style="stop-color:#FAEBB0"/>
			<stop  offset="1" style="stop-color:#FFFAD2"/>
		</linearGradient>
		<rect x="35.5" y="81.5" class="st2" width="29" height="2"/>
	</g>
</g>
</svg>
