<?xml version="1.0" encoding="utf-8"?>
<!-- Generator: Adobe Illustrator 22.1.0, SVG Export Plug-In . SVG Version: 6.00 Build 0)  -->
<svg version="1.1" id="Layer_1" xmlns="http://www.w3.org/2000/svg" xmlns:xlink="http://www.w3.org/1999/xlink" x="0px" y="0px"
	 viewBox="0 0 100 100" style="enable-background:new 0 0 100 100;" xml:space="preserve">
<style type="text/css">
	.st0{fill:#41B9B8;}
</style>
<g>
	<g>
		<g>
			<path d="M12,37.5c0-0.7,0.2-1.2,0.5-1.6c0.3-0.4,0.7-0.5,1.2-0.5c0.9,0,1.7,0.4,2.4,1.2l1.8-3.3c-1.4-1.3-3-2-4.7-2
				S10,31.8,8.8,33c-1.2,1.1-1.8,2.7-1.8,4.6v1.1H5v3.5h2.1v14h5v-14h4.3v-3.5H12L12,37.5L12,37.5z"/>
			<path d="M25.9,38.2c-2.7,0-4.9,0.9-6.7,2.6c-1.8,1.8-2.7,3.9-2.7,6.5s0.9,4.7,2.7,6.5c1.8,1.8,4,2.6,6.7,2.6s4.9-0.9,6.7-2.6
				c1.8-1.7,2.7-3.9,2.7-6.5s-0.9-4.7-2.7-6.5C30.9,39.1,28.6,38.2,25.9,38.2z M29.1,50.8c-0.8,0.9-1.9,1.4-3.2,1.4
				s-2.3-0.5-3.2-1.4c-0.8-0.9-1.2-2.1-1.2-3.5c0-1.4,0.4-2.6,1.2-3.5c0.8-0.9,1.9-1.4,3.2-1.4s2.3,0.5,3.2,1.4
				c0.8,0.9,1.2,2.1,1.2,3.5C30.3,48.8,29.9,49.9,29.1,50.8z"/>
			<path d="M47.6,38.2c-1.9,0-3.5,0.8-5,2.3v-2h-4.9v17.7h4.9v-9.9c0-1.4,0.4-2.4,1.1-3.1c0.7-0.7,1.6-1.1,2.6-1.1c2,0,3,1.4,3,4.1
				v10h4.9V45.4c0-2.2-0.6-3.9-1.9-5.3C51,38.8,49.4,38.2,47.6,38.2z"/>
			<path d="M74.4,38.2c-2.7,0-4.9,0.9-6.7,2.6c-1.8,1.8-2.7,3.9-2.7,6.5c0,1.5,0.3,2.8,0.9,4c-0.5,0.5-1.2,0.7-1.9,0.7
				c-0.5,0-0.9-0.2-1.2-0.6c-0.3-0.4-0.5-0.9-0.5-1.6V42h4.3v-3.5h-4.3v-5.3h-5v5.3h-2.1V42h2.1v8.2c0,1.9,0.6,3.5,1.8,4.6
				c1.2,1.1,2.6,1.7,4.3,1.7c1.7,0,3.3-0.7,4.8-2.1l0-0.1c1.7,1.5,3.8,2.2,6.2,2.2c2.7,0,4.9-0.9,6.7-2.6c1.8-1.7,2.7-3.9,2.7-6.5
				c0-2.6-0.9-4.7-2.7-6.5C79.3,39.1,77.1,38.2,74.4,38.2z M77.5,50.8c-0.8,0.9-1.9,1.4-3.2,1.4s-2.3-0.5-3.2-1.4
				c-0.8-0.9-1.2-2.1-1.2-3.5c0-1.4,0.4-2.6,1.2-3.5c0.8-0.9,1.9-1.4,3.2-1.4s2.3,0.5,3.2,1.4c0.8,0.9,1.2,2.1,1.2,3.5
				C78.8,48.8,78.4,49.9,77.5,50.8z"/>
			<path d="M95,38.2c-1,0-2,0.3-2.9,0.8c-1,0.5-1.7,1.1-2.4,1.8v-2.3h-4.9v17.7h4.9v-7.7c0-1.7,0.4-3.1,1.1-4.1
				c0.7-1,1.8-1.6,3.3-1.6h1L95,38.2z"/>
		</g>
		<g>
			<polygon class="st0" points="12,38.6 7.1,38.6 5,38.6 5,42.2 7.1,42.2 12,42.2 16.3,42.2 16.3,38.6 			"/>
		</g>
		<g>
			<polygon class="st0" points="37.6,38.5 37.6,56.1 42.6,56.1 42.6,46.3 42.6,40.4 42.6,38.5 			"/>
		</g>
		<g>
			<path class="st0" d="M95,38.2c-1,0-2,0.3-2.9,0.8c-1,0.5-1.7,1.1-2.4,1.8v7.7c0-1.7,0.4-3.1,1.1-4.1c0.7-1,1.8-1.6,3.3-1.6h1
				L95,38.2z"/>
		</g>
	</g>
	<g>
		<path class="st0" d="M55.9,63.2c0.6,0.6,0.9,1.3,0.9,2.3s-0.3,1.8-0.9,2.3c-0.6,0.6-1.5,0.9-2.7,0.9h-2.1v-6.3h2.2
			C54.5,62.4,55.3,62.6,55.9,63.2z M54.9,66.9c0.3-0.3,0.5-0.8,0.5-1.4c0-0.6-0.2-1.1-0.5-1.4c-0.3-0.3-0.9-0.5-1.6-0.5h-0.8v3.8
			h0.9C54.1,67.4,54.6,67.3,54.9,66.9z"/>
		<path class="st0" d="M64.4,62.4v1.2h-3.1v1.3h2.8v1.2h-2.8v1.3h3.2v1.2h-4.6v-6.3L64.4,62.4L64.4,62.4z"/>
		<path class="st0" d="M69,63.6c-0.1,0.1-0.2,0.3-0.2,0.4c0,0.2,0.1,0.3,0.2,0.4c0.2,0.1,0.5,0.2,1.1,0.4c0.6,0.2,1.1,0.4,1.4,0.7
			s0.5,0.7,0.5,1.3c0,0.6-0.2,1-0.6,1.4s-1,0.5-1.7,0.5c-1,0-1.9-0.4-2.7-1.1l0.8-1c0.7,0.6,1.3,0.9,1.9,0.9c0.3,0,0.5-0.1,0.6-0.2
			c0.1-0.1,0.2-0.3,0.2-0.5s-0.1-0.3-0.2-0.4c-0.2-0.1-0.5-0.2-0.9-0.3c-0.7-0.2-1.3-0.4-1.6-0.7c-0.3-0.3-0.5-0.7-0.5-1.3
			c0-0.6,0.2-1.1,0.6-1.4c0.4-0.3,1-0.5,1.6-0.5c0.4,0,0.8,0.1,1.3,0.2c0.4,0.1,0.8,0.3,1.1,0.6l-0.7,1c-0.5-0.4-1.1-0.6-1.7-0.6
			C69.3,63.5,69.2,63.5,69,63.6z"/>
		<path class="st0" d="M75.1,62.4h1.4v6.3h-1.4V62.4z"/>
		<path class="st0" d="M83.9,65.5h1.4v2.2c-0.6,0.7-1.5,1-2.6,1c-0.9,0-1.7-0.3-2.3-0.9c-0.6-0.6-0.9-1.4-0.9-2.3
			c0-0.9,0.3-1.7,1-2.3c0.6-0.6,1.4-0.9,2.3-0.9c0.9,0,1.7,0.3,2.4,0.9l-0.7,1.1c-0.3-0.2-0.5-0.4-0.8-0.5c-0.2-0.1-0.5-0.1-0.8-0.1
			c-0.5,0-1,0.2-1.4,0.5c-0.4,0.4-0.6,0.8-0.6,1.4c0,0.6,0.2,1.1,0.5,1.4c0.3,0.4,0.8,0.5,1.3,0.5s0.9-0.1,1.2-0.3L83.9,65.5
			L83.9,65.5z"/>
		<path class="st0" d="M92.8,62.4h1.4v6.3h-1.4l-3-3.9v3.9h-1.4v-6.3h1.3l3.1,4L92.8,62.4L92.8,62.4z"/>
	</g>
</g>
</svg>
