<?xml version="1.0" encoding="utf-8"?>
<!-- Generator: Adobe Illustrator 22.1.0, SVG Export Plug-In . SVG Version: 6.00 Build 0)  -->
<svg version="1.1" id="Layer_1" xmlns="http://www.w3.org/2000/svg" xmlns:xlink="http://www.w3.org/1999/xlink" x="0px" y="0px"
	 viewBox="0 0 100 100" style="enable-background:new 0 0 100 100;" xml:space="preserve">
<style type="text/css">
	.st0{fill:#F9FAFC;}
	.st1{fill:#C8C6C8;}
	.st2{fill:#C7D3A4;}
	.st3{fill:#DADADA;}
	.st4{fill:#878787;}
	.st5{display:none;fill:#D8AE27;}
	.st6{fill:#D8AE27;}
	.st7{fill:#706F6F;}
</style>
<g>
	<g>
		<g>
			<path class="st0" d="M94.5,36c-2.6,0-4.7-2.1-4.7-4.7H79.4v-0.4c0-4.8-3.9-8.7-8.7-8.7H29.3c-4.8,0-8.7,3.9-8.7,8.7v0.4H10.2
				c0,2.6-2.1,4.7-4.7,4.7v26.8c2.6,0,4.7,2.1,4.7,4.7h10.4v1.6c0,4.8,3.9,8.7,8.7,8.7h41.4c4.8,0,8.7-3.9,8.7-8.7v-1.6h10.4
				c0-2.6,2.1-4.7,4.7-4.7l0,0L94.5,36L94.5,36z"/>
		</g>
		<g>
			<path class="st1" d="M70.7,78.3H29.3c-5.1,0-9.2-4.1-9.2-9.2v-1.1H9.7v-0.5c0-2.3-1.9-4.2-4.2-4.2H5V35.4h0.5
				c2.3,0,4.2-1.9,4.2-4.2v-0.6h10.4c0.1-5,4.2-9,9.2-9h41.4c5,0,9.1,4.1,9.2,9.1h10.4v0.5c0,2.3,1.9,4.2,4.2,4.2H95v27.9h-0.5
				c-2.3,0-4.2,1.9-4.2,4.2V68H79.9v1.1C79.9,74.2,75.8,78.3,70.7,78.3z M10.8,66.9h10.5v2.1c0,4.5,3.7,8.1,8.1,8.1h41.4
				c4.5,0,8.1-3.7,8.1-8.1v-2.1h10.5c0.2-2.5,2.2-4.5,4.7-4.7V36.5c-2.5-0.2-4.5-2.2-4.7-4.7H78.8v-0.9c0-4.5-3.7-8.1-8.1-8.1H29.3
				c-4.5,0-8.1,3.6-8.1,8.1v0.9H10.8c-0.2,2.5-2.2,4.5-4.7,4.7v25.8C8.5,62.5,10.5,64.5,10.8,66.9z"/>
		</g>
		<g>
			<g>
				<path class="st2" d="M70.7,24.7c3.4,0,6.2,2.8,6.2,6.2v2.5v0.3h0.3h10.5c0.7,2,2.3,3.5,4.3,4.3v22.7c-2,0.7-3.5,2.3-4.3,4.3
					H77.2h-0.3v0.3v3.8c0,3.4-2.8,6.2-6.2,6.2H29.3c-3.4,0-6.2-2.8-6.2-6.2v-3.9V65h-0.3H12.3c-0.7-2-2.3-3.5-4.3-4.3V38
					c2-0.7,3.5-2.3,4.3-4.3h10.6h0.3v-0.3v-2.5c0-3.4,2.8-6.2,6.2-6.2L70.7,24.7 M70.7,24.3H29.3c-3.6,0-6.5,2.9-6.5,6.5v2.5H12.1
					c-0.7,2.1-2.3,3.7-4.4,4.4v23.2c2.1,0.7,3.7,2.3,4.4,4.4h10.8v3.8c0,3.6,2.9,6.5,6.5,6.5h41.4c3.6,0,6.5-2.9,6.5-6.5v-3.8H88
					c0.7-2.1,2.3-3.7,4.4-4.4V37.8c-2.1-0.7-3.7-2.3-4.4-4.4H77.2v-2.5C77.2,27.3,74.3,24.3,70.7,24.3L70.7,24.3z"/>
			</g>
		</g>
	</g>
	<g>
		<path class="st3" d="M59.5,42.8c-0.6-0.3-0.9-0.1-0.8,0.6c0,0.3,0.3,0.6,0.4,1c-0.2,0-0.4,0-0.6-0.1c-0.1,0.4,0,0.5,0.6,0.8
			c-0.1,0.5,0,0.6,0.3,0.6c0.1,0.3,0.2,0.5,0.3,0.8c0.1,0.2,0.3,0.2,0.4,0c0.1-0.3,0.1-0.7,0.2-1c0.2,0,0.4,0.1,0.7,0.2
			c-0.4,0.9-1.2,1.6-1.4,2.7c-0.1-0.4-0.2-0.8-0.4-1.2c-0.3-0.6-0.6-1.2-0.9-1.7c-0.4-0.5-0.4-1-0.3-1.6c0.1-0.7,0.1-1.4,0.1-2
			c0-0.8,0.2-1.4,0.5-2.1c0.4-0.9,1.2-1,1.9-0.4c0.8,0.7,1.2,1.6,1.8,2.5c0.2,0.4,0.6,0.8,0.8,1.2c0,0,0,0,0,0.1
			c0,0.5,0.4,0.4,0.6,0.4c0.6,0,1.2,0.1,1.8,0.2c-0.4,0-0.7,0.1-1,0.1c-0.4,0-0.8,0-1.2,0c-0.2,0-0.4,0-0.4,0.3c0,0-0.1,0.1-0.2,0.1
			c-0.5-0.1-0.8,0.2-1.2,0.4c0,0-0.1,0-0.2,0.1c0.2-0.3,0.3-0.5,0.4-0.7c0.1-0.4,0.2-0.8,0.2-1.3c0-0.6-0.2-1.2-0.4-1.7
			c-0.3-0.6-0.8-1-1.3-1.5c-0.4-0.4-0.9-0.3-1.2,0.2c-0.4,0.7-0.4,1.4-0.4,2.1c0,0.1,0.2,0.2,0.2,0.3c0.2,0.2,0.3,0.4,0.5,0.6
			C59.6,42.8,59.6,42.8,59.5,42.8z"/>
		<path class="st3" d="M58.8,58.7c-0.1,0.3-0.1,0.4,0,0.6c0.2,0.2,0.2,0.2,0.3,0.3c0-0.6,0-1.2,0.1-1.7c0.1-0.4,0-0.6-0.2-1
			c-0.1-0.2-0.2-0.6-0.2-0.8c0-0.8,0.2-1.4,0.8-2.1c-0.6-0.2-0.5-0.7-0.4-1.2c0.1-0.4,0.3-0.7,0.4-1c0-0.1,0-0.2,0-0.4
			c-0.4,0.5-0.6,1-0.7,1.6c-0.1,0.5-0.1,1.1-0.3,1.6c-0.3,0.8-0.2,1.5,0,2.2C58.9,57.5,59,58.1,58.8,58.7z"/>
		<path class="st3" d="M69.1,48.1c0-0.6,0-1.1,0-1.6c0,0,0,0,0.1-0.1c0.1,0.1,0.2,0.2,0.2,0.3c0,0,0,0,0.1,0c0-0.3-0.1-0.6-0.2-0.8
			c0.2-0.1,0.4-0.2,0.6-0.3c0.1,0,0.2-0.1,0.2-0.2c0-0.2,0-0.3,0-0.5c-0.1,0-0.3,0-0.4,0c0.1-0.2,0.2-0.3,0.2-0.4
			c0.2-0.3,0.4-0.6,0.5-1c0.1-0.9,0.6-1.7,0.4-2.7c-0.2-1-0.9-1.4-1.7-0.7c-1,0.8-1.6,1.9-2,3.1c0,0.1,0,0.3,0,0.4
			c-0.2,0.1-0.6-0.1-0.8,0.2c0,0-0.2-0.1-0.4-0.2c0.8-0.1,0.9-0.8,1.2-1.4c0.3-0.8,0.6-1.6,1.3-2.1c0.3-0.2,0.6-0.5,1-0.6
			c0.7-0.3,1.4,0.1,1.6,0.8c0.2,0.9,0.1,1.7-0.2,2.6c-0.3,0.8-0.4,1.6-0.4,2.4c0,0.4-0.1,0.8-0.5,1.1c0,0-0.1,0.1-0.1,0.1
			c0,0.6-0.5,0.8-0.6,1.4C69.2,48.1,69.2,48.1,69.1,48.1z"/>
		<path class="st3" d="M68.8,48.7c0.1,0,0.2-0.1,0.3-0.2c0,0,0,0,0.1,0.1c-0.2,0.2-0.4,0.4-0.6,0.6c0,0,0.1,0.1,0.2,0.2
			c0,0,0,0,0,0.1c-0.2-0.1-0.4-0.2-0.7-0.3c0,0,0,0.1,0,0.2c-0.1-0.1-0.2-0.2-0.4-0.3c0.1,0.2,0.1,0.2,0.2,0.3
			c0.3,0.4,0.4,0.7,0.5,1.2c0,0.3,0.3,0.4,0.5,0.2c0.2-0.1,0.3-0.3,0.3-0.5c0.1-0.7,0.2-1.3,0.3-1.9c0.1,0.4,0.2,0.8,0.2,1.2
			c0,0.4-0.2,0.9-0.3,1.3c-0.1,0.3-0.2,0.6-0.2,1C69,52.3,69,53,68.3,53.4c-0.1,0-0.1,0.1-0.2,0.2c-0.5,0.5-1,0.9-1.7,0.7
			c-0.2,0-0.4,0-0.5,0c0.6-0.2,1.4-0.1,1.6-1c0.2,0.2,0.5,0.4,0.6,0c0.1-0.2,0-0.4-0.1-0.7c0.2,0.1,0.3,0.2,0.5,0.3
			c0-0.2,0-0.4,0.1-0.7c0,0,0.1,0,0.2,0c0-0.1-0.1-0.2-0.1-0.4c0.1,0,0.2-0.1,0.2-0.2c-0.2-0.3-0.3-0.5-0.5-0.8
			c0-0.1-0.1-0.2-0.1-0.2c-0.1-1.2-1-2.3-2.3-2.1c-0.1,0-0.2,0-0.3,0c0.2-0.3,0.4-0.6,0.7-0.9c0,0.8,0.7,0.8,1.3,1.1
			c0-0.2,0-0.3,0-0.4c0.2-0.1,0.4-0.2,0.6-0.2c0.5-0.3,0.6-0.3,1,0.2C69,48.4,68.9,48.6,68.8,48.7c-0.4,0,0-0.3-0.1-0.4
			c-0.1,0.1-0.2,0.1-0.3,0.2c0,0,0,0,0-0.1c0-0.1,0.1-0.1,0.1-0.2c0,0-0.1,0-0.1,0c0,0.2-0.1,0.3-0.1,0.4c0,0-0.1,0-0.2,0
			C68.4,48.9,68.6,49,68.8,48.7z"/>
		<path class="st3" d="M65,50c0.2,0,0.4,0,0.6,0c0-0.2-0.1-0.4-0.2-0.6c0.2,0.1,0.3,0.2,0.5,0.3c-0.1,0.2-0.1,0.5-0.2,0.8
			c-0.2-0.1-0.4-0.2-0.5-0.3c0,0,0,0.1-0.1,0.1c0.2,0.1,0.3,0.3,0.4,0.3c0.3,0,0.5-0.2,0.5-0.6c0.2,0.7,0.4,0.8,0.9,0.4
			c0,0,0,0,0.1,0.1c-0.1,0.1-0.2,0.3-0.4,0.4c-0.4,0.3-0.4,0.5-0.1,0.9c0.2,0.2,0.3,0.4,0.4,0.6c0.2,0.3,0.4,0.5,0.9,0.3
			c-0.1,0.2-0.1,0.4-0.2,0.5c-0.1,0-0.3,0-0.4-0.1c-0.3-0.4-0.7-0.7-1.2-0.8c-0.1,0-0.3-0.1-0.4,0c-0.6,0.3-1.2,0.7-1.7,1
			c-0.5,0.3-0.9,0.6-1.4,0.8c-0.1,0.1-0.4-0.2-0.6-0.3c-0.2-0.1-0.2-0.4,0-0.6c0,0,0.1-0.1,0.1-0.2c0-0.3,0-0.6,0-1
			c0-0.2,0.1-0.4,0.1-0.5c0,0,0.1,0,0.1,0c0,0.2,0,0.3,0,0.5c0.1,0,0.2,0,0.3,0.1c-0.2,0.2-0.4,0.3-0.2,0.6c0.2,0.2,0.4,0.2,0.5,0
			c0.5,0.6,0.6,0.6,1.2,0.1c0.3-0.2,0.5-0.4,0.8-0.6c0,0,0.1-0.1,0.2-0.1c0.1,0,0.3,0,0.4-0.1c0.2-0.2,0.5-0.4,0.5-0.6
			c0-0.2-0.3-0.4-0.5-0.6C64.9,50.5,64.8,50.4,65,50z"/>
		<path class="st3" d="M68.8,45.3c-0.4-0.4-0.7-0.8-1.1-1.3c0-0.1,0.2-0.2,0.2-0.4c-0.2-0.6,0-1.1,0.4-1.3c0,0.3-0.2,0.7-0.1,1
			c0,0.3,0.4,0.6,0.6,0.8c0,0.1,0,0.3,0,0.4c0,0,0,0,0.1,0c0.4-0.4,0.7-0.8,0.7-1.4c0-0.3,0.1-0.5,0.2-0.7c0.1-0.3,0.2-0.6,0.2-0.9
			c0-0.6-0.2-0.7-0.8-0.6c0.1-0.3,0.2-0.4,0.5-0.4c0.2,0,0.4,0.2,0.4,0.4c0.1,0.3,0,0.6,0,0.8c0,0.4-0.1,0.9-0.1,1.3
			c0,0.2-0.1,0.3-0.1,0.4c-0.2,0.4-0.5,0.9-0.8,1.4C69,45,69,45.2,69,45.3c0,0.4,0,0.8,0,1.3c-0.3-0.4-0.6-0.6-0.9-1
			c0.2,0,0.3,0.1,0.4,0.1c0,0,0,0,0-0.1c-0.4-0.3-0.9-0.6-1.3-0.9c0,0,0,0,0-0.1c0.2,0.1,0.5,0.2,0.8,0.3c0,0,0,0,0-0.1
			c-0.3-0.2-0.6-0.4-0.9-0.7c0.6,0.2,1.2,0.5,1.6,1C68.8,45.4,68.8,45.3,68.8,45.3z"/>
		<path class="st3" d="M60.8,47.9c0.3,0,0.5-0.2,0.6-0.6c0,0,0.1,0,0.1,0c0,0.2-0.1,0.4-0.1,0.6c0.1,0.1,0.2,0.2,0.4,0.4
			c-0.1,0-0.2,0-0.2,0c-0.5-0.1-0.8,0.1-0.9,0.6c-0.1,0.8,0,1.7,0.7,2.3c0,0,0.1,0.1,0.1,0.1v0c-0.2,0.1-0.3,0.2-0.4,0.4
			c0,0,0,0.2,0,0.4c0.2-0.1,0.2-0.2,0.3-0.2c0.2,0.2,0.3,0.4,0.4,0.6c-0.1,0-0.3,0.1-0.4,0.1c0,0,0,0.1,0,0.1
			c0.2,0.1,0.3,0.2,0.4,0.2c-0.2,0-0.5,0-0.8,0.1c-0.3-0.4-0.6-1-1-1.5c-0.4-0.7-0.6-1.5-0.6-2.3c0-0.1,0-0.2,0-0.4
			c0,0,0-0.1,0.1-0.1c0,0.9,0,1.7,0.6,2.5c0,0,0.1,0,0.1,0c0-0.2,0-0.4,0-0.6c-0.2-0.6-0.2-1.2-0.1-1.8c0-0.1,0-0.2,0.1-0.3
			C60.5,48.3,60.6,48.1,60.8,47.9z"/>
		<path class="st3" d="M60.9,44.4c0.7-0.5,0.2-1,0-1.4c0.2-0.2,0.4-0.3,0.6-0.5c-0.2-0.5-0.4-1-0.7-1.5c-0.1-0.2-0.2-0.3-0.4-0.4
			c-0.3-0.2-0.6-0.1-0.7,0.2c0,0.1,0,0.2,0,0.3c0,0-0.1,0-0.1,0c0-0.3,0-0.6,0-0.8c0-0.3,0.3-0.4,0.5-0.3c0.2,0.1,0.5,0.3,0.6,0.5
			c0.4,0.6,0.6,1.3,0.9,1.9c0.1,0.2,0,0.4-0.1,0.6c-0.1,0.4-0.2,0.7-0.4,1C61.3,44.3,61.2,44.5,60.9,44.4z"/>
		<path class="st3" d="M62.6,45.5c-0.1,0-0.2,0-0.3-0.1c0.3-0.4,0.6-0.8,1-1.2c0,0,0,0,0.1,0c0,0.1-0.1,0.2-0.1,0.3
			c0.5-0.2,1-0.4,1.4-0.6c0,0,0,0.1,0,0.1c-0.5,0.3-1,0.6-1.5,0.8c0.7,0,1.3,0,1.9,0c0,0,0,0.1,0,0.2c-1.1,0-2.1,0.2-2.7,1.2
			c0,0-0.1-0.1-0.1-0.1C62.4,45.9,62.5,45.7,62.6,45.5z"/>
		<path class="st3" d="M65.2,48.8c-0.5,0.4-1,0.7-1.6,1.1c0.2-0.8,1-0.9,1.4-1.4c-0.8,0.2-1.2,0.8-1.7,1.3c0.2-0.9,0.9-1.4,2.1-1.6
			C65.2,48.4,65.2,48.6,65.2,48.8z"/>
		<path class="st3" d="M64.7,56.6c-0.2-0.2-0.3-0.4-0.5-0.6c-0.3-0.4-0.5-0.8-1-1c-0.1,0-0.2-0.2-0.2-0.3c0-0.1,0.1-0.2,0.2-0.2
			c0.2,0,0.4,0,0.5,0c0.1,0,0.1,0.2,0.2,0.3c0.2,0.4,0.4,0.8,0.7,0.9C64.7,56,64.7,56.2,64.7,56.6C64.8,56.6,64.7,56.6,64.7,56.6z"
			/>
		<path class="st3" d="M61.9,47.7c0.2,0,0.4,0,0.5-0.1c0.3-0.2,0.5-0.1,0.7,0.2c0.1,0.2,0.3,0.4,0.4,0.6c-0.2-0.1-0.3-0.2-0.5-0.4v0
			c-0.1-0.1-0.2-0.2-0.3-0.4c0,0-0.1,0.1-0.2,0.2c0,0,0,0,0,0.1c0,0,0.1,0,0.2-0.1c0,0,0,0.1,0,0.1c-0.1,0-0.2,0-0.3,0
			c0,0-0.1,0-0.2-0.1c0,0.5,0.3,0.6,0.8,0.3c0.1,0.1,0.2,0.2,0.2,0.3c-0.5,0.1-1,0.2-1.3-0.3C61.8,48,61.7,47.9,61.9,47.7z"/>
		<path class="st3" d="M64.3,53.9c0.3,0,0.6-0.1,1-0.1c0,0,0.1,0.2,0.2,0.3c-0.7,0.3-1.9,0.1-2-0.4c0.2,0,0.4,0,0.6,0
			c0.2,0,0.3-0.2,0.5-0.3c0,0,0.1,0.1,0.1,0.1c-0.1,0.1-0.2,0.2-0.3,0.2C64.3,53.8,64.3,53.9,64.3,53.9z"/>
		<path class="st3" d="M65,49.8c0-0.6,0.3-0.9,0.8-0.8c0.2,0,0.4,0,0.6,0c0.4,0,0.7,0.2,0.7,0.7c-0.1-0.1-0.1-0.1-0.2-0.2
			c-0.1-0.3-0.3-0.5-0.6-0.3c-0.1,0-0.2,0-0.4,0c-0.5-0.1-0.6-0.1-0.8,0.4C65,49.8,65,49.8,65,49.8z"/>
		<path class="st3" d="M65.5,55.9c0-0.1-0.1-0.2-0.1-0.3c0-0.3,0.1-0.6,0.2-0.9c0-0.1,0.2-0.2,0.4-0.2c0.1,0,0.2,0.2,0.2,0.3
			c0,0.1-0.2,0.2-0.3,0.3c-0.1,0.1-0.2,0.2-0.3,0.4c0,0.1,0,0.3,0,0.4C65.5,55.9,65.5,55.9,65.5,55.9z"/>
		<path class="st3" d="M66.4,49.5c0,0.2,0,0.4,0.1,0.6c0.1-0.1,0.2-0.2,0.3-0.4c0,0.2,0.2,0.4,0.1,0.4c-0.1,0.1-0.4,0.2-0.5,0.3
			c0,0-0.1-0.1-0.1-0.1C66.3,50,66,49.6,66.4,49.5z"/>
		<path class="st3" d="M63.1,49.3c0,0.8-0.3,1.3-0.8,1.7C62.5,50.5,62.8,49.9,63.1,49.3z"/>
		<path class="st3" d="M66.4,52.5c0,0.2,0,0.2,0,0.4c-0.4,0-0.9,0.1-1.4,0.1C65.3,52.5,65.9,52.7,66.4,52.5z"/>
		<g>
			<path class="st4" d="M64.6,58.3c-0.2,0.2-0.2,0.4-0.3,0.6s-0.1,0.4-0.1,0.4c0,0.1,0.1,0.2,0.2,0.2c0.1,0,0.2,0,0.2-0.1
				c0.1,0,0.1-0.1,0.2-0.2c0-0.1,0.1-0.2,0.1-0.2c0-0.1,0-0.1,0-0.2c0,0-0.1,0-0.1,0c0,0-0.1,0-0.1-0.1c0,0,0-0.1,0-0.1
				c0,0,0,0,0.1,0c0,0,0.1,0,0.1,0.1c0,0,0.1,0.1,0.1,0.2c0,0,0.1,0,0.2,0c0.1,0,0.2,0,0.4-0.1c0.2-0.1,0.3-0.2,0.5-0.3l0,0l0,0l0,0
				c-0.2,0.2-0.5,0.3-0.7,0.4c-0.2,0.1-0.4,0.1-0.5,0.1c0,0.1,0,0.2-0.1,0.4c-0.1,0.1-0.2,0.2-0.2,0.3c-0.1,0.1-0.2,0.1-0.3,0.1
				c-0.1,0-0.2,0-0.3-0.1c-0.1,0-0.1-0.2-0.1-0.3s0-0.4,0.2-0.6c0.1-0.3,0.3-0.6,0.5-0.8c0.2-0.2,0.4-0.5,0.6-0.6
				c0.2-0.2,0.4-0.3,0.7-0.4c0.2-0.1,0.4-0.2,0.5-0.2c0.2,0,0.2,0.1,0.3,0.2c0,0.1,0,0.3-0.1,0.4c-0.1,0.1-0.2,0.3-0.4,0.4
				s-0.4,0.2-0.6,0.4c-0.2,0.1-0.4,0.2-0.6,0.3C64.9,58.2,64.8,58.3,64.6,58.3z M66.9,56.8c0-0.1-0.1-0.2-0.2-0.2
				c-0.1,0-0.2,0-0.4,0.1c-0.2,0.1-0.3,0.2-0.5,0.4c-0.2,0.2-0.4,0.3-0.6,0.5c-0.2,0.2-0.4,0.4-0.6,0.7c0.1,0,0.3-0.1,0.5-0.2
				c0.2-0.1,0.4-0.2,0.6-0.3c0.2-0.1,0.4-0.2,0.6-0.4s0.3-0.2,0.4-0.4C66.9,57,66.9,56.9,66.9,56.8z M64.9,58.6
				C64.9,58.6,64.9,58.6,64.9,58.6c0.1,0.1,0.1,0.2,0.2,0.2c0,0,0-0.1,0-0.1S65,58.6,64.9,58.6C64.9,58.6,64.9,58.6,64.9,58.6z"/>
			<path class="st4" d="M68.3,58.4C68.3,58.4,68.3,58.4,68.3,58.4C68.3,58.4,68.3,58.4,68.3,58.4C68.3,58.4,68.3,58.4,68.3,58.4
				c0,0.1-0.2,0.2-0.3,0.3c-0.2,0.1-0.3,0.2-0.5,0.3c-0.2,0.1-0.4,0.2-0.6,0.2c-0.2,0.4-0.4,0.6-0.6,0.9s-0.4,0.4-0.5,0.5
				c-0.2,0.1-0.3,0.2-0.4,0.2c-0.1,0-0.2,0-0.3,0c-0.1,0-0.1-0.1-0.1-0.2c0-0.2,0.1-0.3,0.2-0.5c0.2-0.2,0.4-0.3,0.6-0.5
				s0.6-0.3,0.9-0.4c0.1-0.2,0.2-0.4,0.3-0.6c-0.1,0.1-0.2,0.2-0.3,0.3c-0.2,0.1-0.3,0.2-0.4,0.2c-0.1,0-0.2-0.1-0.2-0.2
				c0-0.1,0-0.2,0-0.3c0-0.1,0.1-0.2,0.2-0.4c0,0,0,0,0.1,0c0,0,0,0,0.1,0c0,0,0,0,0,0c-0.2,0.2-0.2,0.3-0.3,0.4c0,0.1,0,0.2,0,0.2
				s0.1,0,0.2,0c0.1,0,0.2-0.1,0.4-0.2c0.1-0.1,0.2-0.2,0.2-0.2s0.1-0.2,0.1-0.2c0,0,0,0,0,0c0,0,0,0,0,0c0,0,0,0,0,0h0
				c0,0,0,0,0.1,0c0,0,0,0,0,0.1c0,0.1-0.1,0.3-0.2,0.4c-0.1,0.2-0.2,0.3-0.2,0.4c0.2-0.1,0.4-0.2,0.6-0.2s0.4-0.2,0.5-0.3
				C68.1,58.6,68.2,58.4,68.3,58.4z M65.4,60.7c0.2-0.1,0.4-0.2,0.5-0.4c0.2-0.2,0.3-0.3,0.4-0.5c0.1-0.2,0.2-0.4,0.3-0.6
				c-0.4,0.1-0.6,0.2-0.9,0.4c-0.2,0.1-0.4,0.3-0.6,0.4c-0.1,0.2-0.2,0.3-0.2,0.4c0,0.1,0,0.2,0.1,0.2
				C65.1,60.7,65.3,60.7,65.4,60.7z"/>
			<path class="st4" d="M70.8,54.7c0.6-0.4,1.1-0.8,1.6-1c0.5-0.2,0.9-0.3,1.3-0.3s0.6,0.1,0.8,0.2s0.2,0.3,0.2,0.5
				c-0.1,0.2-0.2,0.4-0.5,0.5c-0.2,0.1-0.6,0.2-0.9,0.3c-0.4,0-0.7,0.1-1.1,0.1s-0.7,0-1-0.1l0,0c0,0-0.2,0.2-0.4,0.4
				s-0.5,0.5-0.8,0.8c-0.3,0.4-0.6,0.8-0.9,1.2c-0.3,0.5-0.5,1-0.6,1.5c-0.1,0.5-0.1,1,0,1.3c0.2,0.4,0.4,0.6,0.8,0.7
				c0.4,0.1,0.8,0.1,1.4,0c0.5-0.2,1.1-0.5,1.7-1s1.3-1.2,1.9-2h0c0,0,0,0,0,0v0c-1.4,1.9-2.8,2.9-4.2,3.1c-0.2,0-0.4,0-0.6,0
				c-0.2,0-0.4,0-0.5-0.1c-0.2-0.1-0.4-0.2-0.5-0.3c-0.2-0.1-0.3-0.3-0.4-0.6c-0.2-0.4-0.2-1,0-1.6s0.5-1.2,0.9-1.9
				C69.5,55.8,70.1,55.2,70.8,54.7c-0.3-0.1-0.6-0.2-0.8-0.4c-0.2-0.2-0.5-0.5-0.7-0.8v0h0h0c0.2,0.4,0.4,0.6,0.7,0.8
				C70.2,54.4,70.5,54.6,70.8,54.7z M74.5,54.3c0.1-0.1,0.1-0.2,0.1-0.3c0-0.1-0.1-0.2-0.1-0.2c-0.2-0.2-0.6-0.2-1.2,0
				c-0.6,0.2-1.2,0.6-1.9,1.1c0.3,0,0.6,0.1,1.1,0.1c0.4,0,0.8,0,1.2-0.2C74,54.7,74.3,54.5,74.5,54.3z"/>
			<path class="st4" d="M78.1,57.8c0,0-0.1,0.2-0.4,0.4c-0.3,0.2-0.6,0.5-1.1,0.7c-0.4,0.2-1,0.4-1.5,0.5c-0.2,0.4-0.5,0.7-0.7,0.9
				c-0.2,0.2-0.5,0.2-0.7,0.1c-0.2-0.1-0.4-0.2-0.5-0.4c-0.1-0.2-0.2-0.5-0.1-0.8c0-0.3,0.2-0.6,0.5-1c0-0.1,0.1-0.2,0.1-0.4
				c0.1-0.2,0.2-0.3,0.3-0.4c0.2-0.1,0.3-0.2,0.6-0.3c0.3,0,0.5,0,0.6,0.1c0.1,0.1,0.2,0.3,0.2,0.5c0,0.2,0,0.5,0,0.8
				c0,0.3-0.1,0.5-0.2,0.8c0.5-0.1,1-0.3,1.5-0.6s0.9-0.6,1.3-1C78,57.8,78,57.8,78.1,57.8C78,57.8,78,57.8,78.1,57.8z M73.7,58.9
				c-0.2,0.4-0.3,0.7-0.3,0.9s0.1,0.4,0.3,0.5c0.2,0.1,0.4,0,0.6-0.1c0.2-0.1,0.5-0.4,0.7-0.8c-0.3,0-0.6,0-0.8,0
				C74,59.4,73.8,59.2,73.7,58.9z M75.1,59.4c0.1-0.2,0.2-0.5,0.2-0.7c0-0.3,0.1-0.5,0-0.7c0-0.2-0.1-0.4-0.2-0.5
				c-0.1-0.1-0.3-0.2-0.6-0.1c-0.3,0.1-0.5,0.2-0.6,0.4c-0.2,0.2-0.2,0.4-0.3,0.5c0.1-0.1,0.3-0.3,0.5-0.4l0,0c0,0,0.1,0,0.2,0
				c0,0,0.1,0,0.1,0.1c0.1,0.1,0.1,0.2,0.1,0.2c0,0-0.1,0.1-0.2,0.2c-0.1,0-0.2,0.1-0.3,0.2c-0.1,0.1-0.2,0.2-0.4,0.4
				c0.1,0.3,0.3,0.4,0.6,0.5C74.6,59.4,74.8,59.5,75.1,59.4z"/>
			<path class="st4" d="M82.1,57.8C82.1,57.8,82.1,57.8,82.1,57.8C82.2,57.8,82.2,57.8,82.1,57.8L82.1,57.8c-1.2,1.2-2.3,2-3.2,2.4
				c-0.2,0.1-0.4,0.2-0.7,0.2c-0.2,0-0.5,0-0.7,0c-0.2-0.1-0.4-0.2-0.4-0.4c0-0.2,0-0.5,0-0.8s0.2-0.5,0.3-0.6
				c0.1-0.2,0.2-0.3,0.3-0.4c0.1-0.1,0.2-0.2,0.4-0.3c0.2-0.1,0.3-0.2,0.4-0.2c0.2,0,0.3,0,0.4,0c0,0,0.1,0.1,0,0.1c0,0,0,0.1,0,0.1
				c0,0-0.1,0.1-0.1,0.1s-0.1,0.1-0.1,0.1c0,0,0,0,0,0h0v0c0,0,0,0,0,0c0,0,0,0,0,0c0,0,0,0,0.1,0c0,0,0,0,0.1-0.1c0,0,0,0,0-0.1
				c0,0,0,0,0-0.1c-0.1,0-0.2,0-0.4,0.2c-0.2,0.1-0.3,0.3-0.5,0.6c-0.2,0.2-0.3,0.5-0.4,0.8c-0.1,0.3-0.2,0.5-0.1,0.8
				c0,0.2,0.1,0.3,0.2,0.3c0.1,0,0.3,0.1,0.4,0.1s0.3,0,0.5-0.1c0.2,0,0.2-0.1,0.3-0.1C79.8,59.7,80.8,58.9,82.1,57.8z"/>
			<path class="st4" d="M86,57.8c0,0-0.1,0.2-0.4,0.4c-0.3,0.2-0.6,0.5-1.1,0.7c-0.4,0.2-1,0.4-1.5,0.5c-0.2,0.4-0.5,0.7-0.7,0.9
				c-0.2,0.2-0.5,0.2-0.7,0.1c-0.2-0.1-0.4-0.2-0.5-0.4C81,59.9,81,59.6,81,59.3c0-0.3,0.2-0.6,0.5-1c0-0.1,0.1-0.2,0.1-0.4
				c0.1-0.2,0.2-0.3,0.3-0.4c0.2-0.1,0.3-0.2,0.6-0.3c0.3,0,0.5,0,0.6,0.1c0.1,0.1,0.2,0.3,0.2,0.5c0,0.2,0,0.5,0,0.8
				c0,0.3-0.1,0.5-0.2,0.8c0.5-0.1,1-0.3,1.5-0.6s0.9-0.6,1.3-1C85.9,57.8,85.9,57.8,86,57.8C86,57.8,86,57.8,86,57.8z M81.6,58.9
				c-0.2,0.4-0.3,0.7-0.3,0.9c0,0.2,0.1,0.4,0.3,0.5c0.2,0.1,0.4,0,0.6-0.1c0.2-0.1,0.5-0.4,0.7-0.8c-0.3,0-0.6,0-0.8,0
				S81.8,59.2,81.6,58.9z M83.1,59.4c0.1-0.2,0.2-0.5,0.2-0.7c0-0.3,0.1-0.5,0-0.7c0-0.2-0.1-0.4-0.2-0.5c-0.1-0.1-0.3-0.2-0.6-0.1
				c-0.3,0.1-0.5,0.2-0.6,0.4s-0.2,0.4-0.3,0.5c0.1-0.1,0.3-0.3,0.5-0.4l0,0c0,0,0.1,0,0.2,0c0,0,0.1,0,0.1,0.1
				c0.1,0.1,0.1,0.2,0.1,0.2c0,0-0.1,0.1-0.2,0.2c-0.1,0-0.2,0.1-0.3,0.2c-0.1,0.1-0.2,0.2-0.4,0.4c0.1,0.3,0.3,0.4,0.6,0.5
				C82.5,59.4,82.8,59.5,83.1,59.4z"/>
		</g>
		<g>
			<path class="st5" d="M70.1,46.1c0.1,0.7,0.2,1.4,0.2,2.1c0,1.2-0.2,2.3-0.5,3.3l0.3,0.3c0.4-1.2,0.5-2.3,0.5-3.6
				c0-0.8-0.1-1.6-0.2-2.3L70.1,46.1z"/>
			<path class="st6" d="M57.9,60.6c-5.3,0-9.9-3.4-11.6-8.1h-0.4c1.7,4.9,6.4,8.4,12,8.4c1.5,0,3-0.3,4.3-0.8l-0.3-0.3
				C60.6,60.4,59.3,60.6,57.9,60.6z"/>
			<path class="st6" d="M57.9,35.6c-5.2,0-9.7,3.2-11.7,7.8h0.4c1.9-4.3,6.3-7.4,11.3-7.4c3.3,0,6.4,1.4,8.6,3.5l0.3-0.2
				C64.5,37,61.4,35.6,57.9,35.6z"/>
		</g>
		<g>
			<path class="st7" d="M19.6,50l-0.4,1.4H14l0.2-0.1c0.3-0.1,0.4-0.4,0.4-0.6V44c0-0.3-0.2-0.6-0.4-0.6L14,43.3h1.9l-0.2,0.1
				c-0.3,0.1-0.4,0.4-0.4,0.6v7.1h3.1c0.4,0,0.7-0.2,0.9-0.5L19.6,50z"/>
			<path class="st7" d="M35.3,44.3l-0.2,0.1c-0.2,0.1-0.4,0.3-0.4,0.6V49c0,1.3-1.1,2.4-2.4,2.4H32c-1.3,0-2.4-1.1-2.4-2.4v-4.1
				c0-0.2-0.2-0.5-0.4-0.6l-0.2,0h1.6l-0.2,0c-0.2,0.1-0.4,0.3-0.4,0.6V49c0,1.3,1,2.1,1.7,2.1h0.8c1,0,1.9-1.1,1.9-2.1v-4.1
				c0-0.2-0.1-0.4-0.4-0.6L34,44.3L35.3,44.3z"/>
			<path class="st7" d="M42.9,44.4l-0.2,0.1c-0.2,0.1-0.4,0.3-0.4,0.6v6.5l-5.1-6.5v5.8c0,0.2,0.2,0.4,0.4,0.6l0.2,0.1h-1.4l0.2-0.1
				c0.2-0.1,0.4-0.3,0.4-0.6v-5.8c0-0.2-0.2-0.4-0.4-0.6l-0.2-0.1h1l4.7,5.9v-5.2c0-0.2-0.1-0.4-0.4-0.6l-0.2-0.1L42.9,44.4z"/>
			<path class="st7" d="M49.1,48.9L49.1,48.9h1.6l-0.2,0c-0.2,0.1-0.4,0.3-0.4,0.6V51c0-0.1-0.1-0.1-0.2-0.1c0,0-0.1,0-0.1,0
				c-0.6,0.4-1.3,0.6-1.9,0.6c-2.3,0-3.8-1.6-3.8-3.6c0-1.9,1.5-3.6,3.8-3.6c0.7,0,1.4,0.2,2,0.6c0,0,0,0,0.1,0c0,0,0.1,0,0.1-0.1
				l0.1-0.1v1.1L50,45.5c-0.4-0.6-1.4-0.9-2.1-0.9c-2,0-3.3,1.6-3.3,3.3s1.3,3.3,3.3,3.3c0.7,0,1.2-0.1,1.7-0.5v-1.1
				c0-0.2-0.2-0.5-0.4-0.6L49.1,48.9L49.1,48.9L49.1,48.9z"/>
			<path class="st7" d="M56.8,50.2l-0.3,1.2h-4.6l0.2,0c0.2-0.1,0.4-0.3,0.4-0.6v-5.8c0-0.2-0.2-0.5-0.4-0.6l-0.2,0h4.4l0,0.9
				l-0.2-0.3c-0.1-0.2-0.3-0.3-0.5-0.3H53v3h1.7c0.2,0,0.5-0.1,0.6-0.4l0.1-0.2v1.2l-0.1-0.1c-0.1-0.2-0.3-0.4-0.6-0.4H53v3.3h2.7
				c0.3,0,0.6-0.2,0.8-0.4L56.8,50.2z"/>
			<g>
				<path class="st6" d="M27.9,47.9c0,1.7-1.2,3.1-2.7,3.6c-0.2,0-0.3,0-0.3-0.2c-0.3-0.7-0.6-1.4-0.9-2c0-0.1-0.1-0.2-0.3-0.2
					c-0.4-0.1-0.6,0.1-0.8,0.5c-0.2,0.4-0.4,0.8-0.6,1.2c-0.1,0.2-0.2,0.2-0.3,0.1c-1.2-0.8-1.8-2.4-1.5-3.8c0.3-1.5,1.5-2.6,3-2.9
					c2-0.3,3.8,0.9,4.3,2.8C27.9,47.3,27.9,47.7,27.9,47.9z M24.2,49.1c0.3,0.7,0.6,1.4,1,2.1c0.3-0.1,0.5-0.2,0.8-0.4
					c0.1,0,0.2-0.1,0.2-0.3c0-0.8,0-1.7,0-2.5c0-0.1,0-0.1,0-0.2c-0.1,0-0.2,0-0.4,0c-0.1,0-0.2-0.1-0.2-0.2c0-0.3,0.1-0.6,0.2-1
					c0,0,0.1-0.2,0.2-0.2c0.2,0,0.4,0,0.6,0c0.1,0,0.2,0.1,0.2,0.2c0.1,0.3,0.1,0.6,0.2,1c0,0.1,0,0.2-0.2,0.2s-0.2,0-0.3,0
					c0,0.9,0,1.8,0,2.7c1-0.8,1.6-2.3,1.1-3.7c-0.5-1.5-1.9-2.4-3.4-2.3c-1.5,0.1-2.8,1.2-3.2,2.6c-0.4,1.5,0.3,2.9,1.3,3.5
					c0.2-0.5,0.4-1,0.7-1.5c-0.4,0-0.4,0-0.4-0.4c0-0.5,0-1,0-1.6c0-0.1,0-0.2,0.2-0.2c0.2,0,0.2,0.1,0.2,0.2c0,0.5,0,0.9,0,1.4
					c0,0.1,0,0.2,0,0.2c0.5,0,1,0,1.5,0c0,0,0.1,0,0.2,0c0,0,0.1,0.1,0.2,0.2c0,0-0.1,0.1-0.2,0.1C24.4,49.1,24.3,49.1,24.2,49.1z
					 M26,46.9c0,0.2-0.1,0.4-0.1,0.7c0.2,0,0.4,0,0.7,0c0-0.1,0-0.2-0.1-0.4C26.4,46.8,26.4,46.8,26,46.9C26,46.9,26,46.9,26,46.9z"
					/>
			</g>
		</g>
	</g>
</g>
</svg>
