<?xml version="1.0" encoding="utf-8"?>
<!-- Generator: Adobe Illustrator 22.1.0, SVG Export Plug-In . SVG Version: 6.00 Build 0)  -->
<svg version="1.1" id="Layer_1" xmlns="http://www.w3.org/2000/svg" xmlns:xlink="http://www.w3.org/1999/xlink" x="0px" y="0px"
	 viewBox="0 0 100 100" style="enable-background:new 0 0 100 100;" xml:space="preserve">
<style type="text/css">
	.st0{fill:#006E9C;}
</style>
<g>
	<path class="st0" d="M26.6,47.7c-0.1,0.2-0.2,0.4-0.3,0.7c-0.4,0.8-0.8,1.7-1.2,2c1.4,1.1,3.1,1.7,5,1.7c4.4,0,8-3.6,8-8
		s-3.6-8-8-8s-8,3.6-8,8c0,1.7,0.5,3.3,1.4,4.6C24.4,49,26.3,48,26.6,47.7z M29.2,42.7c-0.9-0.6-3.7-1.6-3.7-1.6l0.4-0.4
		c0.2-0.2,0.6-0.2,0.6-0.2l1.1,0.2l0.6-0.6c0.3-0.3,0.6,0.2,0.4,0.3l-0.3,0.4l1.2,0.2l0.4-0.5c0.4-0.5,0.8-0.1,0.6,0.2l-0.3,0.3
		l1.8,0.2l0.1-0.1c1.5-1.5,2.1-2.1,2.5-1.8c0.4,0.4-0.3,1.1-1.7,2.6l-0.1,0.1l0.3,1.9l0.4-0.3c0.2-0.2,0.6,0.1,0.2,0.5l-0.5,0.5
		l0.2,1.3l0.3-0.3c0.3-0.2,0.6,0.1,0.2,0.5l-0.5,0.5c0,0,0.2,1.1,0.2,1.1c0.1,0.5-0.2,0.7-0.2,0.7L33,49.1l-1.3-3.9
		c-0.1-0.3-0.4-0.7-0.9-0.7c-0.2,0-0.9,0.5-1,0.6l-1.5,1.5c0,0,0.2,1.9,0.2,1.9c0,0.1-0.5,0.7-0.5,0.7l-0.9-1.7l-0.5,0.2l0.3-0.4
		l-1.7-1l0.6-0.5c0.3,0.1,1.8,0.3,1.9,0.2c0,0,1.3-1.3,1.3-1.4c0.4-0.5,0.6-0.6,0.6-0.9C29.9,43.4,29.8,43.1,29.2,42.7z"/>
	<polygon class="st0" points="7.6,45 12.3,52.1 17,45 17,52.1 19.6,52.1 19.6,36.2 12.3,47.3 5,36.2 5,52.1 7.6,52.1 	"/>
	<path class="st0" d="M54,52.2l1.1-2.6h5.5l1.1,2.6h2.9L57.8,36l-6.7,16.1H54z M57.8,43l1.6,3.9h-3.2L57.8,43z"/>
	<polygon class="st0" points="84.8,45.4 91.2,52.2 94.9,52.2 87.3,44.2 94.8,36.2 91.1,36.2 84.8,42.9 84.8,36.2 82.1,36.2 
		82.1,52.2 84.8,52.2 	"/>
	<path class="st0" d="M43.3,45.5h4.2c2.5-0.1,4.6-2.1,4.6-4.7c0-2.5-2-4.6-4.6-4.6h-6.9v16h2.6V45.5z M43.3,38.8h4.2
		c1.1,0.1,1.9,0.9,1.9,2c0,1.1-0.9,2-1.9,2h-4.2V38.8z"/>
	<path class="st0" d="M69.8,45.5h2l4.6,6.7h3.3l-4.6-6.8c2.3-0.5,3.9-2.6,3.7-5c-0.2-2.4-2.2-4.2-4.6-4.2h-6.9v16h2.6V45.5z
		 M69.8,38.8H74c0.7,0,1.4,0.4,1.8,1c0.4,0.6,0.4,1.4,0,2c-0.4,0.6-1.1,1-1.8,1h-4.2V38.8z"/>
	<path class="st0" d="M67.5,56.5c-0.1-0.1-0.3-0.1-0.4-0.1h-1.6v2.1h1.6c0.2,0,0.3,0,0.4-0.1c0.1-0.1,0.2-0.2,0.3-0.4
		c0.1-0.2,0.1-0.3,0.1-0.5c0-0.2,0-0.4-0.1-0.6C67.8,56.7,67.6,56.6,67.5,56.5z"/>
	<path class="st0" d="M20,56.5c-0.1-0.1-0.3-0.1-0.4-0.1H18v2.1h1.6c0.2,0,0.3,0,0.4-0.1c0.1-0.1,0.2-0.2,0.3-0.4
		c0.1-0.2,0.1-0.3,0.1-0.5c0-0.2,0-0.4-0.1-0.6C20.2,56.8,20.1,56.6,20,56.5z"/>
	<polygon class="st0" points="8.5,59.3 10.4,59.3 9.5,56.6 	"/>
	<path class="st0" d="M5.1,53.2V64H95V53.2H5.1z M11.2,61.9l-0.6-1.7H8.3l-0.6,1.7H6.4l2.5-6.6h1.3l2.4,6.6H11.2z M14.9,61.9h-1.3
		v-6.6h1.3V61.9z M20.6,61.9l-1.4-2.2H18v2.2h-1.3v-6.6h2.9c0.3,0,0.6,0.1,0.8,0.2c0.3,0.1,0.5,0.3,0.7,0.5c0.2,0.2,0.3,0.4,0.4,0.7
		c0.1,0.3,0.2,0.5,0.2,0.8c0,0.3-0.1,0.6-0.2,0.8c-0.1,0.3-0.2,0.5-0.4,0.7c-0.2,0.2-0.4,0.3-0.6,0.4l1.5,2.5H20.6z M27.9,58.5
		c-0.2,0.3-0.4,0.6-0.7,0.8c-0.3,0.2-0.7,0.3-1.1,0.3h-1.6v2.2h-1.3v-6.6v0h2.8c0.3,0,0.6,0.1,0.8,0.2c0.3,0.1,0.5,0.3,0.7,0.5
		c0.2,0.2,0.3,0.4,0.4,0.7c0.1,0.3,0.2,0.5,0.2,0.8C28.2,57.8,28.1,58.2,27.9,58.5z M35.3,59.8c-0.2,0.4-0.4,0.8-0.7,1.1
		c-0.3,0.3-0.6,0.6-1,0.7c-0.4,0.2-0.8,0.3-1.3,0.3c-0.5,0-0.9-0.1-1.3-0.3c-0.4-0.2-0.7-0.4-1-0.8c-0.3-0.3-0.5-0.7-0.7-1.1
		c-0.2-0.4-0.2-0.8-0.2-1.2c0-0.4,0.1-0.9,0.2-1.3c0.2-0.4,0.4-0.8,0.7-1.1c0.3-0.3,0.6-0.6,1-0.7c0.4-0.2,0.8-0.3,1.3-0.3
		c0.5,0,0.9,0.1,1.3,0.3c0.4,0.2,0.7,0.5,1,0.8c0.3,0.3,0.5,0.7,0.7,1.1c0.2,0.4,0.2,0.8,0.2,1.2C35.5,59,35.5,59.4,35.3,59.8z
		 M40.8,61.9l-1.4-2.2h-1.3v2.2h-1.3v-6.6h2.9c0.3,0,0.6,0.1,0.8,0.2c0.3,0.1,0.5,0.3,0.7,0.5c0.2,0.2,0.3,0.4,0.4,0.7
		c0.1,0.3,0.2,0.5,0.2,0.8c0,0.3-0.1,0.5-0.2,0.8c-0.1,0.3-0.2,0.5-0.4,0.7c-0.2,0.2-0.4,0.3-0.6,0.4l1.5,2.5H40.8z M48.4,56.4
		L48.4,56.4h-2.1v5.5H45v-5.5h-2.1v-1.1h5.5V56.4z M56.5,58.5c-0.2,0.3-0.4,0.6-0.7,0.8c-0.3,0.2-0.7,0.3-1.1,0.3h-1.6v2.2h-1.3
		v-6.6h2.8c0.3,0,0.6,0.1,0.8,0.2c0.3,0.1,0.5,0.3,0.7,0.5c0.2,0.2,0.3,0.4,0.4,0.7c0.1,0.3,0.2,0.5,0.2,0.8
		C56.8,57.8,56.7,58.2,56.5,58.5z M61.8,61.9l-0.6-1.7h-2.3l-0.6,1.7h-1.3l2.5-6.6h1.3l2.4,6.6H61.8z M68.2,61.9l-1.4-2.2h-1.3v2.2
		h-1.3v-6.6h2.9c0.3,0,0.6,0.1,0.8,0.2c0.3,0.1,0.5,0.3,0.7,0.5c0.2,0.2,0.3,0.4,0.4,0.7c0.1,0.3,0.2,0.5,0.2,0.8
		c0,0.3-0.1,0.5-0.2,0.8c-0.1,0.3-0.2,0.5-0.4,0.7c-0.2,0.2-0.4,0.3-0.6,0.4l1.5,2.5H68.2z M75,61.9L72.9,59l-0.8,0.9v2h-1.3v-6.6
		h1.3v3.1l2.8-3.2h1.4l-2.5,2.9l2.7,3.7H75z M78.7,61.9h-1.3v-6.6h1.3V61.9z M86.2,61.9h-1.1l-3.4-4.3v4.3h-1.3v-6.6h1l3.4,4.4v-4.4
		h1.3V61.9z M93.6,61.9h-1.1v-0.8c-0.5,0.5-1.2,0.8-1.8,0.8c-0.4,0-0.8-0.1-1.2-0.3c-0.4-0.2-0.7-0.4-1-0.7
		c-0.3-0.3-0.5-0.7-0.7-1.1c-0.2-0.4-0.2-0.9-0.2-1.3c0-0.5,0.1-0.9,0.2-1.3c0.2-0.4,0.4-0.8,0.7-1.1s0.6-0.5,1-0.7
		c0.4-0.2,0.8-0.3,1.3-0.3c0.6,0,1.2,0.1,1.6,0.4c0.5,0.3,0.8,0.6,1,1l-1,0.7c-0.2-0.3-0.4-0.6-0.7-0.8c-0.3-0.2-0.6-0.3-1-0.3
		c-0.3,0-0.5,0.1-0.8,0.2c-0.2,0.1-0.4,0.3-0.6,0.5c-0.2,0.2-0.3,0.4-0.4,0.7c-0.1,0.3-0.1,0.5-0.1,0.8c0,0.3,0,0.6,0.1,0.9
		c0.1,0.3,0.2,0.5,0.4,0.7c0.2,0.2,0.4,0.4,0.6,0.5c0.2,0.1,0.5,0.2,0.8,0.2c0.3,0,0.7-0.1,1-0.3c0.3-0.2,0.5-0.4,0.8-0.7v-0.5h-1.3
		v-0.9h2.4V61.9z"/>
	<path class="st0" d="M26.4,56.5c-0.1-0.1-0.3-0.1-0.4-0.1h-1.4v2.1h1.5c0.2,0,0.3,0,0.4-0.1c0.1-0.1,0.2-0.2,0.3-0.4
		c0.1-0.2,0.1-0.4,0.1-0.6c0-0.2,0-0.4-0.1-0.6C26.7,56.7,26.6,56.6,26.4,56.5z"/>
	<path class="st0" d="M33.7,57c-0.2-0.2-0.4-0.4-0.6-0.5c-0.2-0.1-0.5-0.2-0.8-0.2c-0.3,0-0.6,0.1-0.8,0.2c-0.2,0.1-0.4,0.3-0.6,0.5
		c-0.2,0.2-0.3,0.4-0.4,0.7c-0.1,0.3-0.1,0.5-0.1,0.8c0,0.3,0,0.6,0.1,0.8c0.1,0.3,0.2,0.5,0.4,0.7c0.2,0.2,0.4,0.4,0.6,0.5
		c0.2,0.1,0.5,0.2,0.8,0.2c0.3,0,0.6-0.1,0.8-0.2c0.2-0.1,0.4-0.3,0.6-0.5c0.2-0.2,0.3-0.5,0.4-0.7c0.1-0.3,0.1-0.5,0.1-0.8
		c0-0.3,0-0.6-0.1-0.8C34,57.5,33.9,57.2,33.7,57z"/>
	<polygon class="st0" points="59.1,59.3 61,59.3 60,56.6 	"/>
	<path class="st0" d="M55,56.5c-0.1-0.1-0.3-0.1-0.4-0.1h-1.4v2.1h1.5c0.2,0,0.3,0,0.4-0.1c0.1-0.1,0.2-0.2,0.3-0.4
		c0.1-0.2,0.1-0.4,0.1-0.6c0-0.2,0-0.4-0.1-0.6C55.3,56.7,55.2,56.6,55,56.5z"/>
	<path class="st0" d="M40.2,56.5c-0.1-0.1-0.3-0.1-0.4-0.1h-1.6v2.1h1.6c0.2,0,0.3,0,0.4-0.1c0.1-0.1,0.2-0.2,0.3-0.4
		c0.1-0.2,0.1-0.3,0.1-0.5c0-0.2,0-0.4-0.1-0.6C40.4,56.7,40.3,56.6,40.2,56.5z"/>
</g>
</svg>
