<?xml version="1.0" encoding="utf-8"?>
<!-- Generator: Adobe Illustrator 22.1.0, SVG Export Plug-In . SVG Version: 6.00 Build 0)  -->
<svg version="1.1" id="Layer_1" xmlns="http://www.w3.org/2000/svg" xmlns:xlink="http://www.w3.org/1999/xlink" x="0px" y="0px"
	 viewBox="0 0 100 100" style="enable-background:new 0 0 100 100;" xml:space="preserve">
<style type="text/css">
	.st0{fill:#FFFFFF;}
	.st1{clip-path:url(#SVGID_2_);}
	.st2{fill:#231F20;}
	.st3{fill:#EF4136;}
</style>
<g>
	<g>
		<rect x="5" y="39.6" class="st0" width="90" height="20.8"/>
	</g>
	<g>
		<g>
			<g>
				<defs>
					<rect id="SVGID_1_" x="5" y="39.6" width="90" height="20.8"/>
				</defs>
				<clipPath id="SVGID_2_">
					<use xlink:href="#SVGID_1_"  style="overflow:visible;"/>
				</clipPath>
				<g class="st1">
					<path class="st2" d="M95,60.4H5V39.6h90V60.4z M5,60.4h90V39.6H5V60.4L5,60.4z"/>
				</g>
			</g>
		</g>
	</g>
	<g>
		<path class="st3" d="M17,53h-6.5v4.3H7.9V43.7H17V53z M14.5,46.7h-4v3.2h4V46.7z"/>
	</g>
	<g>
		<path class="st2" d="M10.6,57.3H7.8V43.6h9.3V53h-6.5V57.3z M8,57.1h2.3v-4.3h6.5v-9H8V57.1z M14.6,50h-4.2v-3.4h4.2V50z
			 M10.6,49.8h3.8v-3h-3.8V49.8z"/>
	</g>
	<g>
		<rect x="19.3" y="43.7" class="st3" width="2.5" height="13.5"/>
	</g>
	<g>
		<path class="st2" d="M21.9,57.3h-2.7V43.6h2.7V57.3z M19.4,57.1h2.3V43.8h-2.3V57.1z"/>
	</g>
	<g>
		<path class="st3" d="M33.5,43.7v8.6H32l1,4.9h-2.7l-1-4.9h-2.8v4.9H24V43.7H33.5L33.5,43.7z M31,46.7h-4.4v2.6H31V46.7z"/>
	</g>
	<g>
		<path class="st2" d="M33.2,57.3h-2.9l-1-4.9h-2.6v4.9H24V43.6h9.7v8.8h-1.5L33.2,57.3z M30.5,57.1H33l-1-4.9h1.5v-8.4h-9.3v13.3
			h2.3v-4.9h3L30.5,57.1z M31.1,49.5h-4.6v-2.8h4.6V49.5z M26.7,49.3h4.2v-2.4h-4.2V49.3z"/>
	</g>
	<g>
		<path class="st3" d="M35.8,57.2V43.7h9.6v13.5H35.8z M42.9,46.7h-4.6v7.5h4.6V46.7z"/>
	</g>
	<g>
		<path class="st2" d="M45.5,57.3h-9.8V43.6h9.8V57.3z M35.9,57.1h9.4V43.8h-9.4V57.1z M43,54.3h-4.8v-7.7H43V54.3z M38.4,54.1h4.4
			v-7.2h-4.4V54.1z"/>
	</g>
	<g>
		<polygon class="st3" points="57.2,57.2 47.7,57.2 47.7,43.7 57.2,43.7 57.2,46.8 50.2,46.8 50.2,54.2 54.6,54.2 54.6,51.6 
			52,51.6 52,48.6 57.2,48.6 		"/>
	</g>
	<g>
		<path class="st2" d="M57.3,57.3h-9.7V43.6h9.7v3.2h-6.9V54h4.2v-2.4h-2.7v-3.2h5.4V57.3z M47.8,57.1h9.3v-8.4h-5v2.8h2.7v2.8h-4.6
			v-7.7h6.9v-2.8h-9.3C47.8,43.8,47.8,57.1,47.8,57.1z"/>
	</g>
	<g>
		<rect x="59.4" y="49.9" class="st3" width="3.8" height="2.2"/>
	</g>
	<g>
		<path class="st2" d="M63.4,52.2h-4v-2.4h4V52.2z M59.5,52h3.6v-2h-3.6V52z"/>
	</g>
	<g>
		<path class="st2" d="M75.7,43.7v3l-2.3,10.5h-6.9V46.8h-1.1v-3L75.7,43.7L75.7,43.7z M73.1,46.8H69v7.5h2.4L73.1,46.8z"/>
	</g>
	<g>
		<path class="st2" d="M80.2,46.8h-1.8v-3h8.5v13.5h-2.5V55H81l-0.5,2.3h-2.6L80.2,46.8z M84.4,51.9v-5.2h-1.6l-1.1,5.2H84.4z"/>
	</g>
	<g>
		<path class="st2" d="M88,43.7h2.6v8.7H88V43.7z M88,54.2h2.6v3H88V54.2z"/>
	</g>
	<g>
		<g>
			<g>
				<defs>
					<rect id="SVGID_3_" x="5" y="39.6" width="90" height="20.8"/>
				</defs>
				<clipPath id="SVGID_4_">
					<use xlink:href="#SVGID_3_"  style="overflow:visible;"/>
				</clipPath>
			</g>
		</g>
	</g>
</g>
</svg>
