<?xml version="1.0" encoding="utf-8"?>
<!-- Generator: Adobe Illustrator 22.1.0, SVG Export Plug-In . SVG Version: 6.00 Build 0)  -->
<svg version="1.1" id="Layer_1" xmlns="http://www.w3.org/2000/svg" xmlns:xlink="http://www.w3.org/1999/xlink" x="0px" y="0px"
	 viewBox="0 0 100 100" style="enable-background:new 0 0 100 100;" xml:space="preserve">
<style type="text/css">
	.st0{fill:#1F3768;}
	.st1{fill:#FFFFFF;}
	.st2{fill:#3BABE2;}
	.st3{fill:#13110C;}
</style>
<g>
	<path class="st0" d="M49.9,26.6c24.1,0,43.7,10.5,43.7,23.5S74,73.7,49.9,73.7S6.3,63.1,6.3,50.2C6.2,37.2,25.9,26.6,49.9,26.6"/>
	<path class="st0" d="M49.9,26.6c24.1,0,43.7,10.5,43.7,23.5S74,73.7,49.9,73.7S6.3,63.1,6.3,50.2C6.2,37.2,25.9,26.6,49.9,26.6"/>
	<path class="st0" d="M49.9,26.6c24.1,0,43.7,10.5,43.7,23.5S74,73.7,49.9,73.7S6.3,63.1,6.3,50.2C6.2,37.2,25.9,26.6,49.9,26.6"/>
	<path class="st1" d="M49.9,27.1c-12,0-22.7,2.6-30.7,6.8c-7.8,4.2-12.5,9.9-12.5,16.2s4.8,12,12.5,16.2C27.1,70.4,38,73,49.9,73
		s22.7-2.6,30.7-6.8c7.8-4.2,12.5-9.9,12.5-16.2s-4.8-12-12.5-16.2C72.7,29.7,61.9,27.1,49.9,27.1 M49.9,26.1C62,26.1,73,28.7,81,33
		c8,4.4,13.1,10.4,13.1,17c0,6.7-5.1,12.6-13.1,17C73,71.4,62,74,49.9,74s-23.1-2.6-31.1-6.9c-8.1-4.3-13.1-10.3-13.1-17
		s5.1-12.6,13.1-17C26.8,28.7,37.9,26.1,49.9,26.1z"/>
	<g>
		<path class="st2" d="M62.7,36.2L62.7,36.2C62.7,36.1,62.7,36.1,62.7,36.2c-0.2-0.2-0.4-0.4-0.7-0.7l0,0H37.9l0,0l0,0
			c-0.2,0.2-0.4,0.3-0.7,0.5l0,0l0,0h25.5V36.2z"/>
		<path class="st2" d="M64.1,37.6L64.1,37.6L64.1,37.6c-0.2-0.2-0.3-0.4-0.5-0.7l0,0H36.3l0,0c-0.2,0.2-0.3,0.4-0.5,0.7l0,0l0,0
			H64.1z"/>
		<path class="st2" d="M32.4,43.1h35.2l0,0l0,0c-0.1-0.3-0.2-0.5-0.4-0.9l0,0H32.8l0,0C32.6,42.4,32.5,42.7,32.4,43.1
			C32.4,43,32.4,43.1,32.4,43.1L32.4,43.1z"/>
		<path class="st2" d="M33.4,41.2h33.3l0,0l0,0c-0.1-0.2-0.2-0.4-0.4-0.8l0,0H33.8l0,0C33.6,40.6,33.5,40.8,33.4,41.2
			C33.2,41,33.2,41,33.4,41.2C33.2,41.2,33.4,41.2,33.4,41.2z"/>
		<path class="st2" d="M65.4,39.3L65.4,39.3L65.4,39.3c-0.1-0.2-0.2-0.4-0.4-0.7l0,0H34.9l0,0c-0.2,0.2-0.3,0.4-0.4,0.7l0,0l0,0
			H65.4L65.4,39.3z"/>
		<path class="st2" d="M46.9,31.5h6l0,0l0,0c-0.9-0.1-1.8-0.2-2.6-0.2h-0.9C48.6,31.2,47.7,31.3,46.9,31.5
			C46.9,31.4,46.9,31.4,46.9,31.5L46.9,31.5z"/>
		<path class="st2" d="M43.4,32.4h13.2l0,0l0,0c-0.3-0.1-0.8-0.2-1.1-0.3l0,0H44.3l0,0C44,32.1,43.7,32.3,43.4,32.4
			C43.2,32.4,43.2,32.4,43.4,32.4C43.2,32.4,43.2,32.4,43.4,32.4z"/>
		<path class="st2" d="M61,34.9C61,34.9,61.2,34.9,61,34.9C61.2,34.8,61.2,34.8,61,34.9c-0.2-0.2-0.4-0.3-0.8-0.5l0,0H39.6l0,0
			c-0.2,0.2-0.5,0.3-0.8,0.5l0,0l0,0H61z"/>
		<path class="st2" d="M59.1,33.6C59.2,33.6,59.2,33.6,59.1,33.6C59.2,33.6,59.2,33.6,59.1,33.6c-0.3-0.2-0.7-0.4-1.1-0.5l0,0H41.8
			l0,0c-0.3,0.2-0.7,0.3-1.1,0.5l0,0l0,0H59.1z"/>
		<path class="st2" d="M67.4,57.3H32.5l0,0l0,0c0.2,0.5,0.4,1.1,0.8,1.6l0,0h33.4l0,0C66.9,58.4,67.2,57.9,67.4,57.3L67.4,57.3
			L67.4,57.3z"/>
		<path class="st2" d="M31.6,45.3h36.6l0,0l0,0l-0.3-1.1l0,0H32l0,0L31.6,45.3L31.6,45.3L31.6,45.3z"/>
		<path class="st2" d="M34,60.3L34,60.3L34,60.3c0.4,0.7,0.9,1.3,1.4,2l0,0h29l0,0c0.5-0.5,1-1.2,1.4-1.9l0,0l0,0H34V60.3z"/>
		<path class="st2" d="M68.5,54.1h-37l0,0l0,0L32,56l0,0h36l0,0L68.5,54.1L68.5,54.1L68.5,54.1z"/>
		<path class="st2" d="M68.8,49.4c0-0.1,0-0.3,0-0.4l0,0H31l0,0c0,0.4,0,0.8,0,1.2c0,0.1,0,0.1,0,0.2l0,0h37.8l0,0
			C68.8,49.9,68.8,49.7,68.8,49.4z"/>
		<path class="st2" d="M68.7,51.5H31.2l0,0l0,0c0,0.4,0.1,0.9,0.1,1.4l0,0h37.4l0,0L68.7,51.5C68.7,51.6,68.7,51.6,68.7,51.5
			L68.7,51.5z"/>
		<path class="st2" d="M36.8,63.6C36.6,63.6,36.6,63.6,36.8,63.6C36.6,63.6,36.6,63.6,36.8,63.6c0.8,0.8,1.6,1.5,2.5,2.2l0,0h21.2
			l0,0c0.9-0.7,1.8-1.3,2.6-2.1l0,0l0,0H36.8V63.6z"/>
		<path class="st2" d="M31.2,47.7h37.5l0,0l0,0l-0.2-1.1l0,0h-37l0,0C31.3,46.9,31.2,47.3,31.2,47.7C31.2,47.6,31.2,47.7,31.2,47.7
			L31.2,47.7z"/>
		<path class="st2" d="M41.6,67C41.5,67,41.5,67,41.6,67C41.5,67,41.5,67,41.6,67c2.6,1.3,5.4,2,8.4,2c3,0,5.8-0.7,8.4-2l0,0l0,0
			H41.6z"/>
	</g>
	<g>
		<polygon class="st3" points="44.3,50.8 43.8,50.8 43.8,51.5 46.5,55.7 47.5,55.7 44.8,51.5 		"/>
		<path class="st3" d="M34.7,50.3c0-0.4,0-1-0.1-1.3c0-0.4-0.1-0.9-0.2-1.2c0-0.2-0.1-0.4-0.1-0.5c-0.1-0.2-0.1-0.4-0.2-0.5
			c-0.2-0.5-0.5-0.9-0.8-1.2c-0.2-0.2-0.4-0.3-0.7-0.4c-0.2-0.1-0.4-0.2-0.7-0.2h-0.1l0.1,0.1c0.1,0.2,0.3,0.4,0.4,0.7
			c0.1,0.3,0.3,0.5,0.4,0.9l0,0c0,0.1,0,0.1,0.1,0.2c0.1,0.3,0.1,0.7,0.2,1.1c0,0.3,0.1,0.8,0.1,1.2c0,0.3,0,0.5,0,0.8
			c0,0.2,0,0.3,0,0.5c0,0.4,0,0.9-0.1,1.2c-0.1,0.5-0.1,1-0.3,1.3l0,0v0.1c-0.1,0.4-0.3,0.8-0.4,1.1c-0.2,0.3-0.3,0.5-0.5,0.7
			S31.5,55,31.3,55c-0.4,0.2-0.9,0.2-1.1,0.2c-0.1,0-0.3,0-0.4,0h-0.1l0.1,0.1c0.2,0.2,0.3,0.3,0.5,0.5l0,0l0,0
			c0.5,0,1.2-0.1,1.8-0.3c0.5-0.2,1.2-0.4,1.8-0.8l0.1-0.1l0,0c0.1-0.1,0.2-0.3,0.3-0.7c0-0.1,0.1-0.2,0.1-0.2
			c0.1-0.2,0.1-0.5,0.2-1c0.1-0.4,0.1-0.9,0.2-1.4c0-0.3,0-0.7,0-1v-0.1C34.7,50.4,34.7,50.3,34.7,50.3z"/>
		<path class="st3" d="M45.5,48.1c-0.1,0.3-0.3,0.7-0.5,0.8c-0.3,0.2-0.7,0.4-1.1,0.4l0,0v1H44c0.1,0,0.1,0,0.2,0c0.1,0,0.2,0,0.3,0
			c0.1,0,0.2,0,0.3,0c0.4,0,0.9-0.1,1.2-0.2l0,0l-0.2-0.3c0.3-0.1,0.7-0.2,0.9-0.3l0,0l0,0c0.1-0.1,0.2-0.3,0.2-0.4l0,0
			c0.1-0.4,0.1-0.9,0.2-1.2c0-0.4,0-0.8-0.1-1.1c0-0.2-0.1-0.4-0.2-0.5c-0.1-0.3-0.3-0.5-0.5-0.7c-0.3-0.2-0.7-0.3-1-0.4h-0.1
			l0.1,0.1c0,0.1,0.1,0.1,0.1,0.2c0,0,0,0.1,0.1,0.1c0.1,0.2,0.2,0.7,0.2,1.2c0,0.4,0,0.8-0.1,1.1C45.5,47.9,45.5,48,45.5,48.1z"/>
		<path class="st3" d="M31.2,44.2c0.1,0,0.1,0.1,0.2,0.1l0,0h0.1c0.3,0,0.7,0,1.1,0.1c0.5,0.1,1.1,0.2,1.5,0.4l0.3,0.1l-0.3-0.2
			c-0.1-0.1-0.3-0.2-0.4-0.3c-0.1-0.1-0.2-0.1-0.3-0.2c-1.1-0.7-2.2-0.9-3.3-0.9c-1.2,0-2.5,0.3-3.6,1.1c-1.5,1-2.5,3.1-2.5,5.2
			s1,4.2,2.5,5.2c0.3,0.2,0.7,0.3,1,0.5l0.3,0.1l-0.2-0.2c-1.3-1.1-2.1-2.9-2.1-4.7c0-2.1,0.9-4,2.4-5.1l0,0c0.3-0.7,0.8-1,1.2-1.2
			c0.3-0.2,0.8-0.2,1.1-0.2C30.3,44,30.6,44,31.2,44.2z"/>
		<path class="st3" d="M82.6,48.1L82.6,48.1C82.5,48,82.4,48,82.4,48L82,47.9l0.2,0.2c0.3,0.3,0.9,0.5,1.6,1
			c0.2,0.1,0.4,0.2,0.7,0.2c0.2,0.1,0.3,0.1,0.5,0.2l0.3,0.1l-0.3-0.2c-0.5-0.4-1.2-0.8-2-1.1C83,48.3,82.8,48.2,82.6,48.1z"/>
		<path class="st3" d="M84.3,44.9h-0.1H84.3c0.5,0.7,0.9,1.5,1.1,2.1c0.1,0.1,0.1,0.2,0.1,0.3l0,0H86v-1.2l0,0l0,0
			C85.5,45.4,85,45.1,84.3,44.9z"/>
		<path class="st3" d="M18.8,45L18.8,45L18.8,45c0,0.2,0.1,0.3,0.1,0.4c0.3,0.9,0.3,1.9,0.1,2.7c-0.2,0.7-0.7,1.1-1.4,1.3l0,0v0.8
			h0.2c0.9,0,1.6-0.1,2.2-0.3l0,0c0.2-0.2,0.4-0.5,0.5-0.9c0.3-0.9,0.2-1.9-0.1-2.7C20.2,45.4,19.6,45,18.8,45z"/>
		<path class="st3" d="M17.6,43.6h-5.7V44l0,0c0.9,0,1.4,0.5,1.4,1.4v8.2c0,0.9-0.5,1.4-1.4,1.4l0,0v0.4h2.5l0,0
			c0.2-0.2,0.3-0.7,0.3-1.1v-8.2c0-0.9-0.5-1.5-1.4-1.5v-0.3h3l0,0c0.1-0.2,0.4-0.2,0.7-0.2h0.1c0.4,0,0.8,0,1,0.2l0,0h0.8
			c0.9,0,1.5,0.1,2.2,0.2h0.2l-0.1-0.1C20.4,43.7,18.8,43.6,17.6,43.6z"/>
		<path class="st3" d="M47.2,44.3c-1.1-0.7-2.7-0.8-3.5-0.8h-5.6V44l0,0c0.4,0,0.8,0.1,1,0.3c0.2,0.2,0.3,0.5,0.3,1v8.2
			c0,0.1,0,0.2,0,0.3C39.3,54.6,38.7,55,38,55l0,0v0.4h2.6l0,0c0.2-0.2,0.3-0.7,0.3-1.1v-8.2c0-0.3-0.1-0.7-0.2-0.9
			c-0.2-0.4-0.7-0.7-1.2-0.7v-0.3h3.1l0,0l0,0l0,0c0.1-0.1,0.3-0.1,0.4-0.2c0.5,0,1,0,1.3,0.2l0,0c0,0,0,0,0.1,0h0.4
			c0.7,0,1.8,0.1,2.6,0.4l0.2,0.1l-0.1-0.1C47.6,44.7,47.5,44.5,47.2,44.3z"/>
		<path class="st3" d="M81.9,51l-0.4-0.3c-1.9-1.4-1.9-3.3-1.1-4.6l0,0l0,0c-0.1-0.5,0.1-1,0.4-1.4c0.3-0.3,0.9-0.5,1.4-0.5
			c0.4,0,0.9,0.1,1.2,0.2l0,0c0.9,0,1.6,0.2,2.2,0.4c0.1,0,0.2,0.1,0.3,0.1c0,0,0,0,0.1,0h0.1v-1.5h-0.4l0,0c0,0.1-0.1,0.1-0.1,0.2
			c-0.1,0.2-0.1,0.3-0.4,0.3c-0.1,0-0.2,0-0.4-0.1c-0.1,0-0.2-0.1-0.3-0.1c-0.7-0.2-1.4-0.4-2.3-0.4c-0.9,0-1.6,0.2-2.3,0.8
			s-1.4,1.8-1.3,3.1c0.1,1,0.5,2.3,2.6,3.3c0.1,0.1,0.2,0.1,0.4,0.2L81.9,51z"/>
		<path class="st3" d="M79.7,53.9L79.7,53.9c-0.3-0.3-0.5-0.8-0.7-1.1l-0.4-1.3h-0.5v4.3l0,0h0.5l0,0v-0.1c0-0.2,0-0.4,0.4-0.4
			c0.1,0,0.2,0,0.3,0c0,0,0,0,0.1,0c0,0,0,0,0.1,0h0.1V53.9L79.7,53.9z"/>
		<path class="st3" d="M72.4,45c-0.2-0.1-0.4-0.2-0.7-0.2h-0.1l0.1,0.1c0.3,0.3,0.5,0.9,0.8,1.5c0.3,0.8,0.4,2,0.4,3.3
			c0,1.3-0.1,2.5-0.4,3.3c-0.4,1.1-0.9,1.8-1.5,2.1c-0.3,0.2-0.8,0.2-1.1,0.2c-0.1,0-0.3,0-0.4,0h-0.1l0.1,0.1
			c0.2,0.2,0.3,0.3,0.5,0.5l0,0l0,0c1.2,0,2.4-0.4,3.5-1.1l0,0c0,0,0.1,0,0.1-0.1l0,0c0.1-0.2,0.2-0.5,0.3-0.9
			c0.3-0.8,0.4-2.1,0.4-3.3c0-1.3-0.2-2.5-0.4-3.3C73.6,46,73,45.3,72.4,45z"/>
		<path class="st3" d="M84.7,52.5c-0.2-0.1-0.5-0.2-0.8-0.4l-0.3-0.1l0.2,0.2c0.5,0.4,0.5,1,0.5,1.3c0,0.7-0.4,1.2-0.8,1.4
			c-0.1,0.1-0.8,0.4-1.5,0.4c-0.2,0-0.4,0-0.5-0.1h-0.1l0.1,0.1l0.1,0.1l0.1,0.1c0.2,0.1,0.3,0.3,0.5,0.4l0,0l0,0
			c0.3,0,0.8-0.1,1.4-0.2c1-0.2,1.8-0.8,2.2-1.5l0,0l0,0C86,53.7,85.8,53,84.7,52.5z"/>
		<path class="st3" d="M56.2,45c-0.1,0-0.2,0-0.3,0c-0.3,0-0.5,0-0.9,0.1l0,0v8.7c0,0.1,0,0.2,0,0.3c-0.1,0.7-0.7,1.1-1.3,1.1l0,0
			v0.4h2.5l0,0c0.2-0.2,0.3-0.7,0.3-1.1V45l0,0C56.4,45,56.3,45,56.2,45z"/>
		<path class="st3" d="M70.9,44.2L70.9,44.2c0.1,0,0.1,0.1,0.2,0.1l0,0h0.1c0.9,0,1.8,0.2,2.6,0.5l0.3,0.1L74,44.8
			c-0.1-0.1-0.2-0.2-0.4-0.3c-1.2-0.8-2.4-1.1-3.6-1.1c-1.1,0-2.3,0.3-3.4,0.9c-0.1,0.1-0.2,0.1-0.3,0.2c-0.3,0.2-0.7,0.5-1,0.9
			c-0.3,0.3-0.5,0.8-0.8,1.2c-0.2,0.3-0.3,0.8-0.4,1.1c-0.1,0.4-0.2,0.8-0.2,1.2c0,0.2,0,0.5,0,0.8s0,0.4,0,0.5
			c0,0.4,0.1,0.9,0.2,1.3c0.1,0.4,0.3,1,0.5,1.4c0.2,0.4,0.5,0.9,0.9,1.2c0.2,0.2,0.5,0.5,0.9,0.7c0.3,0.2,0.7,0.3,1,0.5l0.3,0.1
			l-0.2-0.2c-0.4-0.3-0.8-0.8-1.1-1.2c-0.2-0.3-0.4-0.8-0.5-1.2c-0.1-0.4-0.3-0.9-0.3-1.3c0-0.3-0.1-0.7-0.1-1c0-0.1,0-0.1,0-0.2
			c0-0.4,0.1-0.9,0.2-1.3s0.2-0.8,0.4-1.2c0.2-0.4,0.4-0.8,0.7-1.1c0.3-0.4,0.8-0.9,1.2-1.1l0,0l0,0l0,0c0.1-0.2,0.3-0.4,0.4-0.7
			c0.2-0.2,0.4-0.4,0.8-0.5c0.3-0.2,0.8-0.2,1.1-0.2C70.2,44,70.5,44,70.9,44.2z"/>
		<path class="st3" d="M61.5,45.3c-0.3-0.2-0.5-0.3-0.9-0.3h-0.1l0.1,0.1c0.1,0.1,0.2,0.2,0.3,0.3c0.3,0.4,0.4,0.9,0.4,1.2
			c0,0.1,0,0.2,0,0.3c0,0.1,0,0.1,0,0.2l0,0h0.4v-1.5l0,0C61.8,45.5,61.6,45.4,61.5,45.3z"/>
		<path class="st3" d="M51.2,47.2h0.4l0,0c0-0.1,0-0.1,0-0.2c0-0.1,0-0.2,0-0.3c0.1-0.4,0.2-0.8,0.4-1.2c0.1-0.1,0.2-0.3,0.3-0.4
			c0,0,0,0,0.1-0.1l0,0v-0.4h0.8l0,0l0,0l0,0c0.4-0.2,0.9-0.2,1.2-0.2c0.1,0,0.2,0,0.3,0c0.1,0,0.1,0,0.2,0v0.2h3v-0.2
			c0.1,0,0.1,0,0.2,0s0.2,0,0.3,0c0.3,0,0.7,0,1.2,0.2l0,0l0,0h2.2v-0.9H51L51.2,47.2L51.2,47.2z"/>
	</g>
	<g>
		<path class="st1" d="M86.8,50.4c-0.8-0.7-1.8-1-2.6-1.4c-1.3-0.7-2.1-1-2.3-1.9s0.2-2.2,1.9-2.2c2.4,0,3.1,2.4,3.5,3.3h0.3v-3.8
			h-0.4c-0.2,0.3-0.1,0.8-1.1,0.5c-1.1-0.3-3.1-1.1-4.8,0.2c-1.2,0.9-2.7,4.4,1.3,6.5c0.8,0.4,1.5,0.8,2.3,1.2
			c1.9,1,1.2,2.7,0.4,3.3c-0.3,0.2-2.1,1-3.4-0.2c-0.5-0.5-1.1-1.2-1.3-1.9l-0.3-1.2h-0.4v4.3h0.4c0.1-0.3,0-0.7,0.9-0.5
			c2.2,0.5,2.4,0.8,4.2,0.3C88.1,56.1,89.1,52.5,86.8,50.4z"/>
		<path class="st1" d="M75,45.3c-1.2-0.8-2.4-1.1-3.6-1.1s-2.4,0.3-3.6,1.1c-1.6,1-2.5,3.1-2.5,5.2s0.9,4.2,2.5,5.2
			c1.2,0.8,2.4,1.1,3.6,1.1c1.2,0,2.4-0.3,3.6-1.1c1.6-1,2.5-3.1,2.5-5.2C77.5,48.4,76.5,46.4,75,45.3z M74,53.9
			c-0.4,1.2-0.9,1.9-1.6,2.2c-0.4,0.2-0.8,0.2-1.1,0.2c-0.3,0-0.7-0.1-1.1-0.2c-0.8-0.3-1.2-1-1.6-2.2c-0.2-0.8-0.4-2.1-0.4-3.4
			s0.2-2.6,0.4-3.4c0.4-1.2,0.9-1.9,1.6-2.2c0.4-0.2,0.8-0.2,1.1-0.2c0.3,0,0.7,0.1,1.1,0.2c0.7,0.3,1.2,1,1.6,2.2
			c0.2,0.8,0.4,2.1,0.4,3.4C74.5,51.9,74.3,53.1,74,53.9z"/>
		<path class="st1" d="M52.6,48H53c0.1-0.4,0.1-1.3,1-2.2c1-1,2.2-0.8,2.6-0.8v9.7c0,0.9-0.5,1.5-1.4,1.5v0.3H61v-0.3
			c-0.9,0-1.4-0.5-1.4-1.5V45c0.4,0,1.5-0.2,2.6,0.8c0.9,0.9,0.9,1.8,1,2.2h0.4v-3.6H53L52.6,48L52.6,48z"/>
		<path class="st1" d="M19,44.3h-5.7v0.3c0.9,0,1.4,0.5,1.4,1.5v8.4c0,0.9-0.5,1.5-1.4,1.5v0.3h5.8v-0.3c-0.9,0-1.4-0.5-1.4-1.5
			v-3.6h1.5c1.3,0,2.3-0.3,3.1-0.9c1.6-1.3,1.3-3.2,0.8-4.1C22.3,44.7,20.6,44.3,19,44.3z M20.4,49.1c-0.4,1.4-1.9,1.4-2.9,1.4v-4.7
			c0-0.9,0.7-0.8,1-0.8c1-0.1,1.5,0.4,1.8,1.3C20.7,47.2,20.7,48.1,20.4,49.1z"/>
		<path class="st1" d="M50.6,55.5l-3.4-4.9c1.1-0.2,1.9-0.7,2.5-1.6c0.8-1.1,0.3-2.5-0.4-3.3c-1-1-2.7-1.2-4.2-1.2h-5.6v0.3
			c0.9,0,1.4,0.5,1.4,1.5v8.4c0,0.9-0.5,1.5-1.4,1.5v0.3h5.8v-0.3c-0.9,0-1.4-0.5-1.4-1.5v-3.7h0.4l3.6,5.7h3.5v-0.3
			C51.3,56.2,51.2,56.2,50.6,55.5z M47,49c-0.5,1.5-2.2,1.3-3.1,1.4v-4.7c0-0.4,0.3-0.7,0.8-0.8c1.3-0.1,2,0.4,2.3,1.1
			C47.2,46.5,47.3,48.1,47,49z"/>
		<path class="st1" d="M35,45.3c-1.2-0.8-2.4-1.1-3.6-1.1c-1.2,0-2.4,0.3-3.6,1.1c-1.6,1-2.5,3.1-2.5,5.2s0.9,4.2,2.5,5.2
			c1.2,0.8,2.4,1.1,3.6,1.1c1.2,0,2.4-0.3,3.6-1.1c1.6-1,2.5-3.1,2.5-5.2S36.6,46.4,35,45.3z M34.1,53.9c-0.4,1.2-0.9,1.9-1.6,2.2
			c-0.4,0.2-0.8,0.2-1.1,0.2s-0.7-0.1-1.1-0.2c-0.8-0.3-1.2-1-1.6-2.2c-0.2-0.8-0.4-2.1-0.4-3.4s0.2-2.6,0.4-3.4
			c0.4-1.2,0.9-1.9,1.6-2.2c0.4-0.2,0.8-0.2,1.1-0.2s0.7,0.1,1.1,0.2c0.8,0.3,1.2,1,1.6,2.2c0.2,0.8,0.4,2.1,0.4,3.4
			C34.6,51.9,34.3,53.1,34.1,53.9z"/>
	</g>
	<path class="st0" d="M81.6,32.5c-8.1-4.4-19.3-7.3-31.6-7.3S26.4,28,18.3,32.5C10.1,37,5,43.1,5,50.1s5.1,13.1,13.3,17.6
		c8.1,4.4,19.3,7.1,31.6,7.1s23.5-2.7,31.6-7.1c8.2-4.5,13.3-10.7,13.3-17.6C94.9,43.2,89.8,37,81.6,32.5z M81.3,67
		c-8,4.4-19.1,7.1-31.3,7.1S26.6,71.4,18.6,67C10.7,62.6,5.8,56.6,5.8,50.1s4.9-12.5,12.9-16.8c8-4.4,19.1-7.1,31.3-7.1
		s23.3,2.7,31.3,7.1c7.9,4.4,12.9,10.3,12.9,16.8C94.1,56.6,89.2,62.6,81.3,67z"/>
	<g>
		<g>
			<path class="st0" d="M91.4,25.2c-2,0-3.6,1.5-3.6,3.3c0,1.9,1.6,3.3,3.6,3.3c2,0,3.6-1.5,3.6-3.3C94.9,26.8,93.4,25.2,91.4,25.2z
				 M91.4,31.5c-1.8,0-3.2-1.3-3.2-3s1.4-3,3.2-3c1.8,0,3.2,1.3,3.2,3S93.1,31.5,91.4,31.5z"/>
		</g>
		<g>
			<path class="st0" d="M92.4,29.3c-0.1-0.1-0.2-0.2-0.3-0.2c0.3,0,0.5-0.1,0.7-0.3c0.1-0.2,0.2-0.4,0.2-0.7c0-0.2,0-0.4-0.1-0.5
				c-0.1-0.2-0.2-0.3-0.4-0.3c-0.2-0.1-0.4-0.1-0.9-0.1h-1.5v3.5h0.8v-1.4h0.1c0.1,0,0.3,0,0.3,0c0.1,0,0.1,0.1,0.2,0.1
				c0.1,0,0.2,0.2,0.3,0.5l0.5,0.8h0.9l-0.3-0.8C92.6,29.6,92.5,29.4,92.4,29.3z M90.7,27.6h0.5c0.3,0,0.4,0,0.5,0
				c0.1,0,0.2,0.1,0.2,0.1c0.1,0.1,0.1,0.1,0.1,0.2s0,0.2-0.1,0.2c0,0.1-0.1,0.1-0.2,0.1c-0.1,0-0.3,0-0.7,0h-0.5v-0.7H90.7z"/>
		</g>
	</g>
</g>
</svg>
