<?xml version="1.0" encoding="utf-8"?>
<!-- Generator: Adobe Illustrator 22.1.0, SVG Export Plug-In . SVG Version: 6.00 Build 0)  -->
<svg version="1.1" id="Layer_1" xmlns="http://www.w3.org/2000/svg" xmlns:xlink="http://www.w3.org/1999/xlink" x="0px" y="0px"
	 viewBox="0 0 850.4 850.4" style="enable-background:new 0 0 850.4 850.4;" xml:space="preserve">
<style type="text/css">
	.st0{fill:#DC7948;}
	.st1{fill:#FAB856;}
	.st2{fill:#74A7A4;}
	.st3{fill:#82855E;}
</style>
<g>
	<g>
		<path class="st0" d="M154.7,325.5v30.3l0.3,5.9c0.3,2.8,0.9,4.7,2.1,5.9c1.1,1.2,3,2,5.7,2.3l6.6,0.5v2.1h-62.1v-2.1h4
			c1.9-0.3,3.7-0.5,5.4-0.7c1.7-0.2,3.1-0.9,4.1-1.9c1-1.1,1.6-3,1.9-5.8l0.3-5.9v-61.3l-0.3-5.9c-0.3-2.8-0.9-4.7-1.9-5.8
			c-1-1.1-2.5-1.8-4.4-2.1c-1.9-0.3-3.5-0.4-4.9-0.5c-1.4,0-2.7-0.1-3.9-0.2v-2.1l57.8-0.1c8,0,14.5,0.3,19.5,1
			c5,0.7,9.1,2.1,12.2,4.1c3.1,2.1,5.6,4.6,7.5,7.7c1.9,3.1,2.8,6.6,2.8,10.7c0,3-0.5,6-1.6,9c-1.1,3-2.7,5.6-5,7.8
			c-2.2,2.2-5,3.8-8.3,5c-3.3,1.2-8.6,1.8-15.8,1.8v0.9c4.4,1,8.1,1.9,11.1,2.7c3,0.9,5.7,2.1,8.1,3.8c2.4,1.6,4.6,4.1,6.5,7.3
			c1.9,3.2,3.5,6.8,4.7,10.6c1.2,3.9,2.3,6.6,3.2,8.2c0.9,1.6,2.3,2.4,4,2.4c2.2,0,3.7-1.4,4.5-4.3c0.7-2.9,1.1-6.2,1.1-9.9h2.1
			c0,4.2-0.3,7.6-0.8,10.1c-0.5,2.5-1.8,5.1-3.9,7.8s-5,4.9-8.9,6.6c-3.8,1.7-8,2.5-12.5,2.5c-7,0-12.6-2-16.7-6
			c-4.2-4-6.8-9.3-7.8-15.8c-1-6.5-1.8-12-2.4-16.5c-0.9-5-2.2-7.9-3.7-8.7c-1.6-0.8-3.2-1.3-5-1.4
			C158.3,325.6,156.5,325.5,154.7,325.5z M165,322.8c3.3-0.5,5.8-2.9,7.4-7.1c1.7-4.2,2.5-8.9,2.5-14.1c0-4.2-0.9-8.4-2.6-12.5
			c-1.7-4.1-3.8-6.5-6.2-7.2c-2.4-0.7-4.6-1.1-6.5-1.2c-1.9-0.1-3.6-0.2-5-0.3v42.7h4.4C161.5,323.2,163.5,323.1,165,322.8z"/>
		<path class="st0" d="M289.5,353.2c-2.4,6.5-6.3,11.5-11.7,15.2c-5.4,3.7-11.7,5.5-18.9,5.5c-10.2,0-18.6-2.8-25.1-8.5
			c-6.6-5.6-9.8-13.5-9.8-23.5c0-9.3,3.4-17,10.2-22.9c6.8-6,14.9-9,24.4-9c9.9,0,17.5,2.8,22.8,8.4c5.3,5.6,7.9,12.5,7.9,20.6
			h-39.7c0,3.1,0.2,6.3,0.7,9.5c0.5,3.2,1.4,6.4,2.7,9.4c1.3,3,3.2,5.5,5.6,7.3c2.4,1.9,5.5,2.8,9.2,2.8c5.3,0,9.5-1.5,12.6-4.5
			c3.1-3,5.4-6.7,7.1-11.2L289.5,353.2z M266.7,336.4c-0.1-0.9-0.2-2.1-0.2-3.4c0-1.3-0.1-2.9-0.1-4.9c0-5.3-0.6-9.2-1.9-12
			c-1.3-2.7-3.5-4.1-6.7-4.1c-2.7,0-4.6,1.3-5.7,3.9c-1.1,2.6-1.8,6.7-2.2,12.1l-0.3,8.3H266.7z"/>
		<path class="st0" d="M324.4,345c4.5-4.6,9.1-9.3,13.6-14.1c4.5-4.7,7.7-8.2,9.5-10.3c1.8-2.1,2.6-3.8,2.6-4.9
			c0-0.7-0.3-1.2-0.8-1.5c-0.6-0.3-1.4-0.5-2.4-0.6l-4.4-0.3v-2.1H367v2.1c-0.9,0-1.7,0-2.5,0.1c-0.8,0-1.9,0.2-3.4,0.5
			s-2.6,0.7-3.6,1.3c-1,0.6-2.4,1.7-4.2,3.3c-1.9,1.6-3.5,3.1-4.8,4.5c-1.3,1.4-2.6,2.7-3.7,3.9c4.2,6.9,8.5,13.9,12.9,21
			c4.4,7.1,7.6,12.2,9.6,15.2c2,3.1,3.5,5,4.5,5.7c1,0.8,2.3,1.3,4.1,1.5l3.1,0.1v2.1h-43.8v-2.1l2.6-0.1c2.2,0,3.3-0.7,3.3-2.1
			c0-0.9-0.6-2.3-1.7-4.3c-1.2-2-2.9-4.9-5.3-8.6c-2.4-3.8-4.7-7.4-6.9-10.8l-2.4,2.6v9.3l0.1,5.9c0,3.4,0.2,5.5,0.7,6.5
			c0.5,1,1.9,1.5,4.3,1.5l2.4,0.1v2.1h-40.9v-2.1l3-0.1c2.5-0.3,4-0.9,4.5-1.8c0.5-0.9,0.8-3,0.8-6.2l0.1-5.9v-63.9l-0.1-5.3
			c0-2.3-0.4-3.9-1.1-4.8c-0.7-0.9-2.3-1.5-4.7-1.7l-4.9-0.3v-2.1h35.8v58.1L324.4,345z"/>
		<path class="st0" d="M440.4,366.3c2,0,3.5-1.3,4.3-3.8c0.8-2.6,1.2-5.6,1.2-9.2h1.8c0,7.6-1.4,12.6-4.1,15c-2.7,2.4-5.2,4-7.3,4.6
			c-2.2,0.6-4.9,1-8.3,1c-3.7,0-7-1-9.9-2.8c-2.9-1.9-4.6-4.4-5.2-7.6c-1.4,3.5-3.7,6.1-6.9,7.9c-3.2,1.7-7.4,2.6-12.6,2.6
			c-5.5,0-10-1.5-13.4-4.5c-3.4-3-5.2-7.2-5.2-12.6c0-4.3,1.1-7.8,3.2-10.4c2.2-2.6,4.4-4.3,6.6-4.9c2.2-0.6,5.7-1.1,10.3-1.6
			c4.7-0.4,8.1-0.9,10.3-1.5c2.2-0.6,3.8-1.2,4.7-1.8c0.9-0.6,1.4-1.7,1.4-3.3l-0.1-11.8c0-3.4-0.4-5.8-1.3-7.3
			c-0.9-1.5-2.6-2.2-5.4-2.2c-1.7,0-3.1,0.4-4.3,1.2c-1.2,0.8-1.7,1.8-1.7,3c0,1,0.9,2.1,2.8,3.6c1.8,1.4,2.8,3.6,2.8,6.4
			c0,2.7-1.2,5.1-3.6,7.1c-2.4,2.1-6.2,3.1-11.6,3.1c-2.9,0-5.5-0.8-7.7-2.4c-2.2-1.6-3.3-3.7-3.3-6.4c0-5.4,3-9.7,9-12.9
			c6-3.2,13.2-4.8,21.4-4.8c7,0,13.4,1.5,19.3,4.4c5.9,2.9,8.8,7.4,8.8,13.4v29.7c0,2.8,0.3,4.9,0.8,6.4
			C437.6,365.5,438.7,366.3,440.4,366.3z M411.3,362.4v-24.7l-0.4-0.1c-0.8,1-2.2,2-4.3,2.9c-2.1,0.9-3.5,1.8-4.3,2.7
			c-0.8,0.9-1.4,2.5-1.9,5s-0.7,5-0.7,7.6c0,3.9,0.3,7,0.9,9.3c0.6,2.3,2,3.5,4.1,3.5c1.6,0,3-0.6,4.3-1.9
			C410.2,365.2,411,363.8,411.3,362.4z"/>
	</g>
	<g>
		<g>
			<g>
				<path class="st1" d="M598.5,336c1.4,0,2.8,0,4.1,0.1c-8.4-29.5-35.5-51.1-67.6-51.1c-38.8,0-70.3,31.5-70.3,70.3
					c0,6,0.7,11.8,2.1,17.3h3.4C507.5,349.4,551.4,336,598.5,336z"/>
			</g>
			<g>
				<path class="st0" d="M470.2,372.6h133c1.4-5.5,2.1-11.3,2.1-17.3c0-6.7-0.9-13.1-2.7-19.2c-1.4,0-2.8-0.1-4.1-0.1
					C551.4,336,507.5,349.4,470.2,372.6z"/>
			</g>
		</g>
		<g>
			<path class="st2" d="M609.9,334L609.9,334c2,6.9,3,14.1,3,21.3c0,5.8-0.7,11.6-1.9,17.3h22.3c3.2-6.1,7.5-13.5,13.2-21.1
				c15.6-20.8,34.9-34.5,56.2-39.9c-18.6-13.2-41.4-21-66-21c-16.6,0-32.3,3.5-46.5,9.9C599.3,309.6,606.2,321.1,609.9,334z"/>
		</g>
		<g>
			<path class="st1" d="M735.8,372.6h10.4c-4.8-16.5-13.3-31.4-24.4-43.8c-0.5,7.1-3,16.7-9.4,29C718.5,359.8,727,364,735.8,372.6z"
				/>
		</g>
		<g>
			<path class="st3" d="M666.2,369.6c2.6-4,4-8.7,2.6-11.7s-4.2-8.5,1.6-17.2c0,0,7.9,2,5.9,12.1c-2,10.1-4.5,12.3-5.3,12.7
				c-0.8,0.4-0.8,3.1-0.8,3.1s5.9-3.1,10.9-8.6c5.1-5.5,4.9-6.6,9.1-9.7c4.2-3.1,5.7-4.1,5.7-6.3c0,0,4.7,11.1-2,17.6
				c-6.7,6.5-11.9,7-17.8,7c0,0-4,1.8-8.7,3.9h59.4c-12.8-10.4-23.5-10.7-23.5-10.7c11.8-19.7,13.3-32.4,12.6-39.4
				c-0.5-4.8-2-6.9-2-6.9c-1.7,0.2-3.3,0.5-4.9,0.8c-36.5,6.8-58.4,37-68.9,56.2h21.8C664,371.6,665.6,370.5,666.2,369.6z"/>
		</g>
	</g>
	<g>
		<path class="st0" d="M500.2,539.1c0.5,0.8,0.8,1.8,0.8,2.8c0,1.5-0.5,2.8-1.5,3.9c-1,1.1-2.5,1.7-4.3,1.8c-1.2,0.1-2,0.2-2.5,0.3
			c-0.4,0.1-0.8,0.3-1.2,0.7c-0.4,0.3-0.5,0.7-0.5,1c0,0.5,0.3,0.9,0.8,1.1c0.6,0.2,1.7,0.4,3.5,0.4c2.6,0.1,4.4,0.2,5.3,0.3
			c0.9,0.1,1.6,0.5,2.3,1.2c0.6,0.7,0.9,1.6,0.9,2.7c0,1.8-0.8,3.2-2.4,4.4s-3.9,1.7-7,1.7c-2.3,0-4-0.3-5.1-0.9
			c-1.1-0.6-1.7-1.5-1.7-2.6c0-1.8,1.7-3.3,5.2-4.5c-1.5-0.2-2.5-0.6-3.1-1c-0.6-0.4-0.9-1-0.9-1.7c0-0.8,0.3-1.4,0.9-2
			s1.6-1.1,2.8-1.4c-1.1-0.3-2-0.9-2.7-1.7c-0.7-0.8-1-1.8-1-2.9c0-1.6,0.6-3,1.8-4.2c1.2-1.2,2.8-1.8,4.7-1.8
			c1.8,0,3.3,0.6,4.5,1.9c1.2-1.4,2.3-2.1,3.4-2.1c0.7,0,1.3,0.2,1.7,0.6c0.4,0.4,0.6,0.9,0.6,1.4c0,0.3-0.1,0.6-0.4,0.8
			c-0.2,0.2-0.5,0.3-0.8,0.3c-0.6,0-1.1-0.4-1.4-1.1c-0.2-0.4-0.5-0.6-0.8-0.6C501.6,537.8,501,538.2,500.2,539.1z M496.3,553.4
			c-1.2,0-2.4,0.2-3.4,0.6c-1,0.4-1.8,0.9-2.3,1.4s-0.8,1.2-0.8,2c0,1,0.5,1.8,1.5,2.4c1,0.5,2.3,0.8,3.8,0.8c2.3,0,4-0.5,5.1-1.4
			c1.1-0.9,1.7-1.9,1.7-3c0-0.9-0.5-1.6-1.4-2.1C499.5,553.6,498.1,553.4,496.3,553.4z M491.6,542c0,1.7,0.4,3,1.1,3.7
			c0.8,0.7,1.6,1.1,2.4,1.1c0.8,0,1.5-0.4,2.1-1.1c0.6-0.8,0.9-1.9,0.9-3.5c0-1.6-0.3-2.8-0.9-3.7c-0.6-0.9-1.4-1.3-2.3-1.3
			c-1,0-1.8,0.4-2.4,1.3C491.9,539.4,491.6,540.5,491.6,542z"/>
		<path class="st0" d="M515,540.6c0.7-1.3,1.5-2.3,2.4-3s1.7-1,2.7-1c0.6,0,1.2,0.2,1.7,0.7c0.5,0.5,0.7,1,0.7,1.6
			c0,1.1-0.5,1.7-1.4,1.7c-0.4,0-0.8-0.3-1.1-0.9c-0.4-0.8-0.9-1.2-1.5-1.2c-0.6,0-1.2,0.3-1.8,1c-0.6,0.7-1,1.4-1.3,2.2
			c-0.2,0.8-0.3,2.4-0.3,4.9c0,2.3,0.1,3.6,0.3,3.9c0.2,0.3,0.7,0.5,1.4,0.6c0.2,0,0.3,0.1,0.3,0.2c0,0.2-0.3,0.4-0.8,0.4h-5.6
			c-0.4,0-0.6-0.1-0.6-0.3c0-0.2,0.3-0.3,0.8-0.3c0.7,0,1.2-0.3,1.4-0.7c0.2-0.4,0.3-1.9,0.3-4.6c0-3.9-0.1-6.2-0.2-6.9
			c-0.2-0.8-0.7-1.2-1.8-1.2c-0.4,0-0.6-0.1-0.6-0.3c0-0.1,0-0.2,0.1-0.2c0.1-0.1,0.6-0.1,1.6-0.2l3.2-0.2
			C514.8,537.4,514.9,538.7,515,540.6z"/>
		<path class="st0" d="M535.6,549.4c-0.6,0.8-1.3,1.5-2.1,1.9c-0.8,0.4-1.7,0.6-2.7,0.6c-1.2,0-2.1-0.3-2.8-1c-0.7-0.6-1-1.5-1-2.5
			c0-0.8,0.2-1.5,0.6-2.2c0.4-0.7,0.9-1.2,1.4-1.4c0.5-0.3,1.4-0.7,2.8-1.1c1.9-0.6,3-1.1,3.4-1.6c0.4-0.4,0.6-0.9,0.6-1.6
			c0-1-0.2-1.9-0.7-2.5c-0.5-0.6-1.2-0.9-2.1-0.9c-0.7,0-1.3,0.2-1.7,0.5c-0.4,0.3-0.7,1-0.9,2c-0.2,1.1-0.7,1.6-1.4,1.6
			c-0.3,0-0.5-0.1-0.9-0.4s-0.5-0.6-0.5-1.1c0-0.9,0.5-1.7,1.5-2.3c1-0.7,2.3-1,4-1c1.4,0,2.4,0.2,3.2,0.6c0.8,0.4,1.3,0.8,1.5,1.3
			s0.3,1.4,0.3,2.9l-0.1,4.7c0,1.8,0.1,3.1,0.3,3.8s0.6,1.1,1.2,1.1c0.1,0,0.3,0,0.5-0.1l0.3,0c0.3,0,0.4,0.1,0.4,0.3
			c0,0.5-1.2,0.7-3.5,0.7c-0.7,0-1.1-0.2-1.3-0.5S535.6,550.4,535.6,549.4z M535.6,542.6c-0.4,0.5-1.2,1-2.4,1.7
			c-1.2,0.6-2.1,1.2-2.7,1.8c-0.5,0.6-0.8,1.3-0.8,2.1c0,0.7,0.2,1.4,0.7,1.9c0.4,0.5,1,0.8,1.6,0.8c0.7,0,1.3-0.2,1.9-0.6
			c0.6-0.4,1-1,1.3-1.6c0.3-0.6,0.4-1.6,0.4-2.9C535.7,544.8,535.7,543.7,535.6,542.6z"/>
		<path class="st0" d="M548.6,536.6c0.1,0.5,0.1,1,0.1,1.4c0,0.4,0,0.9-0.1,1.5c1.2-1.1,2.1-1.8,2.7-2.1c0.6-0.3,1.3-0.5,2.1-0.5
			c1.8,0,3.4,0.7,4.6,2.2s1.9,3.2,1.9,5.2c0,2.2-0.7,4-2.2,5.3c-1.5,1.4-3.2,2.1-5.1,2.1c-1.3,0-2.7-0.4-4-1.2
			c-0.2,1.4-0.3,3-0.3,4.8c0,1,0,1.8,0.1,2.4l0.1,0.7c0.2,0.7,0.8,1.2,1.8,1.4c0.3,0.1,0.5,0.2,0.5,0.4l-0.1,0.2l-0.1,0.1
			c-1.5-0.1-2.6-0.1-3.4-0.1c-2.1,0-3.3,0-3.8,0.1c-0.3,0-0.4-0.1-0.4-0.3c0-0.2,0.1-0.3,0.4-0.3c1.1-0.1,1.8-0.4,2.1-0.7
			s0.5-2,0.5-5c0.1-3,0.1-4.8,0.1-5.5l-0.1-4.8l0-2.9c0-1.5-0.1-2.4-0.3-2.8c-0.2-0.4-0.7-0.6-1.5-0.7c-0.3,0-0.4-0.1-0.4-0.3
			c0-0.1,0.1-0.2,0.2-0.2c0.1-0.1,0.6-0.1,1.6-0.1L548.6,536.6z M548.5,544.5c0,2.2,0.1,3.5,0.2,4.1c0.1,0.6,0.5,1.2,1.1,1.7
			c0.7,0.5,1.5,0.8,2.6,0.8c1.4,0,2.6-0.6,3.5-1.8s1.3-2.7,1.3-4.5c0-2-0.4-3.6-1.3-4.9c-0.9-1.2-2-1.8-3.3-1.8
			c-1.2,0-2.2,0.5-3,1.6C548.8,540.6,548.5,542.2,548.5,544.5z"/>
		<path class="st0" d="M568.7,539.2c1.4-1.8,3.1-2.6,5.1-2.6c1.6,0,2.7,0.4,3.6,1.3s1.2,2.5,1.2,4.7l-0.1,4.7c0,1.5,0,2.4,0.1,2.7
			c0,0.3,0.2,0.6,0.5,0.8c0.3,0.2,0.6,0.4,0.9,0.4c0.3,0,0.5,0.1,0.5,0.2c0,0.2-0.3,0.3-0.8,0.3h-5.2c-0.2,0-0.3-0.1-0.3-0.3
			c0-0.2,0.1-0.3,0.4-0.3c0.8-0.1,1.3-0.4,1.5-1c0.2-0.5,0.2-2.3,0.2-5.2c0-3.2-0.3-5.2-0.9-6.1c-0.6-0.9-1.5-1.4-2.5-1.4
			c-1,0-1.9,0.4-2.7,1.2c-0.8,0.8-1.2,1.9-1.4,3.4c-0.1,1.5-0.2,3.3-0.2,5.5c0,1.5,0.1,2.4,0.2,2.9c0.2,0.4,0.6,0.7,1.3,0.9
			c0.3,0,0.4,0.2,0.4,0.3c0,0.2-0.1,0.3-0.4,0.3l-3.6-0.1c-0.8,0-1.4,0-2,0.1c-0.4,0-0.5-0.1-0.5-0.3c0-0.2,0.1-0.3,0.4-0.3
			c0.6-0.1,0.9-0.2,1.1-0.5s0.4-1.2,0.5-2.8c0.1-1.7,0.2-3.8,0.2-6.3c0-4.6,0-7.6-0.1-9s-0.3-2.5-0.6-3.1c-0.4-0.6-0.8-1-1.4-1.1
			c-0.3-0.1-0.5-0.2-0.5-0.4c0-0.1,0-0.2,0.1-0.2c0.1,0,0.5,0,1.1,0c1.2,0,2.4,0,3.7-0.1l-0.1,8.8
			C568.6,537.5,568.6,538.4,568.7,539.2z"/>
		<path class="st0" d="M589.6,536.6l0,4l0,3.7v2.8l0,2.1c0,0.8,0.1,1.4,0.4,1.6c0.3,0.2,0.7,0.4,1.2,0.4c0.6,0,1,0.2,1,0.4
			c0,0.2-0.1,0.3-0.4,0.3c-0.1,0-0.2,0-0.3,0c-1.1-0.1-2.1-0.2-3.1-0.2c-1.5,0-2.5,0-3.1,0.1c-0.1,0-0.2,0-0.4,0
			c-0.3,0-0.4-0.1-0.4-0.3s0.3-0.4,1-0.4c0.7-0.1,1.1-0.2,1.3-0.4c0.2-0.2,0.3-0.8,0.3-1.8l0.1-7.3c0-2-0.1-3.1-0.4-3.5
			s-0.9-0.5-1.7-0.6c-0.3,0-0.4-0.1-0.4-0.3c0-0.1,0-0.2,0.1-0.2c0.1-0.1,0.8-0.1,2.1-0.2C588.2,536.6,589.1,536.6,589.6,536.6z
			 M587.6,527.9c0.4,0,0.8,0.2,1.2,0.5c0.4,0.3,0.5,0.7,0.5,1.1c0,0.5-0.1,0.9-0.4,1.2s-0.7,0.5-1.2,0.5c-0.4,0-0.8-0.1-1.2-0.4
			c-0.4-0.3-0.5-0.7-0.5-1.2c0-0.5,0.1-0.9,0.4-1.2C586.8,528.1,587.2,527.9,587.6,527.9z"/>
		<path class="st0" d="M595.8,544.6c0-2.2,0.7-4,2.1-5.7s3.1-2.4,5.1-2.4c1.3,0,2.5,0.3,3.7,0.9s1.8,1.4,1.8,2.4
			c0,0.4-0.1,0.7-0.3,1s-0.5,0.4-0.8,0.4c-0.7,0-1.2-0.5-1.5-1.6c-0.5-1.6-1.5-2.4-2.8-2.4c-1.3,0-2.4,0.6-3.1,1.7
			c-0.7,1.2-1,2.7-1,4.6c0,2.2,0.5,4,1.5,5.4c1,1.4,2.2,2.1,3.5,2.1c0.9,0,1.8-0.4,2.6-1.1c0.8-0.7,1.3-1.5,1.5-2.5
			c0.1-0.3,0.2-0.5,0.4-0.5c0.2,0,0.3,0.1,0.3,0.3c0,1.2-0.5,2.2-1.6,3.2c-1.1,1-2.5,1.5-4.3,1.5c-2,0-3.6-0.7-4.9-2.2
			C596.5,548.3,595.8,546.5,595.8,544.6z"/>
		<path class="st0" d="M637.5,527.6c0,2.5,0,5.9,0,10.2l-0.1,11.2c0,1.2,0.6,2,1.7,2.2c0.4,0.1,0.6,0.2,0.6,0.4
			c0,0.1-0.1,0.2-0.2,0.3c-0.1,0-0.9,0.1-2.3,0.1c-0.7,0-1.5,0-2.2,0c0-0.7-0.1-1.2-0.1-1.6c0-0.4,0-1,0.1-1.7
			c-0.6,1.2-1.4,2.1-2.2,2.6s-1.7,0.9-2.7,0.9c-1.4,0-2.8-0.7-4.3-2c-1.4-1.3-2.2-3.1-2.2-5.3c0-2.2,0.7-4.1,2-5.7s3-2.4,5-2.4
			c1,0,1.8,0.2,2.6,0.6c0.7,0.4,1.3,1,1.7,1.9c0.1-1.4,0.1-2.7,0.1-3.9c0-3.7-0.1-5.8-0.3-6.2c-0.2-0.4-0.6-0.7-1.3-0.7
			c-0.4-0.1-0.7-0.2-0.7-0.3c0-0.2,0.3-0.3,0.8-0.3L637.5,527.6z M635,543.4c0-2-0.3-3.5-1-4.5c-0.7-1-1.7-1.5-3.1-1.5
			c-1.4,0-2.5,0.6-3.2,1.7c-0.7,1.2-1.1,2.9-1.1,5.2c0,2.3,0.4,4,1.3,5c0.9,1,1.8,1.5,2.8,1.5c1,0,2-0.5,2.9-1.6
			C634.5,548.2,635,546.2,635,543.4z"/>
		<path class="st0" d="M646.7,543.5c0,0.6-0.1,1.1-0.1,1.4c0,1.7,0.5,3.1,1.5,4.2c1,1.2,2.2,1.7,3.7,1.7c1.4,0,2.7-0.6,3.9-1.7
			c0.4-0.3,0.6-0.5,0.7-0.5c0.2,0,0.3,0.2,0.3,0.5c-0.4,0.8-1.2,1.5-2.3,2.1s-2.3,0.8-3.6,0.8c-2,0-3.6-0.7-5-2.1
			c-1.4-1.4-2-3.2-2-5.3c0-2.3,0.7-4.2,2.2-5.8c1.5-1.5,3.1-2.3,4.8-2.3c1.6,0,3,0.6,4.3,1.8c1.3,1.2,1.9,2.6,1.9,4.2
			c0,0.2,0,0.4-0.1,0.5c-0.1,0.1-0.5,0.2-1.4,0.2L646.7,543.5z M646.7,542.6c1.5,0.1,3,0.1,4.5,0.1l0.9-0.1c0.7,0,1.2-0.2,1.6-0.4
			c0.4-0.3,0.6-0.7,0.6-1.3c0-1-0.3-1.8-1-2.6c-0.7-0.7-1.5-1.1-2.4-1.1c-0.8,0-1.7,0.4-2.5,1.3S647,540.6,646.7,542.6z"/>
		<path class="st0" d="M672.4,547c0,1.4-0.5,2.5-1.5,3.5s-2.2,1.5-3.6,1.5c-0.8,0-1.8-0.3-2.9-0.8c-0.6-0.3-1-0.4-1.1-0.4
			c-0.2,0-0.4,0.1-0.5,0.4c-0.2,0.3-0.4,0.5-0.5,0.5c-0.1,0-0.2-0.2-0.3-0.5s-0.1-1.1-0.1-2.3c0-1,0-1.7-0.1-2
			c0-0.4,0.1-0.7,0.3-0.7c0.1,0,0.2,0.1,0.3,0.3c0.5,1.3,1.1,2.5,1.9,3.4c0.8,0.9,1.8,1.4,2.9,1.4c0.8,0,1.5-0.2,2.1-0.7
			c0.6-0.5,0.9-1.1,0.9-2c0-1.3-1.1-2.4-3.4-3.4c-1.5-0.7-2.6-1.2-3.1-1.5c-0.5-0.3-0.9-0.7-1.2-1.3s-0.4-1.1-0.4-1.8
			c0-1.2,0.5-2.2,1.4-3s2-1.2,3.3-1.2c1,0,2,0.3,3.2,0.9c0.2,0.1,0.4,0.1,0.5,0.1c0.1,0,0.2-0.1,0.4-0.3c0.1-0.2,0.2-0.3,0.3-0.3
			c0.1,0,0.2,0,0.2,0.1s0.1,0.6,0.2,1.6c0.1,1,0.1,1.7,0.1,2.3c0,0.4-0.1,0.6-0.3,0.6c-0.2,0-0.3-0.2-0.4-0.5
			c-0.1-0.3-0.4-0.9-0.8-1.8c-0.5-0.9-1-1.5-1.5-1.7c-0.6-0.2-1.1-0.4-1.7-0.4c-0.8,0-1.5,0.2-2.1,0.6c-0.5,0.4-0.8,0.9-0.8,1.6
			c0,0.4,0.1,0.8,0.3,1.1c0.2,0.3,0.4,0.6,0.6,0.7c0.2,0.2,1.3,0.7,3.4,1.6c1.3,0.6,2.1,1,2.5,1.3c0.4,0.3,0.7,0.7,1,1.3
			C672.2,545.9,672.4,546.5,672.4,547z"/>
		<path class="st0" d="M682.1,536.6l0,4l0,3.7v2.8l0,2.1c0,0.8,0.1,1.4,0.4,1.6c0.3,0.2,0.7,0.4,1.2,0.4c0.6,0,1,0.2,1,0.4
			c0,0.2-0.1,0.3-0.4,0.3c-0.1,0-0.2,0-0.3,0c-1.1-0.1-2.1-0.2-3.1-0.2c-1.5,0-2.5,0-3.1,0.1c-0.1,0-0.2,0-0.4,0
			c-0.3,0-0.4-0.1-0.4-0.3s0.3-0.4,1-0.4c0.7-0.1,1.1-0.2,1.3-0.4c0.2-0.2,0.3-0.8,0.3-1.8l0.1-7.3c0-2-0.1-3.1-0.4-3.5
			s-0.9-0.5-1.7-0.6c-0.3,0-0.4-0.1-0.4-0.3c0-0.1,0-0.2,0.1-0.2c0.1-0.1,0.8-0.1,2.1-0.2C680.7,536.6,681.6,536.6,682.1,536.6z
			 M680.1,527.9c0.4,0,0.8,0.2,1.2,0.5c0.4,0.3,0.5,0.7,0.5,1.1c0,0.5-0.1,0.9-0.4,1.2s-0.7,0.5-1.2,0.5c-0.4,0-0.8-0.1-1.2-0.4
			c-0.4-0.3-0.5-0.7-0.5-1.2c0-0.5,0.1-0.9,0.4-1.2C679.3,528.1,679.7,527.9,680.1,527.9z"/>
		<path class="st0" d="M701.2,539.1c0.5,0.8,0.8,1.8,0.8,2.8c0,1.5-0.5,2.8-1.5,3.9c-1,1.1-2.5,1.7-4.3,1.8c-1.2,0.1-2,0.2-2.5,0.3
			c-0.4,0.1-0.8,0.3-1.2,0.7c-0.4,0.3-0.5,0.7-0.5,1c0,0.5,0.3,0.9,0.8,1.1c0.6,0.2,1.7,0.4,3.5,0.4c2.6,0.1,4.4,0.2,5.3,0.3
			c0.9,0.1,1.6,0.5,2.3,1.2c0.6,0.7,0.9,1.6,0.9,2.7c0,1.8-0.8,3.2-2.4,4.4s-3.9,1.7-7,1.7c-2.3,0-4-0.3-5.1-0.9
			c-1.1-0.6-1.7-1.5-1.7-2.6c0-1.8,1.7-3.3,5.2-4.5c-1.5-0.2-2.5-0.6-3.1-1c-0.6-0.4-0.9-1-0.9-1.7c0-0.8,0.3-1.4,0.9-2
			s1.6-1.1,2.8-1.4c-1.1-0.3-2-0.9-2.7-1.7c-0.7-0.8-1-1.8-1-2.9c0-1.6,0.6-3,1.8-4.2c1.2-1.2,2.8-1.8,4.7-1.8
			c1.8,0,3.3,0.6,4.5,1.9c1.2-1.4,2.3-2.1,3.4-2.1c0.7,0,1.3,0.2,1.7,0.6c0.4,0.4,0.6,0.9,0.6,1.4c0,0.3-0.1,0.6-0.4,0.8
			c-0.2,0.2-0.5,0.3-0.8,0.3c-0.6,0-1.1-0.4-1.4-1.1c-0.2-0.4-0.5-0.6-0.8-0.6C702.6,537.8,701.9,538.2,701.2,539.1z M697.2,553.4
			c-1.2,0-2.4,0.2-3.4,0.6c-1,0.4-1.8,0.9-2.3,1.4s-0.8,1.2-0.8,2c0,1,0.5,1.8,1.5,2.4c1,0.5,2.3,0.8,3.8,0.8c2.3,0,4-0.5,5.1-1.4
			c1.1-0.9,1.7-1.9,1.7-3c0-0.9-0.5-1.6-1.4-2.1C700.5,553.6,699.1,553.4,697.2,553.4z M692.5,542c0,1.7,0.4,3,1.1,3.7
			c0.8,0.7,1.6,1.1,2.4,1.1c0.8,0,1.5-0.4,2.1-1.1c0.6-0.8,0.9-1.9,0.9-3.5c0-1.6-0.3-2.8-0.9-3.7c-0.6-0.9-1.4-1.3-2.3-1.3
			c-1,0-1.8,0.4-2.4,1.3C692.9,539.4,692.5,540.5,692.5,542z"/>
		<path class="st0" d="M714.1,536.6c0.3,0.7,0.5,1.9,0.5,3.5c0.7-1.2,1.5-2,2.4-2.6c0.9-0.6,1.9-0.9,2.9-0.9c0.8,0,1.6,0.1,2.3,0.4
			c0.7,0.3,1.3,0.8,1.7,1.6c0.4,0.7,0.6,2,0.6,3.7l-0.1,5.9c0,1.1,0.1,1.8,0.3,2.1c0.2,0.3,0.6,0.5,1.2,0.7c0.4,0.1,0.6,0.2,0.6,0.4
			c0,0.2-0.1,0.3-0.3,0.3c-0.1,0-0.2,0-0.2,0c-0.5-0.1-1.3-0.2-2.4-0.2c-1,0-2,0-3.1,0.1c-0.4,0-0.7-0.1-0.7-0.3
			c0-0.1,0.1-0.2,0.4-0.3c0.6-0.1,1.1-0.3,1.3-0.4c0.2-0.2,0.3-0.4,0.4-0.6c0.1-0.3,0.2-1.1,0.2-2.5c0.1-1.4,0.1-2.6,0.1-3.5
			c0-2.5-0.3-4.1-0.9-5s-1.4-1.2-2.3-1.2c-1.4,0-2.5,0.7-3.4,2.2c-0.9,1.5-1.4,4-1.4,7.4c0,1.6,0.1,2.6,0.3,3
			c0.2,0.4,0.7,0.7,1.5,0.8c0.3,0,0.4,0.1,0.4,0.3c0,0.2-0.1,0.2-0.4,0.2l-0.9-0.1c-0.3,0-1.4,0-3.3,0l-1.4,0
			c-0.5,0-0.8-0.1-0.8-0.3c0-0.2,0.3-0.4,0.8-0.5c0.5-0.1,0.9-0.3,1.1-0.6c0.2-0.3,0.3-1.1,0.4-2.6c0.1-1.5,0.1-3.4,0.1-5.6
			c0-2.1-0.1-3.4-0.4-3.9c-0.3-0.5-0.7-0.8-1.2-0.9c-0.5-0.1-0.7-0.3-0.7-0.4c0-0.2,0.2-0.3,0.5-0.3l1.4,0
			C711.9,536.7,712.7,536.6,714.1,536.6z"/>
	</g>
	<g>
		<path class="st3" d="M309.7,440c0.8-5,4.9-10.6,12.5-16.6c7.7-6,17.1-11.7,28.3-17c11.2-5.4,22.5-9.7,34-12.8
			c11.5-3.1,21.4-4.5,29.7-3.8c8.4,0.7,13.6,4,15.6,10c2,6-0.9,15.4-8.7,28.3c-14.5,23.6-28.9,47.3-43.4,70.9
			c-4.8,8-9.8,15.9-14.6,23.9c-9.2,14.8-5.2,10.7-0.1,4.8c0.8-0.9,1.5-1.6,2.3-2.5c0.7-0.7,1.3-1.4,2-2.2
			c16.8-18.5,34-36.6,51.5-54.4c2.6-2.6,3-5.2,3.1-7.8c0.1-2.8,0.7-5,4.2-5.8c2.9-0.6,3.5,0.6,3.5,1.4c0.3,1,0.4,1.1,4-2.2
			c15.3-14.9,31.9-28.3,49.6-40.1c2.8-1.7,4,0.8,1.7,2.3c-17.8,11.7-34.3,27.1-49.4,42.2l-1.9,1.9c-0.8,0.8-1.4,1.4-2,1.9
			c-2.3,1.8-3.2,3-4,7.3c-1.2,7.2-1.5,13.7-0.9,19.3s3,9.5,7,11.7c4.1,2.2,10.4,1.7,19.2-1.4c3.2-1.1,4.4,1.9,1.5,3
			c-25.2,9-35.5-1.5-32.9-26.7c0.1-0.3,0.1-0.5,0.1-0.7c0.4-2.4,0.2-2.8-2.2-0.3c-19.7,19.1-34.3,35.1-44.6,46.8
			c-13,14.9-19.8,22-22.5,18.9c-1.3-1.6-2-3-2-4.3c0-1.2,0.8-3.1,2.3-5.7c8.5-14,17.7-29.2,27.6-45.5c13-21.4,25.2-41.3,36.4-59.7
			c13.1-21.4,13.6-35.1-15.8-30.6c-7.7,1.2-17.6,4-29.6,8.4c-12.1,4.5-23.3,9.7-34.1,15.8c-10.7,6.1-17.8,12.2-21.4,18.4
			c-0.7,1.4,0,2.3,0.8,3c1.3,1.1,2,2.3-1.6,4.7C311.2,447.7,309.5,442.9,309.7,440z"/>
		<path class="st3" d="M457.4,521.9c5.3-8.4,12.1-19.4,20.3-32.6c2.2-4.1,6.5-11.7,13.2-22.8c6.6-11.2,14-23.3,22.2-36.3
			c8.2-13,15.6-24.4,22.3-34c6.7-9.7,11.4-15.1,13.9-16.2c3.9-1.1,5.8-0.2,5.7,2.8c0,2.9-1,6.8-3.2,11.6c-2.1,4.7-4.4,9.1-6.7,13.3
			c-2.4,4.1-3.9,6.7-4.7,8c-0.1,0.1-0.1,0.1-0.1,0.2c-8.6,14-18.2,28-28.8,42.1c-10.4,14.1-18.5,23.5-24.1,28.4
			c-1,0.8-1.8,1.2-2.2,1.4c-0.9,0.6-1.2,0.8-2.9,3.6l-37.7,61.4c0.7,0-2.6,6.6-5.8,5C435.8,556.5,438.7,552.3,457.4,521.9z
			 M493.5,474.5c6.3-8,13.3-17.6,21-28.8s14.8-22,21.4-32.6c15.6-25.8,17.7-33.5,8.6-21.7c-12.6,17.5-25,37.9-36.7,58
			c-5,8.4-9.9,16.6-14.7,24.5C491.3,476.7,491.3,477.3,493.5,474.5z"/>
		<path class="st3" d="M515.1,474.9c0.3-0.5,0.5-0.8,0.7-0.9c-1.5-2.8,6.3-8.4,8-5.8c0.9,1.4,0.1,2.7-0.8,3.8
			c-0.1,0.1-0.3,0.3-0.4,0.5c-2.4,3.4-5,7.2-7.9,11.5c-2.8,4.2-4.8,7.7-6.3,10.5c-1,2.5-0.4,3.8,2,4.1c2.5,0.3,5.6-0.1,9.5-1.1
			c3.9-1,7.5-2.1,10.7-3.2c3.3-1.2,5.2-2,5.9-2.4c2-1.1,3.3,0.9,0.9,2.7c-4.1,2.3-9.5,4.4-16.1,6.3c-6.5,1.9-11.3,2.8-14.1,2.8
			C494.8,503.6,510.9,480.6,515.1,474.9z M522.6,463.4c-0.4-1,1.2-1.7,2.2-2.3c0.5-0.1,0.8-0.3,0.8-0.4c0.1-1.4,1.2-2.4,2.8-2.3
			C535.4,458.9,524.5,468,522.6,463.4z"/>
		<path class="st3" d="M579.1,491.1c3-3.3,6.2-6.4,9.4-9.3c3.3-2.9,6.1-4.4,8.3-4.5c2.1,0.3,3.2,1.5,3.5,3.6c0.3,2,0.4,4.3,0.1,6.7
			c-0.4,3.1-0.5,6,0.7,7.1c1,1,5.2-0.5,12.3-4.7c2.7-1.5,4.3,0.6,1,2.5c-9.4,5.8-14,7.4-16.7,4.8c-2.4-2.3-3.2-6.3-2.6-12.1
			c0.1-2.7-0.4-2.4-2.7-0.5c-0.1,0.1-0.3,0.2-0.4,0.3c-1.9,1.6-4.1,3.5-6.5,5.9c-2.9,2.9-5.9,5.5-8.6,7.7c-2.8,2.2-4.9,2.9-6.5,2.5
			c-6.9-2.6-1.7-15.4,1.2-22.5c0.5-1.2,0.9-2.3,1.2-3.1c2.2-6.6-19.7,13.8-27,20.1c-1,0.9-1.7,1.6-2,1.9c-0.3,0.3-0.8,0.7-1.4,1.1
			c-3.5,3.3-11.2,10.1-13.8,9.1c-1.9-1-2.1-3-0.7-6c3.8-7.7,8.2-14.9,13.1-21.6c2.6-3.6,4.9-7.2,7.3-10.9c0.1-0.3,0.2-0.3-0.1-0.6
			l-0.1-0.1c-0.9-0.9-0.6-1.9,0.5-3c1.1-1.1,8.6-6.3,5.8,2.1c-3.9,7-8.4,14.1-13.4,21.3c-1.1,1.7-2.3,3.4-3.3,5
			c-3,4.6-2,3.8,1.3,0.9c0.5-0.4,0.9-0.8,1.3-1.1c12.4-10.8,29.3-25.5,34.7-23.6c2.6,1.2,3,4.3,1.4,9.1c-0.1,0.3-0.4,0.9-0.7,1.7
			c-1.6,4.7-6.1,16.7-4.6,17C572.6,498,575.4,495,579.1,491.1z"/>
		<path class="st3" d="M663.7,491.8c-2.4,1.4-5.5,2.8-9.3,4.3c-3.7,1.3-7.1,1.7-10.1,1.2c-2.9-0.6-4.6-2.9-4.7-7.2v-0.5
			c0.1-1.8,0-1.7-1.8-0.6c-9.8,6.4-17,10.3-21.6,12c-4.6,1.6-7.2,1.6-8.1,0.2c-1-2,0.3-5.1,3.8-9.4c3.5-4.3,8.1-8.4,13.7-12.2
			c5.6-3.9,11-6.2,16.1-6.9c5.1-0.9,8.7,1.2,10.8,6.1c0.4,1.2-0.6,2.4-1.8,2.8c-1.2,0.4-3.1-0.8-3.8-2c0-0.3,0.2-0.5,0.3-0.8
			c0.1-0.3,0.3-0.5,0.2-0.8c-1.6-2.2-4.3-2.5-8.2-0.9s-8,3.9-12.2,7.1c-4.3,3.2-8,6.3-10.9,9.2c-2.9,2.8-4.4,4.6-4.2,5.2
			c0.3,0.7,2.8-0.4,7.5-3.1c4.7-2.8,12.5-7.8,23.3-15.3c1.1-0.7,2.5-0.5,3.2,0.7c0.5,0.8,0.5,1.5,0.1,2.3c-2.4,5.2-2.7,8.4-0.9,9.6
			c1.9,1.2,4.6,1.3,8.1,0.3s6.5-2.3,9.1-3.7C665.9,487.4,666.7,489.6,663.7,491.8z"/>
	</g>
</g>
</svg>
