<?xml version="1.0" encoding="utf-8"?>
<!-- Generator: Adobe Illustrator 22.1.0, SVG Export Plug-In . SVG Version: 6.00 Build 0)  -->
<svg version="1.1" id="Layer_1" xmlns="http://www.w3.org/2000/svg" xmlns:xlink="http://www.w3.org/1999/xlink" x="0px" y="0px"
	 viewBox="0 0 100 100" style="enable-background:new 0 0 100 100;" xml:space="preserve">
<style type="text/css">
	.st0{fill:#1B3C24;}
</style>
<g>
	<g>
		<path class="st0" d="M50.9,42.1c0.6-0.9,1.2-1.3,2.2-1.5c0.3,0,0.8,0,1.1,0c1.3,0.2,2,1.2,2.2,2.5c0.2,0.8,0.2,1.7,0.2,2.5
			c0,2.3,0,4.7,0,7.1c0,0.2,0,0.3,0,0.6c0.1,0.6,0.3,1,0.9,1.2c0.1,0.1,0.3,0.1,0.4,0.2c-6.6,0.3-13.2,0.9-19.8,1.7
			c0.1,0,0.1-0.1,0.2-0.1c0.8-0.3,1.2-1,1.1-1.9c0-3.2,0-6.4,0-9.6c0-1-0.4-1.5-1.5-1.7c0,0-0.1,0-0.1-0.1c1.8-0.7,3.6-1.3,5.5-2
			c0,0.2,0,0.3,0,0.4c0,4.1,0,8.2,0,12.3c0,0.2,0,0.4,0,0.7c0.1,0.7,0.7,1.1,1.2,1.2c0.1,0,0.2,0,0.2,0c0.8-0.3,1.2-0.9,1.2-1.8
			c0-3.4,0-6.6-0.1-9.9c0-0.3-0.1-0.7-0.1-1c-0.2-0.7-0.7-0.9-1.2-0.6c-0.2,0.1-0.4,0.2-0.7,0.4c0-0.1,0.1-0.1,0.1-0.2
			c0.6-0.9,1.5-1.2,2.5-1.3c1.8-0.1,2.9,0.9,3.2,2.8c0.1,0.7,0.1,1.3,0.1,1.9c0,2.5,0,5,0,7.5c0,0.9,0.3,1.3,1.1,1.6
			c0.1,0,0.3,0,0.6,0c0.7-0.3,1.1-0.9,1.1-1.7c0-3.4,0-6.6-0.1-9.9c0-0.3-0.1-0.7-0.1-0.9c-0.2-0.7-0.7-0.9-1.2-0.7
			C51.3,41.7,51.1,41.8,50.9,42.1z"/>
		<path class="st0" d="M22.2,45.2c1.9-0.8,3.8-1.7,5.7-2.5c0,0.2,0,0.3,0,0.4c0,3.9,0,7.8,0,11.7c0,0.9,0,1.8,0,2.6
			c0,0.2-0.1,0.3-0.3,0.3c-1.5,0.2-2.9,0.4-4.4,0.8c-0.1,0-0.3,0.1-0.4,0.2c-1.6,1.2-3.8,1.3-5.4,0.2c-1-0.8-1.5-1.9-1.6-3.1
			c-0.1-0.9,0-1.9-0.1-2.8c0-0.6-0.1-1-0.2-1.6c-0.4-1.5-1.5-2.1-2.9-2.2c-0.2,0-0.3,0-0.6,0c0.1,0,0.1-0.1,0.2-0.1
			c1.7-0.6,2.6-1.7,2.9-3.4c0.3-1.5,0.3-2.9,0.1-4.5c-0.3-1.6-1-2.5-3-2.6c0.6-0.1,1.1-0.2,1.7-0.3c1.2-0.2,2.5-0.1,3.7,0.3
			c1.7,0.7,2.5,1.8,2.7,3.6c0.1,0.9,0.1,1.7-0.1,2.5c-0.4,1.5-1.3,2.6-2.8,3.2c-0.4,0.2-0.9,0.3-1.3,0.6c0.6,0.1,1.1,0.1,1.8,0.3
			c1.9,0.4,2.9,1.6,3.1,3.5c0,0.9,0,1.8,0,2.7c0,0.6,0.1,1.1,0.1,1.7c0.1,0.6,0.3,1,0.9,1.1c0.6,0.1,1.1-0.1,1.6-0.4
			c0.1-0.1,0.2-0.3,0.2-0.6c0-0.2,0-0.3,0-0.6c0-3.1,0-6.3,0-9.4c0-0.1,0-0.2,0-0.4c-0.1-0.9-0.4-1.2-1.3-1.5
			C22.4,45.2,22.4,45.2,22.2,45.2z"/>
		<path class="st0" d="M33.1,43.6c0.7,1.2,0.6,2.3,0,3.5c-0.4,0.9-1.2,1.3-2.2,1.3c-0.6,0-0.9-0.2-1.2-0.6c-1.6-1.7-0.7-5,1.6-5.7
			c0.8-0.2,1.5-0.1,2.1,0.1c0.7,0.2,1.5,0.6,2.1,0.8c1.1,0.4,2.2,0.9,3.6,0.8c-1.8,3.6-3.6,7.1-5.4,10.7c0.7,0.2,1.3,0.3,2,0.7
			c1.1,0.4,2.1,0.9,3.2,1.3c2.1,0.8,4.1,0.9,6.3,0c0,0,0,0,0.1,0c0,0.1-0.1,0.1-0.1,0.2c-0.6,1-1.2,1.9-2.1,2.7
			c-1.3,1.2-2.8,1.6-4.5,1c-0.7-0.2-1.3-0.6-2-0.9c-0.9-0.4-1.8-1.1-2.8-1.6c-1.8-0.9-3.6-1.1-5.4-0.1h-0.1c0.1-0.1,0.1-0.2,0.1-0.3
			c2-4,4.1-8.2,6.1-12.2c0.1-0.3,0.1-0.4-0.1-0.8C34.1,44.2,33.7,43.7,33.1,43.6C33.3,43.6,33.3,43.6,33.1,43.6L33.1,43.6z"/>
		<path class="st0" d="M5,40.5c2-0.4,4.1-0.9,6.1-1.3c0,0.1,0,0.3,0,0.4c0,6.4,0,12.6,0,19c0,0.1,0,0.2,0,0.3c0,1,0.4,1.6,1.5,1.7
			c0.1,0,0.2,0,0.4,0.1c-2.7,0.6-5.4,1.2-8,1.8c0.1-0.1,0.1-0.2,0.1-0.2c0.9-0.4,1.2-1.2,1.2-2.2c0-0.8,0-1.6,0-2.3
			c0-5.2,0-10.5,0-15.6V42C6.5,41,6.1,40.6,5,40.5z"/>
		<path class="st0" d="M68.7,41.4c1.7-0.4,3.4-0.9,5.1-1.3c0,0.1,0,0.2,0,0.3c0,3.6,0,7,0,10.6c0,1.3-0.1,2.7-0.7,3.9
			c-0.8,1.9-2.2,2.9-4.2,3c-2.3,0.1-4.6,0.2-6.9,0.3c-2.2,0.1-4.4,0.3-6.6,0.6c-2.5,0.2-4.9,0.6-7.4,1c-1.5,0.2-2.8,0.4-4.2,0.7
			c-0.1,0-0.1,0-0.3,0c0.1-0.1,0.2-0.2,0.2-0.2c0.8-0.7,1.3-1.5,1.9-2.2c0.1-0.1,0.2-0.2,0.3-0.2c3.9-0.3,7.7-0.6,11.6-0.9
			c2.5-0.1,4.8-0.1,7.3-0.3c0.9,0,1.8-0.2,2.7-0.3c1.7-0.4,2.5-1.3,2.6-3c0.1-0.8,0.1-1.6,0.1-2.3c0-2.5,0-4.8,0-7.3
			C70.1,42.3,70,42.1,68.7,41.4z"/>
		<path class="st0" d="M6.5,65.5c-0.1-0.7-0.1-0.7,0.6-0.9c4.6-1.2,9.2-2.1,13.7-3c3.5-0.7,6.9-1.2,10.4-1.8c1-0.2,2-0.3,3-0.4
			c0.2,0,0.4,0,0.6,0.1c1,0.6,2,1.1,3,1.7c0.3,0.2,0.8,0.3,1.2,0.4c-0.7,0.1-1.2,0.3-1.9,0.4c-3.7,0.9-7.4,1.9-10.9,3.4
			c-0.1,0-0.3,0.1-0.4,0c-2-0.6-4.1-0.8-6.3-0.9c-1.8-0.1-3.5-0.1-5.2,0c-2.6,0.1-5.1,0.4-7.6,1C6.6,65.5,6.6,65.5,6.5,65.5z"/>
		<path class="st0" d="M82.6,58c-3.5,0-6.8-0.1-10.3-0.1c0.2-0.3,0.6-0.7,0.9-0.9c0.1-0.1,0.2-0.1,0.3-0.1c2.9,0,5.8,0,8.8,0
			c2.1,0,4.2,0,6.4,0c0.1,0,0.2,0,0.3,0c0,1,0,1.9,0,2.9c-11.9-0.2-23.9,0.7-35.6,3c0.1-0.1,0.2-0.1,0.3-0.2
			c1.6-0.7,3.1-1.1,4.7-1.6c3.1-0.8,6.3-1.3,9.4-1.7c4.8-0.7,9.6-1,14.4-1.1C82.4,58,82.5,58,82.6,58L82.6,58z"/>
		<path class="st0" d="M62.5,40.3c1.3-0.2,2.6-0.2,3.7,0.6c0.9,0.7,1.3,1.7,1.5,2.8c0.1,0.6,0.1,1.1,0.1,1.7c0,2.2,0,4.4,0.1,6.6
			c0,0.3,0.1,0.8,0.1,1.1c0.2,0.8,0.8,1,1.6,0.7c0.1-0.1,0.2-0.2,0.4-0.3c-0.4,0.8-1.1,1.2-2,1.3c-0.4,0-1,0-1.5-0.1
			c-1.1-0.2-1.8-1-2-2.1c-0.2-0.7-0.3-1.5-0.3-2.1c0-2.2,0-4.6,0-6.8c0-0.6-0.1-1.1-0.2-1.6C63.5,41.3,63.2,40.6,62.5,40.3z"/>
		<path class="st0" d="M84.3,54.8c0,0,0.1,0,0.1-0.1c0.8-0.3,1.1-0.8,1.1-1.7c0-3,0-5.9,0-8.9c0-0.1,0-0.2,0-0.3
			c0-0.8-0.3-1.2-1.1-1.6c-0.1,0-0.2-0.1-0.4-0.1c1.7-0.4,3.4-0.9,5-1.5c0,0.2,0,0.3,0,0.4c0,3.9,0,7.8,0,11.6c0,1,0.2,1.8,1.3,2
			C88.3,54.8,86.3,54.8,84.3,54.8L84.3,54.8z"/>
		<path class="st0" d="M79.5,40.8c-0.9,0.6-1.1,1.3-1.2,2.1c-0.1,1.2-0.2,2.5-0.2,3.8c0,1.8,0,3.5,0.1,5.2c0,0.6,0.2,1.2,0.3,1.8
			c0.1,0.6,0.4,0.9,0.9,1.2c-0.7,0-1.3-0.1-1.9-0.4c-1-0.6-1.8-1.5-2.2-2.5c-1.1-2.8-1.1-5.6,0.2-8.4c0.7-1.3,1.8-2.3,3.4-2.7
			c0.1,0,0.3-0.1,0.4-0.1C79.3,40.8,79.3,40.8,79.5,40.8z"/>
		<path class="st0" d="M63.3,46.4C62.2,47,61.8,48,61.6,49c-0.1,1.1-0.1,2.2,0.2,3.4c0.1,0.2,0.2,0.6,0.3,0.8
			c0.3,0.7,0.9,0.9,1.7,0.8c0,0,0.1,0,0.2,0c-0.7,0.6-1.5,0.9-2.2,1c-0.4,0-1,0-1.5-0.1c-1.2-0.3-2-1.2-2.3-2.5
			c-0.2-1.1-0.2-2.1,0.1-3.2c0.4-1.6,1.6-2.5,3.4-2.7C62,46.3,62.5,46.4,63.3,46.4z"/>
		<path class="st0" d="M28.2,39.6c0,0.8-0.3,1.7-1.1,2.3c-0.9,0.8-2.1,0.7-2.9-0.2c-1-1.3-0.8-3.6,0.6-4.6c0.9-0.7,2.1-0.6,2.8,0.3
			C28,37.9,28.2,38.6,28.2,39.6z"/>
		<path class="st0" d="M91.3,42.6c-0.8,0.1-1.3,0.6-1.7,1.2c0-0.7,0.7-1.7,1.2-2.1c1.5-1.1,3.1-0.7,3.8,1c0.4,1.1,0.4,2.2-0.1,3.2
			c-0.7,1.3-2.3,1.5-3.1,0.1c-0.7-1-0.7-2-0.2-3.1C91.2,42.9,91.2,42.7,91.3,42.6z"/>
		<path class="st0" d="M58.8,43.1c0-0.8,0.2-1.6,0.8-2.1c0.8-0.9,2-0.8,2.8,0.1c0.8,1,0.8,2.8,0,3.9c-0.9,1.1-2.2,1-3-0.1
			C58.9,44.2,58.8,43.6,58.8,43.1z"/>
		<path class="st0" d="M79.9,46.8c0-0.2,0-0.3,0-0.6c0.2,0,0.4,0,0.8,0c0.2,0,0.4,0,0.8,0c0-0.8,0-1.6-0.1-2.3
			c-0.1-0.6-0.2-1.2-0.3-1.8c-0.1-0.6-0.4-1-0.9-1.2v-0.1c0.3,0.1,0.8,0.1,1.1,0.2c1.3,0.4,2.3,1.5,2.9,2.8c0.4,0.9,0.7,1.9,0.8,3
			C83.3,46.8,81.6,46.8,79.9,46.8z"/>
		<path class="st0" d="M73.9,37.2c0,0.6-0.1,1.2-0.6,1.7c-0.7,1-2,1-2.8,0.1c-0.9-0.9-1-2.6-0.2-3.7c0.7-1,1.9-1,2.8-0.2
			C73.7,35.6,73.9,36.4,73.9,37.2z"/>
		<path class="st0" d="M84.9,49.7c-0.4,3.2-2.6,5.2-4.7,5.4c1-0.7,1.1-1.7,1.2-2.7c0.1-0.9,0.1-1.7,0.2-2.6
			C82.5,49.7,83.6,49.7,84.9,49.7z"/>
	</g>
</g>
</svg>
