<?xml version="1.0" encoding="utf-8"?>
<!-- Generator: Adobe Illustrator 22.1.0, SVG Export Plug-In . SVG Version: 6.00 Build 0)  -->
<svg version="1.1" id="Layer_1" xmlns="http://www.w3.org/2000/svg" xmlns:xlink="http://www.w3.org/1999/xlink" x="0px" y="0px"
	 viewBox="0 0 100 100" style="enable-background:new 0 0 100 100;" xml:space="preserve">
<g>
	<path d="M23.8,39.4c0-2.3-1.5-4.2-4-4.5c-4-0.5-8.7,0.4-13.1,1.1c2.4-5.1,7.3-9.9,12-13.4c1.2-0.8,6.2-4,6.3-1.7
		c0,1.9-2.3,6.8-3.4,8.7c-0.6,1.1-0.1,1.2,0.8,0.7c0.4-0.1,0.7-0.5,1.1-0.8c1.9-0.1,3.9-0.1,5.8-0.2c-2.1,5.7-4.3,12-4.3,16.8
		c0,0.8,0.8,3,2,2.1c1.7-2.1,3.1-4,4.5-6.2c0,0.1,0,0.4,0,0.5c-0.2,1.8,2,3.8,3.6,2.4c1.4-1.3,2.7-3,4.2-5c-0.2,1.2-2.1,7.7,1.2,7.4
		c0.7,0,1.4-0.6,1.8-1.2c0.5-0.6,1-1.3,1.4-2c0.1,0.4,0.2,0.7,0.4,1.1c0.5,0.7,1.5,1.5,2.4,1c1.3-1.7,3.1-4.3,4.5-6.1l-1.5,5
		c-0.2,0.7,0.1,1.8,0.8,2.4c0.5,0.4,1.3,0.6,1.8-0.2c0.8-1.2,2.6-3.2,4.2-5.2c-0.2,1.5-0.5,3-0.5,4.3c0,0.8,0.8,3,2,2.1
		c2.4-3.1,4.2-5.6,6.4-8.8c0.5-1-0.5-1-0.8-0.5l-5.7,7.6c0.8-5.9,3-12,5.2-17.5c3.2,0,6.4,0,9.9,0.1c1,0,1.9,0,2.7-0.2
		c-1.2-0.5-2.4-0.6-3.6-0.7c-2.6-0.1-5.1-0.2-8.4-0.2c0.8-1.9,2.3-4.9,3.2-6.4c0-0.1,0.2-0.5,0.4-0.6c0.4-0.6,0.4-1-0.2-1.1
		c-1.8-0.5-3.8,3.4-4.6,5.1l-1.4,3c-1.1,0-1.9,0-2.7,0c1-2.3,2-4.3,3.2-6.3c0-0.1,0.2-0.5,0.4-0.6c0.4-0.6,0.4-1-0.2-1.1
		c-1.2-0.4-2.5,1.3-3.4,2.9c-1,1.7-1.8,3.4-2.6,5.4c-0.4,0-0.7,0.1-1.1,0.1c-0.6,0-1.3,0.4-1.5,1.1c0.7,0,1.4-0.1,2-0.1
		c-0.7,1.8-1.4,3.6-2.3,5.7c-1.1-0.8-3.2-1-4.4-0.2C46,36.1,44.6,38.6,44,41c-0.8,1.5-1.7,3.1-2.7,4.4c-0.5,0.6-0.7,0.5-0.6-0.5
		c0.2-2.1,0.8-4.9,1.9-6.9c0.7-1.4-2.1-1.5-2.9-0.2c-0.6,1-3.2,4-4.6,5.4c-1.1,1-1.7,0.8-0.7-1.8c1.1-2.6,2.7-4,6.2-5
		c0.5-0.2,1.4-0.1,0.6-1.1c-0.4-0.4-1.3-0.7-2.1-0.7c-3.3-0.1-5.5,1.7-6.5,3.9c-0.1,0.4-0.2,0.6-0.4,1l-5.2,7.1
		c0.8-5.9,3-12,5.2-17.5c3.2,0,6.4,0,9.9,0.1c1,0,1.9,0,2.7-0.2c-1.2-0.5-2.4-0.6-3.6-0.7C38.5,28.1,36,28,32.7,28
		c0.8-1.9,2.3-4.9,3.2-6.4c0-0.1,0.2-0.5,0.4-0.6c0.4-0.6,0.4-1-0.2-1.1c-1.8-0.5-3.8,3.4-4.6,5.1l-1.7,3c-2.5,0-3.9,0.1-5.2,0.2
		c1.4-1.7,2.9-4,3.2-5.8c0.7-3.2-1.9-4.6-4.5-4.3c-7,1-16.5,9.6-18.1,16.9c-0.4,1.5,0.5,2.4,2.1,2.3c3.3-0.1,6.5-1,10.3-1.1
		c2.6,0,3.9,1.1,3.8,3.1c0,3-2.6,6.3-5.4,8.6c-1.4,1.1-2.6,1.9-4.5,2.1c-1.1,0.1-1.3-0.5-1.3-1.2c0.2-3.3,6.2-7.6,8.8-9
		C16,39.5,8.5,45.4,8.7,49c0,1.1,0.7,2,2.1,2.4c2.4,0.6,4.6-0.5,6.7-1.9C20.8,47,23.9,43.2,23.8,39.4z M57.2,29.2c1,0,1.9,0,2.9-0.1
		c-1.2,3.1-2.4,6.4-3.2,9.6c-1.8,2.5-3,4.3-5.1,6.4C53.4,39.7,55.2,34.2,57.2,29.2z M52.1,36.2c0,0.1-0.5,1.2-6.3,8.3
		C46.1,42.1,48.5,34.5,52.1,36.2z"/>
	<path d="M93.9,69.7c-0.8,1-2.7,4-3.6,5c-1.4,1.5-1.1,0.6-0.8-0.4c0.5-1.8,1.5-3.6,2.1-5.6c0.2-0.7-0.1-1.5-1-1.9
		c-0.8-0.5-1.4,0-2,0.7c-1.8,2.1-3.1,4-3.9,4.8c0.5-1.2,0.1-0.6,1.9-5.5c0.2-0.7-0.1-1.4-1-1.9c-0.8-0.6-1.5,0.1-2,0.7
		c-2.7,2.6-6.4,7-6.4,7.5c0-1.3,2-4.6,2.9-6.1c0.1-0.2,0.2-0.5,0.2-0.7c0.1-1-1.5-1.3-2.3-0.7c-0.7,1.1-1.5,2.9-2.3,4.4
		c-2.7,3.4-8.4,8.1-8,4.5c0.1-0.6,0.4-1.3,0.8-2.3c1.9-1,3.3-1.8,4.6-3.8c0.5-0.7,0.7-1.4,0.1-2.1c-0.8-1-1.9-0.8-2.9-0.1
		c-1.4,1.1-2.9,2.5-3.7,4.3c-0.8,0.8-1.9,1.5-1.5,0.4c0.1-1.1,0.4-1.8,0.4-2.5c0-1.2-0.7-1.5-1.9-1.1c-1.3,0.5-2.7,1.9-4.2,3.1
		c0.6-1.5,0.8-2.3,1.3-3.6c0.2-0.6,0.4-1.1-0.2-1.3c-0.6-0.4-1.2-0.2-1.5,0.1c-0.5,0.7-1.2,2.3-1.8,4c-2.6,3.4-8.7,8.6-8.2,4.9
		c0.1-0.6,0.4-1.3,0.8-2.3c1.9-1,3.3-1.8,4.6-3.8c0.5-0.7,0.7-1.4,0.1-2.1c-0.8-1-1.9-0.8-2.9-0.1c-1.7,1.2-3.1,2.7-3.9,4.8
		l-4.5,6.2c0.8-5.5,2.9-11.2,4.9-16.3c1.1,0,2.3,0,3.3,0.1c0.7,0,1.3,0,2-0.1c1.2,0,2.5,0,3.8,0.1c0.8,0,1.8,0,2.6-0.1
		c-1.1-0.5-2.3-0.6-3.3-0.6c-2.4-0.1-4.8-0.2-7.9-0.2c0.8-1.8,2.1-4.5,3-5.9c0-0.1,0.2-0.4,0.4-0.6c0.4-0.5,0.4-1-0.2-1.1
		c-1.7-0.5-3.6,3.2-4.3,4.8l-1.4,2.5c-0.5,0-1,0-1.4,0c-0.6,0-1.2,0-1.8,0c0.8-1.8,2.1-4.5,3-5.9c0-0.1,0.2-0.4,0.4-0.6
		c0.4-0.5,0.4-1-0.2-1.1c-1.7-0.5-3.6,3.2-4.3,4.8l-1.3,2.9c-1,0-1.8,0-2.5,0c0-0.1-0.1-0.2-0.2-0.4c-0.1-0.1-0.4-0.1-0.5-0.2
		c-0.2,0-0.4,0-0.5,0.1c-0.1,0.1-0.4,0.4-0.5,0.5c-0.6,0-1.2,0.1-1.7,0.1c-0.6,0-1.2,0.4-1.4,1c0.7,0,1.4-0.1,2.1-0.1
		c-0.2,0.2-0.4,0.5-0.6,0.7c-0.4,0.4-0.6,0.8-0.7,1.2c-0.2,0.4-0.4,0.7-0.4,1c0,0.4,0.1,0.8,0.5,0.8c0.2,0,0.7-0.5,0.7-0.5
		c0.6-0.8,1.2-1.5,1.7-2.1c0.4-0.4,0.6-0.7,1-1.1c0.5,0,1.1,0,1.5,0c0,0.1-0.1,0.1-0.1,0.2c0.4,0,0.7,0,1.2,0
		c-3.7,10.1-11.7,19-10.8,13.4c0.1-0.6,0.4-1.3,0.8-2.3c1.9-1,3.3-1.8,4.6-3.8c0.5-0.7,0.7-1.4,0.1-2.1c-0.8-1-1.9-0.8-2.9-0.1
		c-2.5,1.8-4.6,4.6-4.6,8.1c0,1.1,0.5,2.4,1.8,2.7c2.4,0.6,5.9-3.7,8.2-7.7c-0.7,2.6-1.2,5-1.2,7.1c0,0.8,0.8,2.7,1.9,2
		c1.7-2.1,3-3.9,4.4-5.9c-0.2,1.4-0.5,2.7-0.5,3.9c0,0.8,0.8,2.7,1.9,2c1.1-1.7,2.3-3.2,3.4-4.9c0,0.2,0,0.5,0,0.7
		c0,1.1,0.5,2.4,1.8,2.7c2,0.5,5.2-2.1,7.4-4.4c-0.5,1.7-0.7,3-0.6,3.4c0.1,0.6,0.8,0.7,1.3,0.5c0.2-0.1,0.2-0.2,0.4-0.6
		c1.2-3.6,2.9-5.2,4.8-6.5c1.3-0.8,1.2-0.1,0.8,1.4c-0.5,1.8,0.6,2.4,1.7,2c0.4-0.1,0.7-0.4,1.4-0.8c-0.2,0.7-0.4,1.4-0.4,2.3
		c0,1.1,0.5,2.4,1.8,2.7c1.9,0.5,4.9-1.9,7-4c-0.1,0.4-0.1,0.6-0.1,0.8c-0.1,0.6,0.4,2.4,1.8,1.5c0.6-0.4,1-0.7,1.4-1.3
		c1.8-2.4,3.4-4.5,5.5-6.8c1.7-1.9,1-0.5,0.5,1c-0.6,1.7-1.1,3.2-1.8,4.9c-0.4,1.1,1.1,2.3,1.8,1.9c1.5-1,3.7-4.5,5.5-6.5
		c0.5-0.4,0.4,0.4,0,1.1c-0.8,1.9-1.3,3.1-1.7,4.3c-0.5,1.3-0.4,2.3,1,3c0.6,0.4,1.2,0,1.7-0.5c1.1-1.1,3.2-4.3,4.3-5.8
		C95.5,69,94.7,68.9,93.9,69.7z M71.3,68.3c1.1-1,1.4-1.1,1.4-0.7c-0.1,0.7-1.5,2.3-3.3,3.4C70.1,69.7,70.6,68.9,71.3,68.3z
		 M52.8,68.3c1.1-1,1.4-1.1,1.4-0.7c-0.1,0.7-1.5,2.3-3.3,3.4C51.6,69.7,52.1,68.9,52.8,68.3z M32.7,68.3c1.1-1,1.4-1.1,1.4-0.7
		c-0.1,0.7-1.5,2.3-3.3,3.4C31.4,69.7,31.8,68.9,32.7,68.3z M42.9,70l-5.1,7c0.7-5.5,2.7-11.1,4.8-16.1c1.1,0,2.3-0.1,3.4-0.1
		C44.8,63.8,43.7,67,42.9,70z"/>
	<path d="M77.9,80.8c-7,5.6-15.8,8.7-24.7,8.7c-17.2,0-32.4-10.9-37.6-27.4c-0.5-1.3-0.8-2.7-1.1-4.2c-0.1-0.5-0.6-0.8-1.1-0.7
		c-0.5,0.1-0.8,0.6-0.7,1.1c0.4,1.4,0.7,3,1.2,4.4c5.6,17.1,21.4,28.7,39.5,28.7c9.4,0,18.7-3.2,25.9-9.2c0.4-0.4,0.5-1,0.1-1.3
		C78.8,80.6,78.2,80.5,77.9,80.8z"/>
	<path d="M35.7,14.6c1.8-1,3.8-1.7,5.7-2.3c3.8-1.2,7.7-1.8,11.8-1.8c21.8,0,39.5,17.7,39.5,39.5c0,2-0.1,4.2-0.5,6.2
		c-0.2,1.7-0.6,3.3-1.1,5c-0.1,0.5,0.1,1.1,0.6,1.2c0.1,0,0.2,0,0.2,0c0.4,0,0.8-0.2,1-0.7c0.5-1.7,1-3.4,1.2-5.2
		c0.4-2.1,0.5-4.3,0.5-6.4C94.5,27.2,76,8.6,53.1,8.6c-4.2,0-8.3,0.6-12.4,1.9c-2,0.6-4,1.4-5.9,2.4c-0.5,0.2-0.7,0.8-0.5,1.3
		C34.6,14.6,35.2,14.8,35.7,14.6z"/>
</g>
</svg>
